<svg width="3052" height="400" viewBox="0 0 3052 400" fill="none" xmlns="http://www.w3.org/2000/svg">
<g clip-path="url(#clip0_16518_63512)">
<rect width="3052" height="400" fill="#FAFAFA"/>
<g clip-path="url(#clip1_16518_63512)">
<rect x="2.5" y="2.5" width="682" height="395" fill="white"/>
<path d="M179.094 173.688L188.188 190.969H188.312L197.594 173.688H207.75L192.781 200.25V218.5H183.625V200.25L168.656 173.688H179.094ZM221.219 184.375C223.698 184.375 225.948 184.823 227.969 185.719C229.99 186.594 231.719 187.812 233.156 189.375C234.594 190.938 235.698 192.781 236.469 194.906C237.26 197.031 237.656 199.323 237.656 201.781C237.656 204.26 237.26 206.562 236.469 208.688C235.677 210.792 234.562 212.615 233.125 214.156C231.688 215.698 229.958 216.917 227.938 217.812C225.917 218.688 223.677 219.125 221.219 219.125C218.74 219.125 216.49 218.688 214.469 217.812C212.448 216.917 210.719 215.698 209.281 214.156C207.844 212.615 206.729 210.792 205.938 208.688C205.146 206.562 204.75 204.26 204.75 201.781C204.75 199.323 205.135 197.031 205.906 194.906C206.698 192.781 207.812 190.938 209.25 189.375C210.688 187.812 212.417 186.594 214.438 185.719C216.479 184.823 218.74 184.375 221.219 184.375ZM221.219 211.125C222.448 211.125 223.531 210.896 224.469 210.438C225.427 209.979 226.229 209.344 226.875 208.531C227.521 207.719 228.01 206.75 228.344 205.625C228.677 204.479 228.844 203.229 228.844 201.875V201.656C228.844 200.302 228.677 199.062 228.344 197.938C228.01 196.792 227.521 195.812 226.875 195C226.229 194.167 225.427 193.521 224.469 193.062C223.531 192.604 222.448 192.375 221.219 192.375C219.99 192.375 218.896 192.604 217.938 193.062C217 193.521 216.208 194.167 215.562 195C214.917 195.812 214.427 196.792 214.094 197.938C213.76 199.062 213.594 200.302 213.594 201.656V201.875C213.594 203.229 213.76 204.479 214.094 205.625C214.427 206.75 214.917 207.719 215.562 208.531C216.208 209.344 217 209.979 217.938 210.438C218.896 210.896 219.99 211.125 221.219 211.125ZM271.844 218.5H263.219V215.625C262.74 216.083 262.219 216.531 261.656 216.969C261.094 217.385 260.469 217.76 259.781 218.094C259.094 218.406 258.323 218.656 257.469 218.844C256.635 219.031 255.708 219.125 254.688 219.125C252.875 219.125 251.25 218.833 249.812 218.25C248.375 217.646 247.156 216.833 246.156 215.812C245.177 214.771 244.427 213.552 243.906 212.156C243.385 210.76 243.125 209.25 243.125 207.625V185.031H251.75V204.469C251.75 205.656 251.875 206.667 252.125 207.5C252.396 208.333 252.76 209.01 253.219 209.531C253.698 210.031 254.26 210.406 254.906 210.656C255.552 210.885 256.25 211 257 211C257.875 211 258.688 210.844 259.438 210.531C260.208 210.219 260.875 209.75 261.438 209.125C262 208.479 262.438 207.677 262.75 206.719C263.062 205.76 263.219 204.635 263.219 203.344V185.031H271.844V218.5ZM298.125 193.406H297.219C295.99 193.406 294.812 193.531 293.688 193.781C292.583 194.031 291.604 194.49 290.75 195.156C289.896 195.802 289.208 196.698 288.688 197.844C288.188 198.99 287.938 200.458 287.938 202.25V218.5H279.312V185.031H287.938V188.812C288.292 188.25 288.75 187.708 289.312 187.188C289.875 186.667 290.531 186.208 291.281 185.812C292.031 185.396 292.875 185.062 293.812 184.812C294.75 184.562 295.76 184.438 296.844 184.438H298.125V193.406ZM316.062 207.812C317.292 208.917 318.76 209.865 320.469 210.656C322.177 211.448 323.906 211.844 325.656 211.844C326.927 211.844 327.927 211.604 328.656 211.125C329.385 210.625 329.75 209.99 329.75 209.219C329.75 207.906 328.344 206.885 325.531 206.156L323.094 205.5C321.885 205.208 320.667 204.812 319.438 204.312C318.208 203.792 317.073 203.115 316.031 202.281C315.01 201.448 314.177 200.438 313.531 199.25C312.906 198.042 312.594 196.562 312.594 194.812C312.594 193.417 312.896 192.094 313.5 190.844C314.125 189.573 315 188.458 316.125 187.5C317.271 186.542 318.656 185.781 320.281 185.219C321.906 184.656 323.719 184.375 325.719 184.375C328.573 184.375 331.115 184.823 333.344 185.719C335.594 186.615 337.365 187.625 338.656 188.75L334.156 194.5C333.094 193.729 331.833 193.073 330.375 192.531C328.938 191.969 327.49 191.688 326.031 191.688C324.677 191.688 323.625 191.938 322.875 192.438C322.125 192.917 321.75 193.5 321.75 194.188C321.75 194.917 322.073 195.51 322.719 195.969C323.385 196.406 324.344 196.792 325.594 197.125L329.219 198.156C332.677 199.135 335.156 200.458 336.656 202.125C338.156 203.792 338.906 205.896 338.906 208.438C338.906 209.854 338.615 211.208 338.031 212.5C337.448 213.771 336.594 214.906 335.469 215.906C334.344 216.906 332.948 217.698 331.281 218.281C329.615 218.844 327.719 219.125 325.594 219.125C323.969 219.125 322.438 218.979 321 218.688C319.583 218.396 318.26 218 317.031 217.5C315.823 216.979 314.729 216.396 313.75 215.75C312.771 215.104 311.938 214.458 311.25 213.812L316.062 207.812ZM351.719 204.75C351.865 205.75 352.177 206.667 352.656 207.5C353.156 208.333 353.781 209.052 354.531 209.656C355.281 210.24 356.146 210.698 357.125 211.031C358.104 211.365 359.146 211.531 360.25 211.531C361.521 211.531 362.896 211.292 364.375 210.812C365.854 210.312 367.208 209.594 368.438 208.656L372.594 214.719C371.031 216.031 369.115 217.094 366.844 217.906C364.573 218.719 362.156 219.125 359.594 219.125C357.281 219.125 355.104 218.729 353.062 217.938C351.021 217.146 349.229 216 347.688 214.5C346.167 213 344.958 211.177 344.062 209.031C343.188 206.885 342.75 204.469 342.75 201.781C342.75 199.323 343.135 197.031 343.906 194.906C344.698 192.781 345.792 190.938 347.188 189.375C348.604 187.812 350.292 186.594 352.25 185.719C354.208 184.823 356.375 184.375 358.75 184.375C360.958 184.375 363.01 184.781 364.906 185.594C366.802 186.385 368.448 187.51 369.844 188.969C371.24 190.406 372.333 192.135 373.125 194.156C373.917 196.177 374.312 198.406 374.312 200.844V204.75H351.719ZM358.719 191.875C356.865 191.875 355.292 192.5 354 193.75C352.729 194.979 351.99 196.469 351.781 198.219H365.281C365.24 196.448 364.594 194.948 363.344 193.719C362.094 192.49 360.552 191.875 358.719 191.875ZM398.625 193.406H397.719C396.49 193.406 395.312 193.531 394.188 193.781C393.083 194.031 392.104 194.49 391.25 195.156C390.396 195.802 389.708 196.698 389.188 197.844C388.688 198.99 388.438 200.458 388.438 202.25V218.5H379.812V185.031H388.438V188.812C388.792 188.25 389.25 187.708 389.812 187.188C390.375 186.667 391.031 186.208 391.781 185.812C392.531 185.396 393.375 185.062 394.312 184.812C395.25 184.562 396.26 184.438 397.344 184.438H398.625V193.406ZM411.094 218.5L400.844 185.031H410.469L416.469 208.062L422.625 185.031H432.094L421.906 218.5H411.094ZM445 218.5H436.375V185.031H445V218.5ZM435.469 176.25C435.469 175.542 435.604 174.875 435.875 174.25C436.146 173.604 436.51 173.052 436.969 172.594C437.448 172.115 438 171.74 438.625 171.469C439.25 171.198 439.927 171.062 440.656 171.062C441.365 171.062 442.031 171.198 442.656 171.469C443.302 171.74 443.854 172.115 444.312 172.594C444.792 173.052 445.167 173.604 445.438 174.25C445.708 174.875 445.844 175.542 445.844 176.25C445.844 176.979 445.708 177.656 445.438 178.281C445.167 178.906 444.792 179.458 444.312 179.938C443.854 180.396 443.302 180.76 442.656 181.031C442.031 181.302 441.365 181.438 440.656 181.438C439.927 181.438 439.25 181.302 438.625 181.031C438 180.76 437.448 180.396 436.969 179.938C436.51 179.458 436.146 178.906 435.875 178.281C435.604 177.656 435.469 176.979 435.469 176.25ZM459.594 201.938C459.594 203.021 459.74 204.115 460.031 205.219C460.323 206.302 460.771 207.281 461.375 208.156C461.979 209.031 462.75 209.75 463.688 210.312C464.646 210.854 465.781 211.125 467.094 211.125C467.948 211.125 468.719 211.01 469.406 210.781C470.115 210.552 470.74 210.24 471.281 209.844C471.844 209.427 472.333 208.948 472.75 208.406C473.188 207.844 473.562 207.24 473.875 206.594L481.438 210.5C480.896 211.812 480.146 213 479.188 214.062C478.25 215.125 477.156 216.031 475.906 216.781C474.656 217.531 473.271 218.104 471.75 218.5C470.229 218.917 468.615 219.125 466.906 219.125C464.552 219.125 462.385 218.688 460.406 217.812C458.427 216.917 456.719 215.698 455.281 214.156C453.844 212.615 452.719 210.792 451.906 208.688C451.094 206.562 450.688 204.26 450.688 201.781C450.688 199.323 451.094 197.031 451.906 194.906C452.719 192.781 453.844 190.938 455.281 189.375C456.719 187.812 458.427 186.594 460.406 185.719C462.385 184.823 464.552 184.375 466.906 184.375C468.615 184.375 470.229 184.583 471.75 185C473.271 185.396 474.656 185.979 475.906 186.75C477.156 187.5 478.25 188.406 479.188 189.469C480.146 190.531 480.896 191.719 481.438 193.031L473.875 196.938C473.562 196.292 473.188 195.698 472.75 195.156C472.333 194.594 471.844 194.115 471.281 193.719C470.74 193.302 470.115 192.979 469.406 192.75C468.719 192.5 467.948 192.375 467.094 192.375C465.781 192.375 464.646 192.656 463.688 193.219C462.75 193.76 461.979 194.479 461.375 195.375C460.771 196.25 460.323 197.24 460.031 198.344C459.74 199.448 459.594 200.552 459.594 201.656V201.938ZM493.969 204.75C494.115 205.75 494.427 206.667 494.906 207.5C495.406 208.333 496.031 209.052 496.781 209.656C497.531 210.24 498.396 210.698 499.375 211.031C500.354 211.365 501.396 211.531 502.5 211.531C503.771 211.531 505.146 211.292 506.625 210.812C508.104 210.312 509.458 209.594 510.688 208.656L514.844 214.719C513.281 216.031 511.365 217.094 509.094 217.906C506.823 218.719 504.406 219.125 501.844 219.125C499.531 219.125 497.354 218.729 495.312 217.938C493.271 217.146 491.479 216 489.938 214.5C488.417 213 487.208 211.177 486.312 209.031C485.438 206.885 485 204.469 485 201.781C485 199.323 485.385 197.031 486.156 194.906C486.948 192.781 488.042 190.938 489.438 189.375C490.854 187.812 492.542 186.594 494.5 185.719C496.458 184.823 498.625 184.375 501 184.375C503.208 184.375 505.26 184.781 507.156 185.594C509.052 186.385 510.698 187.51 512.094 188.969C513.49 190.406 514.583 192.135 515.375 194.156C516.167 196.177 516.562 198.406 516.562 200.844V204.75H493.969ZM500.969 191.875C499.115 191.875 497.542 192.5 496.25 193.75C494.979 194.979 494.24 196.469 494.031 198.219H507.531C507.49 196.448 506.844 194.948 505.594 193.719C504.344 192.49 502.802 191.875 500.969 191.875Z" fill="#0B0C0C"/>
<rect x="2.5" y="2.5" width="682" height="395" stroke="#0B0C0C" stroke-width="5"/>
<rect x="1127.5" y="2.5" width="726" height="395" fill="white"/>
<path d="M1234.91 151.719C1234.91 153.635 1235.15 155.479 1235.62 157.25C1236.1 159.021 1236.83 160.583 1237.81 161.938C1238.79 163.292 1240.04 164.385 1241.56 165.219C1243.08 166.031 1244.9 166.438 1247 166.438C1249.02 166.438 1250.7 166.115 1252.03 165.469C1253.39 164.823 1254.46 164.021 1255.25 163.062C1256.06 162.083 1256.62 161.031 1256.94 159.906C1257.27 158.781 1257.44 157.74 1257.44 156.781V156.344H1245.97V149.438H1266.25V174H1258.31V168.75C1257.75 169.625 1257.05 170.427 1256.22 171.156C1255.39 171.865 1254.45 172.479 1253.41 173C1252.36 173.5 1251.22 173.896 1249.97 174.188C1248.74 174.479 1247.43 174.625 1246.03 174.625C1242.76 174.625 1239.85 174.031 1237.31 172.844C1234.77 171.656 1232.62 170.021 1230.88 167.938C1229.15 165.854 1227.82 163.417 1226.91 160.625C1226.01 157.833 1225.56 154.823 1225.56 151.594C1225.56 148.385 1226.06 145.385 1227.06 142.594C1228.08 139.781 1229.52 137.344 1231.38 135.281C1233.25 133.198 1235.5 131.562 1238.12 130.375C1240.77 129.167 1243.73 128.562 1247 128.562C1249.12 128.562 1251.14 128.812 1253.03 129.312C1254.95 129.792 1256.69 130.49 1258.25 131.406C1259.83 132.302 1261.23 133.396 1262.44 134.688C1263.65 135.958 1264.62 137.375 1265.38 138.938L1257.44 143.406C1256.96 142.448 1256.4 141.562 1255.75 140.75C1255.1 139.917 1254.35 139.208 1253.5 138.625C1252.67 138.021 1251.71 137.552 1250.62 137.219C1249.54 136.865 1248.33 136.688 1247 136.688C1244.9 136.688 1243.08 137.104 1241.56 137.938C1240.04 138.75 1238.79 139.833 1237.81 141.188C1236.83 142.542 1236.1 144.115 1235.62 145.906C1235.15 147.677 1234.91 149.51 1234.91 151.406V151.719ZM1293.38 128.562C1296.71 128.562 1299.7 129.167 1302.34 130.375C1304.99 131.562 1307.23 133.198 1309.06 135.281C1310.92 137.344 1312.32 139.781 1313.28 142.594C1314.26 145.385 1314.75 148.385 1314.75 151.594C1314.75 154.823 1314.26 157.833 1313.28 160.625C1312.32 163.417 1310.92 165.854 1309.06 167.938C1307.23 170.021 1304.99 171.656 1302.34 172.844C1299.7 174.031 1296.71 174.625 1293.38 174.625C1290.02 174.625 1287.02 174.031 1284.38 172.844C1281.75 171.656 1279.51 170.021 1277.66 167.938C1275.82 165.854 1274.42 163.417 1273.44 160.625C1272.48 157.833 1272 154.823 1272 151.594C1272 148.385 1272.48 145.385 1273.44 142.594C1274.42 139.781 1275.82 137.344 1277.66 135.281C1279.51 133.198 1281.75 131.562 1284.38 130.375C1287.02 129.167 1290.02 128.562 1293.38 128.562ZM1293.38 166.438C1295.33 166.438 1297.05 166.073 1298.53 165.344C1300.03 164.594 1301.29 163.562 1302.31 162.25C1303.33 160.938 1304.1 159.385 1304.62 157.594C1305.15 155.802 1305.41 153.844 1305.41 151.719V151.469C1305.41 149.365 1305.15 147.417 1304.62 145.625C1304.1 143.812 1303.33 142.25 1302.31 140.938C1301.29 139.625 1300.03 138.604 1298.53 137.875C1297.05 137.125 1295.33 136.75 1293.38 136.75C1291.42 136.75 1289.69 137.125 1288.19 137.875C1286.69 138.604 1285.43 139.625 1284.41 140.938C1283.41 142.25 1282.65 143.812 1282.12 145.625C1281.6 147.417 1281.34 149.365 1281.34 151.469V151.719C1281.34 153.844 1281.6 155.802 1282.12 157.594C1282.65 159.385 1283.41 160.938 1284.41 162.25C1285.43 163.562 1286.69 164.594 1288.19 165.344C1289.69 166.073 1291.42 166.438 1293.38 166.438ZM1330.88 174L1318.22 129.188H1328.38L1337.03 162.875H1337.34L1345.81 129.188H1355.84L1343.19 174H1330.88ZM1357.12 168.938C1357.12 168.167 1357.27 167.448 1357.56 166.781C1357.88 166.094 1358.29 165.5 1358.81 165C1359.33 164.479 1359.94 164.073 1360.62 163.781C1361.33 163.469 1362.07 163.312 1362.84 163.312C1363.61 163.312 1364.34 163.469 1365.03 163.781C1365.72 164.073 1366.32 164.479 1366.84 165C1367.36 165.5 1367.77 166.094 1368.06 166.781C1368.38 167.448 1368.53 168.167 1368.53 168.938C1368.53 169.729 1368.38 170.469 1368.06 171.156C1367.77 171.844 1367.36 172.448 1366.84 172.969C1366.32 173.49 1365.72 173.896 1365.03 174.188C1364.34 174.479 1363.61 174.625 1362.84 174.625C1362.07 174.625 1361.33 174.479 1360.62 174.188C1359.94 173.896 1359.33 173.49 1358.81 172.969C1358.29 172.448 1357.88 171.844 1357.56 171.156C1357.27 170.469 1357.12 169.729 1357.12 168.938ZM1394.03 166.438C1395.34 166.438 1396.56 166.25 1397.69 165.875C1398.83 165.479 1399.81 164.896 1400.62 164.125C1401.46 163.333 1402.11 162.344 1402.59 161.156C1403.07 159.948 1403.31 158.531 1403.31 156.906V129.125H1412.25V158.25C1412.25 160.75 1411.79 163.01 1410.88 165.031C1409.98 167.052 1408.72 168.771 1407.09 170.188C1405.49 171.604 1403.57 172.698 1401.34 173.469C1399.11 174.24 1396.68 174.625 1394.03 174.625C1391.39 174.625 1388.95 174.24 1386.72 173.469C1384.49 172.698 1382.56 171.604 1380.94 170.188C1379.31 168.771 1378.04 167.052 1377.12 165.031C1376.23 163.01 1375.78 160.75 1375.78 158.25V129.125H1384.75V156.906C1384.75 158.531 1384.99 159.948 1385.47 161.156C1385.95 162.344 1386.59 163.333 1387.41 164.125C1388.24 164.896 1389.22 165.479 1390.34 165.875C1391.49 166.25 1392.72 166.438 1394.03 166.438ZM1421.12 129.188H1430.19V148.594L1446.19 129.188H1457.34L1441.78 147L1458.34 174H1447.81L1435.97 153.906L1430.19 160.375V174H1421.12V129.188ZM1493.56 128.562C1496.9 128.562 1499.89 129.167 1502.53 130.375C1505.18 131.562 1507.42 133.198 1509.25 135.281C1511.1 137.344 1512.51 139.781 1513.47 142.594C1514.45 145.385 1514.94 148.385 1514.94 151.594C1514.94 154.823 1514.45 157.833 1513.47 160.625C1512.51 163.417 1511.1 165.854 1509.25 167.938C1507.42 170.021 1505.18 171.656 1502.53 172.844C1499.89 174.031 1496.9 174.625 1493.56 174.625C1490.21 174.625 1487.21 174.031 1484.56 172.844C1481.94 171.656 1479.7 170.021 1477.84 167.938C1476.01 165.854 1474.6 163.417 1473.62 160.625C1472.67 157.833 1472.19 154.823 1472.19 151.594C1472.19 148.385 1472.67 145.385 1473.62 142.594C1474.6 139.781 1476.01 137.344 1477.84 135.281C1479.7 133.198 1481.94 131.562 1484.56 130.375C1487.21 129.167 1490.21 128.562 1493.56 128.562ZM1493.56 166.438C1495.52 166.438 1497.24 166.073 1498.72 165.344C1500.22 164.594 1501.48 163.562 1502.5 162.25C1503.52 160.938 1504.29 159.385 1504.81 157.594C1505.33 155.802 1505.59 153.844 1505.59 151.719V151.469C1505.59 149.365 1505.33 147.417 1504.81 145.625C1504.29 143.812 1503.52 142.25 1502.5 140.938C1501.48 139.625 1500.22 138.604 1498.72 137.875C1497.24 137.125 1495.52 136.75 1493.56 136.75C1491.6 136.75 1489.88 137.125 1488.38 137.875C1486.88 138.604 1485.61 139.625 1484.59 140.938C1483.59 142.25 1482.83 143.812 1482.31 145.625C1481.79 147.417 1481.53 149.365 1481.53 151.469V151.719C1481.53 153.844 1481.79 155.802 1482.31 157.594C1482.83 159.385 1483.59 160.938 1484.59 162.25C1485.61 163.562 1486.88 164.594 1488.38 165.344C1489.88 166.073 1491.6 166.438 1493.56 166.438ZM1521.03 140.531H1529.66V143.406C1530.11 142.948 1530.62 142.51 1531.19 142.094C1531.77 141.656 1532.41 141.281 1533.09 140.969C1533.78 140.635 1534.54 140.375 1535.38 140.188C1536.23 139.979 1537.17 139.875 1538.19 139.875C1540 139.875 1541.62 140.177 1543.06 140.781C1544.5 141.365 1545.71 142.177 1546.69 143.219C1547.69 144.26 1548.45 145.479 1548.97 146.875C1549.49 148.271 1549.75 149.781 1549.75 151.406V174H1541.12V154.531C1541.12 153.344 1540.99 152.344 1540.72 151.531C1540.45 150.698 1540.07 150.031 1539.59 149.531C1539.14 149.01 1538.58 148.635 1537.94 148.406C1537.31 148.156 1536.62 148.031 1535.88 148.031C1535 148.031 1534.18 148.188 1533.41 148.5C1532.66 148.812 1532 149.292 1531.44 149.938C1530.88 150.562 1530.44 151.354 1530.12 152.312C1529.81 153.271 1529.66 154.396 1529.66 155.688V174H1521.03V140.531ZM1564.19 160.25C1564.33 161.25 1564.65 162.167 1565.12 163C1565.62 163.833 1566.25 164.552 1567 165.156C1567.75 165.74 1568.61 166.198 1569.59 166.531C1570.57 166.865 1571.61 167.031 1572.72 167.031C1573.99 167.031 1575.36 166.792 1576.84 166.312C1578.32 165.812 1579.68 165.094 1580.91 164.156L1585.06 170.219C1583.5 171.531 1581.58 172.594 1579.31 173.406C1577.04 174.219 1574.62 174.625 1572.06 174.625C1569.75 174.625 1567.57 174.229 1565.53 173.438C1563.49 172.646 1561.7 171.5 1560.16 170C1558.64 168.5 1557.43 166.677 1556.53 164.531C1555.66 162.385 1555.22 159.969 1555.22 157.281C1555.22 154.823 1555.6 152.531 1556.38 150.406C1557.17 148.281 1558.26 146.438 1559.66 144.875C1561.07 143.312 1562.76 142.094 1564.72 141.219C1566.68 140.323 1568.84 139.875 1571.22 139.875C1573.43 139.875 1575.48 140.281 1577.38 141.094C1579.27 141.885 1580.92 143.01 1582.31 144.469C1583.71 145.906 1584.8 147.635 1585.59 149.656C1586.39 151.677 1586.78 153.906 1586.78 156.344V160.25H1564.19ZM1571.19 147.375C1569.33 147.375 1567.76 148 1566.47 149.25C1565.2 150.479 1564.46 151.969 1564.25 153.719H1577.75C1577.71 151.948 1577.06 150.448 1575.81 149.219C1574.56 147.99 1573.02 147.375 1571.19 147.375ZM1604.81 129.188H1613.88V165.625H1631.62V174H1604.81V129.188ZM1651 139.875C1653.48 139.875 1655.73 140.323 1657.75 141.219C1659.77 142.094 1661.5 143.312 1662.94 144.875C1664.38 146.438 1665.48 148.281 1666.25 150.406C1667.04 152.531 1667.44 154.823 1667.44 157.281C1667.44 159.76 1667.04 162.062 1666.25 164.188C1665.46 166.292 1664.34 168.115 1662.91 169.656C1661.47 171.198 1659.74 172.417 1657.72 173.312C1655.7 174.188 1653.46 174.625 1651 174.625C1648.52 174.625 1646.27 174.188 1644.25 173.312C1642.23 172.417 1640.5 171.198 1639.06 169.656C1637.62 168.115 1636.51 166.292 1635.72 164.188C1634.93 162.062 1634.53 159.76 1634.53 157.281C1634.53 154.823 1634.92 152.531 1635.69 150.406C1636.48 148.281 1637.59 146.438 1639.03 144.875C1640.47 143.312 1642.2 142.094 1644.22 141.219C1646.26 140.323 1648.52 139.875 1651 139.875ZM1651 166.625C1652.23 166.625 1653.31 166.396 1654.25 165.938C1655.21 165.479 1656.01 164.844 1656.66 164.031C1657.3 163.219 1657.79 162.25 1658.12 161.125C1658.46 159.979 1658.62 158.729 1658.62 157.375V157.156C1658.62 155.802 1658.46 154.562 1658.12 153.438C1657.79 152.292 1657.3 151.312 1656.66 150.5C1656.01 149.667 1655.21 149.021 1654.25 148.562C1653.31 148.104 1652.23 147.875 1651 147.875C1649.77 147.875 1648.68 148.104 1647.72 148.562C1646.78 149.021 1645.99 149.667 1645.34 150.5C1644.7 151.312 1644.21 152.292 1643.88 153.438C1643.54 154.562 1643.38 155.802 1643.38 157.156V157.375C1643.38 158.729 1643.54 159.979 1643.88 161.125C1644.21 162.25 1644.7 163.219 1645.34 164.031C1645.99 164.844 1646.78 165.479 1647.72 165.938C1648.68 166.396 1649.77 166.625 1651 166.625ZM1693.5 168.062C1692.73 169 1691.65 169.75 1690.25 170.312C1688.88 170.854 1687.38 171.125 1685.75 171.125C1683.5 171.125 1681.5 170.729 1679.75 169.938C1678 169.146 1676.52 168.062 1675.31 166.688C1674.12 165.292 1673.21 163.646 1672.56 161.75C1671.94 159.854 1671.62 157.771 1671.62 155.5C1671.62 153.292 1671.94 151.229 1672.56 149.312C1673.21 147.375 1674.12 145.719 1675.31 144.344C1676.52 142.948 1678 141.854 1679.75 141.062C1681.5 140.271 1683.5 139.875 1685.75 139.875C1687.38 139.875 1688.88 140.156 1690.25 140.719C1691.65 141.281 1692.73 142.031 1693.5 142.969V140.531H1702.16V173.688C1702.16 175.729 1701.77 177.479 1701 178.938C1700.23 180.417 1699.17 181.625 1697.81 182.562C1696.48 183.5 1694.93 184.177 1693.16 184.594C1691.39 185.031 1689.5 185.25 1687.5 185.25C1685.06 185.25 1682.52 184.958 1679.88 184.375C1677.23 183.812 1674.95 183.104 1673.03 182.25L1675.47 175.281C1676.05 175.531 1676.77 175.802 1677.62 176.094C1678.48 176.406 1679.4 176.677 1680.38 176.906C1681.35 177.135 1682.38 177.323 1683.44 177.469C1684.52 177.635 1685.57 177.719 1686.59 177.719C1687.49 177.719 1688.35 177.625 1689.19 177.438C1690.02 177.271 1690.75 176.979 1691.38 176.562C1692.02 176.167 1692.53 175.635 1692.91 174.969C1693.3 174.323 1693.5 173.49 1693.5 172.469V168.062ZM1680.5 155.625C1680.5 156.729 1680.61 157.771 1680.84 158.75C1681.09 159.708 1681.48 160.531 1682 161.219C1682.54 161.885 1683.23 162.417 1684.06 162.812C1684.9 163.188 1685.91 163.375 1687.09 163.375C1689.45 163.375 1691.12 162.635 1692.12 161.156C1693.12 159.656 1693.62 157.812 1693.62 155.625V155.375C1693.62 154.271 1693.51 153.24 1693.28 152.281C1693.05 151.323 1692.68 150.5 1692.16 149.812C1691.64 149.125 1690.96 148.594 1690.12 148.219C1689.31 147.823 1688.3 147.625 1687.09 147.625C1684.76 147.625 1683.07 148.365 1682.03 149.844C1681.01 151.323 1680.5 153.167 1680.5 155.375V155.625ZM1718.22 174H1709.59V140.531H1718.22V174ZM1708.69 131.75C1708.69 131.042 1708.82 130.375 1709.09 129.75C1709.36 129.104 1709.73 128.552 1710.19 128.094C1710.67 127.615 1711.22 127.24 1711.84 126.969C1712.47 126.698 1713.15 126.562 1713.88 126.562C1714.58 126.562 1715.25 126.698 1715.88 126.969C1716.52 127.24 1717.07 127.615 1717.53 128.094C1718.01 128.552 1718.39 129.104 1718.66 129.75C1718.93 130.375 1719.06 131.042 1719.06 131.75C1719.06 132.479 1718.93 133.156 1718.66 133.781C1718.39 134.406 1718.01 134.958 1717.53 135.438C1717.07 135.896 1716.52 136.26 1715.88 136.531C1715.25 136.802 1714.58 136.938 1713.88 136.938C1713.15 136.938 1712.47 136.802 1711.84 136.531C1711.22 136.26 1710.67 135.896 1710.19 135.438C1709.73 134.958 1709.36 134.406 1709.09 133.781C1708.82 133.156 1708.69 132.479 1708.69 131.75ZM1725.66 140.531H1734.28V143.406C1734.74 142.948 1735.25 142.51 1735.81 142.094C1736.4 141.656 1737.03 141.281 1737.72 140.969C1738.41 140.635 1739.17 140.375 1740 140.188C1740.85 139.979 1741.79 139.875 1742.81 139.875C1744.62 139.875 1746.25 140.177 1747.69 140.781C1749.12 141.365 1750.33 142.177 1751.31 143.219C1752.31 144.26 1753.07 145.479 1753.59 146.875C1754.11 148.271 1754.38 149.781 1754.38 151.406V174H1745.75V154.531C1745.75 153.344 1745.61 152.344 1745.34 151.531C1745.07 150.698 1744.7 150.031 1744.22 149.531C1743.76 149.01 1743.21 148.635 1742.56 148.406C1741.94 148.156 1741.25 148.031 1740.5 148.031C1739.62 148.031 1738.8 148.188 1738.03 148.5C1737.28 148.812 1736.62 149.292 1736.06 149.938C1735.5 150.562 1735.06 151.354 1734.75 152.312C1734.44 153.271 1734.28 154.396 1734.28 155.688V174H1725.66V140.531ZM1240.78 246.031C1240.78 248.76 1241.12 251.344 1241.81 253.781C1242.52 256.198 1243.48 258.458 1244.69 260.562C1245.9 262.667 1247.31 264.625 1248.94 266.438C1250.58 268.25 1252.33 269.917 1254.19 271.438L1248.78 276.812L1246.38 274.906C1244 272.969 1241.88 270.906 1240 268.719C1238.12 266.552 1236.53 264.26 1235.22 261.844C1233.93 259.427 1232.94 256.885 1232.25 254.219C1231.58 251.552 1231.25 248.76 1231.25 245.844C1231.25 242.906 1231.58 240.115 1232.25 237.469C1232.94 234.802 1233.93 232.271 1235.22 229.875C1236.53 227.458 1238.12 225.167 1240 223C1241.88 220.833 1244 218.781 1246.38 216.844L1248.78 214.875L1254.19 220.312C1252.33 221.812 1250.58 223.469 1248.94 225.281C1247.31 227.073 1245.9 229.031 1244.69 231.156C1243.48 233.26 1242.52 235.521 1241.81 237.938C1241.12 240.354 1240.78 242.927 1240.78 245.656V246.031ZM1276.47 217.562C1279.8 217.562 1282.79 218.167 1285.44 219.375C1288.08 220.562 1290.32 222.198 1292.16 224.281C1294.01 226.344 1295.42 228.781 1296.38 231.594C1297.35 234.385 1297.84 237.385 1297.84 240.594C1297.84 243.823 1297.35 246.833 1296.38 249.625C1295.42 252.417 1294.01 254.854 1292.16 256.938C1290.32 259.021 1288.08 260.656 1285.44 261.844C1282.79 263.031 1279.8 263.625 1276.47 263.625C1273.11 263.625 1270.11 263.031 1267.47 261.844C1264.84 260.656 1262.6 259.021 1260.75 256.938C1258.92 254.854 1257.51 252.417 1256.53 249.625C1255.57 246.833 1255.09 243.823 1255.09 240.594C1255.09 237.385 1255.57 234.385 1256.53 231.594C1257.51 228.781 1258.92 226.344 1260.75 224.281C1262.6 222.198 1264.84 220.562 1267.47 219.375C1270.11 218.167 1273.11 217.562 1276.47 217.562ZM1276.47 255.438C1278.43 255.438 1280.15 255.073 1281.62 254.344C1283.12 253.594 1284.39 252.562 1285.41 251.25C1286.43 249.938 1287.2 248.385 1287.72 246.594C1288.24 244.802 1288.5 242.844 1288.5 240.719V240.469C1288.5 238.365 1288.24 236.417 1287.72 234.625C1287.2 232.812 1286.43 231.25 1285.41 229.938C1284.39 228.625 1283.12 227.604 1281.62 226.875C1280.15 226.125 1278.43 225.75 1276.47 225.75C1274.51 225.75 1272.78 226.125 1271.28 226.875C1269.78 227.604 1268.52 228.625 1267.5 229.938C1266.5 231.25 1265.74 232.812 1265.22 234.625C1264.7 236.417 1264.44 238.365 1264.44 240.469V240.719C1264.44 242.844 1264.7 244.802 1265.22 246.594C1265.74 248.385 1266.5 249.938 1267.5 251.25C1268.52 252.562 1269.78 253.594 1271.28 254.344C1272.78 255.073 1274.51 255.438 1276.47 255.438ZM1312.56 273.562H1303.94V229.531H1312.56V232.406C1313.5 231.427 1314.66 230.594 1316.03 229.906C1317.41 229.219 1319.07 228.875 1321.03 228.875C1323.24 228.875 1325.24 229.323 1327.03 230.219C1328.84 231.094 1330.4 232.312 1331.69 233.875C1332.98 235.417 1333.98 237.25 1334.69 239.375C1335.4 241.5 1335.75 243.802 1335.75 246.281C1335.75 248.76 1335.39 251.062 1334.66 253.188C1333.93 255.312 1332.91 257.146 1331.59 258.688C1330.28 260.229 1328.71 261.438 1326.88 262.312C1325.04 263.188 1323.02 263.625 1320.81 263.625C1319.83 263.625 1318.94 263.531 1318.12 263.344C1317.33 263.177 1316.6 262.938 1315.94 262.625C1315.27 262.312 1314.66 261.948 1314.09 261.531C1313.53 261.094 1313.02 260.625 1312.56 260.125V273.562ZM1312.31 249.375C1312.31 250.271 1312.47 251.104 1312.78 251.875C1313.11 252.625 1313.58 253.281 1314.19 253.844C1314.79 254.406 1315.51 254.844 1316.34 255.156C1317.2 255.469 1318.16 255.625 1319.22 255.625C1320.45 255.625 1321.53 255.406 1322.47 254.969C1323.43 254.51 1324.23 253.875 1324.88 253.062C1325.52 252.25 1326.01 251.292 1326.34 250.188C1326.68 249.062 1326.84 247.833 1326.84 246.5V246.094C1326.84 244.76 1326.68 243.531 1326.34 242.406C1326.01 241.281 1325.52 240.312 1324.88 239.5C1324.23 238.667 1323.43 238.021 1322.47 237.562C1321.53 237.104 1320.45 236.875 1319.22 236.875C1318.16 236.875 1317.2 237.031 1316.34 237.344C1315.51 237.656 1314.79 238.094 1314.19 238.656C1313.58 239.219 1313.11 239.885 1312.78 240.656C1312.47 241.427 1312.31 242.26 1312.31 243.156V249.375ZM1348.72 249.25C1348.86 250.25 1349.18 251.167 1349.66 252C1350.16 252.833 1350.78 253.552 1351.53 254.156C1352.28 254.74 1353.15 255.198 1354.12 255.531C1355.1 255.865 1356.15 256.031 1357.25 256.031C1358.52 256.031 1359.9 255.792 1361.38 255.312C1362.85 254.812 1364.21 254.094 1365.44 253.156L1369.59 259.219C1368.03 260.531 1366.11 261.594 1363.84 262.406C1361.57 263.219 1359.16 263.625 1356.59 263.625C1354.28 263.625 1352.1 263.229 1350.06 262.438C1348.02 261.646 1346.23 260.5 1344.69 259C1343.17 257.5 1341.96 255.677 1341.06 253.531C1340.19 251.385 1339.75 248.969 1339.75 246.281C1339.75 243.823 1340.14 241.531 1340.91 239.406C1341.7 237.281 1342.79 235.438 1344.19 233.875C1345.6 232.312 1347.29 231.094 1349.25 230.219C1351.21 229.323 1353.38 228.875 1355.75 228.875C1357.96 228.875 1360.01 229.281 1361.91 230.094C1363.8 230.885 1365.45 232.01 1366.84 233.469C1368.24 234.906 1369.33 236.635 1370.12 238.656C1370.92 240.677 1371.31 242.906 1371.31 245.344V249.25H1348.72ZM1355.72 236.375C1353.86 236.375 1352.29 237 1351 238.25C1349.73 239.479 1348.99 240.969 1348.78 242.719H1362.28C1362.24 240.948 1361.59 239.448 1360.34 238.219C1359.09 236.99 1357.55 236.375 1355.72 236.375ZM1376.81 229.531H1385.44V232.406C1385.9 231.948 1386.41 231.51 1386.97 231.094C1387.55 230.656 1388.19 230.281 1388.88 229.969C1389.56 229.635 1390.32 229.375 1391.16 229.188C1392.01 228.979 1392.95 228.875 1393.97 228.875C1395.78 228.875 1397.41 229.177 1398.84 229.781C1400.28 230.365 1401.49 231.177 1402.47 232.219C1403.47 233.26 1404.23 234.479 1404.75 235.875C1405.27 237.271 1405.53 238.781 1405.53 240.406V263H1396.91V243.531C1396.91 242.344 1396.77 241.344 1396.5 240.531C1396.23 239.698 1395.85 239.031 1395.38 238.531C1394.92 238.01 1394.36 237.635 1393.72 237.406C1393.09 237.156 1392.41 237.031 1391.66 237.031C1390.78 237.031 1389.96 237.188 1389.19 237.5C1388.44 237.812 1387.78 238.292 1387.22 238.938C1386.66 239.562 1386.22 240.354 1385.91 241.312C1385.59 242.271 1385.44 243.396 1385.44 244.688V263H1376.81V229.531ZM1413.72 218.188H1422.78V263H1413.72V218.188ZM1470.34 240.594C1470.34 243.948 1469.89 247.01 1468.97 249.781C1468.07 252.531 1466.72 254.885 1464.91 256.844C1463.11 258.802 1460.86 260.323 1458.16 261.406C1455.45 262.469 1452.28 263 1448.66 263H1432.16V218.188H1448.66C1452.28 218.188 1455.45 218.729 1458.16 219.812C1460.86 220.875 1463.11 222.385 1464.91 224.344C1466.72 226.302 1468.07 228.667 1468.97 231.438C1469.89 234.188 1470.34 237.24 1470.34 240.594ZM1460.94 239.719C1460.94 237.823 1460.7 236.062 1460.22 234.438C1459.76 232.792 1459.01 231.365 1457.97 230.156C1456.95 228.948 1455.61 228 1453.97 227.312C1452.32 226.604 1450.33 226.25 1448 226.25H1441.22V254.938H1448C1450.31 254.938 1452.29 254.594 1453.94 253.906C1455.58 253.198 1456.92 252.24 1457.94 251.031C1458.98 249.802 1459.74 248.365 1460.22 246.719C1460.7 245.073 1460.94 243.312 1460.94 241.438V239.719ZM1496.88 273.562H1488.25V229.531H1496.88V232.406C1497.81 231.427 1498.97 230.594 1500.34 229.906C1501.72 229.219 1503.39 228.875 1505.34 228.875C1507.55 228.875 1509.55 229.323 1511.34 230.219C1513.16 231.094 1514.71 232.312 1516 233.875C1517.29 235.417 1518.29 237.25 1519 239.375C1519.71 241.5 1520.06 243.802 1520.06 246.281C1520.06 248.76 1519.7 251.062 1518.97 253.188C1518.24 255.312 1517.22 257.146 1515.91 258.688C1514.59 260.229 1513.02 261.438 1511.19 262.312C1509.35 263.188 1507.33 263.625 1505.12 263.625C1504.15 263.625 1503.25 263.531 1502.44 263.344C1501.65 263.177 1500.92 262.938 1500.25 262.625C1499.58 262.312 1498.97 261.948 1498.41 261.531C1497.84 261.094 1497.33 260.625 1496.88 260.125V273.562ZM1496.62 249.375C1496.62 250.271 1496.78 251.104 1497.09 251.875C1497.43 252.625 1497.9 253.281 1498.5 253.844C1499.1 254.406 1499.82 254.844 1500.66 255.156C1501.51 255.469 1502.47 255.625 1503.53 255.625C1504.76 255.625 1505.84 255.406 1506.78 254.969C1507.74 254.51 1508.54 253.875 1509.19 253.062C1509.83 252.25 1510.32 251.292 1510.66 250.188C1510.99 249.062 1511.16 247.833 1511.16 246.5V246.094C1511.16 244.76 1510.99 243.531 1510.66 242.406C1510.32 241.281 1509.83 240.312 1509.19 239.5C1508.54 238.667 1507.74 238.021 1506.78 237.562C1505.84 237.104 1504.76 236.875 1503.53 236.875C1502.47 236.875 1501.51 237.031 1500.66 237.344C1499.82 237.656 1499.1 238.094 1498.5 238.656C1497.9 239.219 1497.43 239.885 1497.09 240.656C1496.78 241.427 1496.62 242.26 1496.62 243.156V249.375ZM1544.62 237.906H1543.72C1542.49 237.906 1541.31 238.031 1540.19 238.281C1539.08 238.531 1538.1 238.99 1537.25 239.656C1536.4 240.302 1535.71 241.198 1535.19 242.344C1534.69 243.49 1534.44 244.958 1534.44 246.75V263H1525.81V229.531H1534.44V233.312C1534.79 232.75 1535.25 232.208 1535.81 231.688C1536.38 231.167 1537.03 230.708 1537.78 230.312C1538.53 229.896 1539.38 229.562 1540.31 229.312C1541.25 229.062 1542.26 228.938 1543.34 228.938H1544.62V237.906ZM1564.72 228.875C1567.2 228.875 1569.45 229.323 1571.47 230.219C1573.49 231.094 1575.22 232.312 1576.66 233.875C1578.09 235.438 1579.2 237.281 1579.97 239.406C1580.76 241.531 1581.16 243.823 1581.16 246.281C1581.16 248.76 1580.76 251.062 1579.97 253.188C1579.18 255.292 1578.06 257.115 1576.62 258.656C1575.19 260.198 1573.46 261.417 1571.44 262.312C1569.42 263.188 1567.18 263.625 1564.72 263.625C1562.24 263.625 1559.99 263.188 1557.97 262.312C1555.95 261.417 1554.22 260.198 1552.78 258.656C1551.34 257.115 1550.23 255.292 1549.44 253.188C1548.65 251.062 1548.25 248.76 1548.25 246.281C1548.25 243.823 1548.64 241.531 1549.41 239.406C1550.2 237.281 1551.31 235.438 1552.75 233.875C1554.19 232.312 1555.92 231.094 1557.94 230.219C1559.98 229.323 1562.24 228.875 1564.72 228.875ZM1564.72 255.625C1565.95 255.625 1567.03 255.396 1567.97 254.938C1568.93 254.479 1569.73 253.844 1570.38 253.031C1571.02 252.219 1571.51 251.25 1571.84 250.125C1572.18 248.979 1572.34 247.729 1572.34 246.375V246.156C1572.34 244.802 1572.18 243.562 1571.84 242.438C1571.51 241.292 1571.02 240.312 1570.38 239.5C1569.73 238.667 1568.93 238.021 1567.97 237.562C1567.03 237.104 1565.95 236.875 1564.72 236.875C1563.49 236.875 1562.4 237.104 1561.44 237.562C1560.5 238.021 1559.71 238.667 1559.06 239.5C1558.42 240.312 1557.93 241.292 1557.59 242.438C1557.26 243.562 1557.09 244.802 1557.09 246.156V246.375C1557.09 247.729 1557.26 248.979 1557.59 250.125C1557.93 251.25 1558.42 252.219 1559.06 253.031C1559.71 253.844 1560.5 254.479 1561.44 254.938C1562.4 255.396 1563.49 255.625 1564.72 255.625ZM1593.97 263L1583.72 229.531H1593.34L1599.34 252.562L1605.5 229.531H1614.97L1604.78 263H1593.97ZM1627.88 263H1619.25V229.531H1627.88V263ZM1618.34 220.75C1618.34 220.042 1618.48 219.375 1618.75 218.75C1619.02 218.104 1619.39 217.552 1619.84 217.094C1620.32 216.615 1620.88 216.24 1621.5 215.969C1622.12 215.698 1622.8 215.562 1623.53 215.562C1624.24 215.562 1624.91 215.698 1625.53 215.969C1626.18 216.24 1626.73 216.615 1627.19 217.094C1627.67 217.552 1628.04 218.104 1628.31 218.75C1628.58 219.375 1628.72 220.042 1628.72 220.75C1628.72 221.479 1628.58 222.156 1628.31 222.781C1628.04 223.406 1627.67 223.958 1627.19 224.438C1626.73 224.896 1626.18 225.26 1625.53 225.531C1624.91 225.802 1624.24 225.938 1623.53 225.938C1622.8 225.938 1622.12 225.802 1621.5 225.531C1620.88 225.26 1620.32 224.896 1619.84 224.438C1619.39 223.958 1619.02 223.406 1618.75 222.781C1618.48 222.156 1618.34 221.479 1618.34 220.75ZM1656.81 263V260.125C1656.35 260.625 1655.84 261.094 1655.28 261.531C1654.74 261.948 1654.12 262.312 1653.44 262.625C1652.77 262.938 1652.03 263.177 1651.22 263.344C1650.43 263.531 1649.54 263.625 1648.56 263.625C1646.35 263.625 1644.33 263.188 1642.5 262.312C1640.67 261.438 1639.09 260.229 1637.78 258.688C1636.47 257.146 1635.45 255.312 1634.72 253.188C1634.01 251.062 1633.66 248.76 1633.66 246.281C1633.66 243.802 1634.01 241.5 1634.72 239.375C1635.43 237.25 1636.42 235.417 1637.69 233.875C1638.98 232.312 1640.53 231.094 1642.34 230.219C1644.16 229.323 1646.17 228.875 1648.38 228.875C1650.33 228.875 1651.99 229.219 1653.34 229.906C1654.72 230.573 1655.88 231.406 1656.81 232.406V218.188H1665.44V263H1656.81ZM1657.06 243.156C1657.06 242.26 1656.9 241.427 1656.56 240.656C1656.25 239.885 1655.79 239.219 1655.19 238.656C1654.58 238.094 1653.85 237.656 1653 237.344C1652.17 237.031 1651.22 236.875 1650.16 236.875C1648.93 236.875 1647.83 237.104 1646.88 237.562C1645.94 238.021 1645.15 238.667 1644.5 239.5C1643.85 240.312 1643.36 241.281 1643.03 242.406C1642.7 243.531 1642.53 244.76 1642.53 246.094V246.5C1642.53 247.833 1642.7 249.062 1643.03 250.188C1643.36 251.292 1643.85 252.25 1644.5 253.062C1645.15 253.875 1645.94 254.51 1646.88 254.969C1647.83 255.406 1648.93 255.625 1650.16 255.625C1651.22 255.625 1652.17 255.469 1653 255.156C1653.85 254.844 1654.58 254.406 1655.19 253.844C1655.79 253.281 1656.25 252.625 1656.56 251.875C1656.9 251.104 1657.06 250.271 1657.06 249.375V243.156ZM1680.09 249.25C1680.24 250.25 1680.55 251.167 1681.03 252C1681.53 252.833 1682.16 253.552 1682.91 254.156C1683.66 254.74 1684.52 255.198 1685.5 255.531C1686.48 255.865 1687.52 256.031 1688.62 256.031C1689.9 256.031 1691.27 255.792 1692.75 255.312C1694.23 254.812 1695.58 254.094 1696.81 253.156L1700.97 259.219C1699.41 260.531 1697.49 261.594 1695.22 262.406C1692.95 263.219 1690.53 263.625 1687.97 263.625C1685.66 263.625 1683.48 263.229 1681.44 262.438C1679.4 261.646 1677.6 260.5 1676.06 259C1674.54 257.5 1673.33 255.677 1672.44 253.531C1671.56 251.385 1671.12 248.969 1671.12 246.281C1671.12 243.823 1671.51 241.531 1672.28 239.406C1673.07 237.281 1674.17 235.438 1675.56 233.875C1676.98 232.312 1678.67 231.094 1680.62 230.219C1682.58 229.323 1684.75 228.875 1687.12 228.875C1689.33 228.875 1691.39 229.281 1693.28 230.094C1695.18 230.885 1696.82 232.01 1698.22 233.469C1699.61 234.906 1700.71 236.635 1701.5 238.656C1702.29 240.677 1702.69 242.906 1702.69 245.344V249.25H1680.09ZM1687.09 236.375C1685.24 236.375 1683.67 237 1682.38 238.25C1681.1 239.479 1680.36 240.969 1680.16 242.719H1693.66C1693.61 240.948 1692.97 239.448 1691.72 238.219C1690.47 236.99 1688.93 236.375 1687.09 236.375ZM1727 237.906H1726.09C1724.86 237.906 1723.69 238.031 1722.56 238.281C1721.46 238.531 1720.48 238.99 1719.62 239.656C1718.77 240.302 1718.08 241.198 1717.56 242.344C1717.06 243.49 1716.81 244.958 1716.81 246.75V263H1708.19V229.531H1716.81V233.312C1717.17 232.75 1717.62 232.208 1718.19 231.688C1718.75 231.167 1719.41 230.708 1720.16 230.312C1720.91 229.896 1721.75 229.562 1722.69 229.312C1723.62 229.062 1724.64 228.938 1725.72 228.938H1727V237.906ZM1740.19 245.656C1740.19 242.927 1739.83 240.354 1739.12 237.938C1738.44 235.521 1737.49 233.26 1736.28 231.156C1735.07 229.031 1733.65 227.073 1732 225.281C1730.38 223.469 1728.64 221.812 1726.78 220.312L1732.19 214.875L1734.59 216.844C1736.97 218.781 1739.09 220.833 1740.97 223C1742.84 225.167 1744.43 227.458 1745.72 229.875C1747.03 232.271 1748.02 234.802 1748.69 237.469C1749.38 240.115 1749.72 242.906 1749.72 245.844C1749.72 248.76 1749.38 251.552 1748.69 254.219C1748.02 256.885 1747.03 259.427 1745.72 261.844C1744.43 264.26 1742.84 266.552 1740.97 268.719C1739.09 270.906 1736.97 272.969 1734.59 274.906L1732.19 276.812L1726.78 271.438C1728.64 269.917 1730.38 268.25 1732 266.438C1733.65 264.625 1735.07 262.667 1736.28 260.562C1737.49 258.458 1738.44 256.198 1739.12 253.781C1739.83 251.344 1740.19 248.76 1740.19 246.031V245.656Z" fill="#0B0C0C"/>
<rect x="1127.5" y="2.5" width="726" height="395" stroke="#0B0C0C" stroke-width="5"/>
<rect x="2296.5" y="2.5" width="753" height="395" fill="white"/>
<path d="M2375.94 129.188H2385V174H2375.94V129.188ZM2414.91 174V171.125C2414.45 171.625 2413.94 172.094 2413.38 172.531C2412.83 172.948 2412.22 173.312 2411.53 173.625C2410.86 173.938 2410.12 174.177 2409.31 174.344C2408.52 174.531 2407.64 174.625 2406.66 174.625C2404.45 174.625 2402.43 174.188 2400.59 173.312C2398.76 172.438 2397.19 171.229 2395.88 169.688C2394.56 168.146 2393.54 166.312 2392.81 164.188C2392.1 162.062 2391.75 159.76 2391.75 157.281C2391.75 154.802 2392.1 152.5 2392.81 150.375C2393.52 148.25 2394.51 146.417 2395.78 144.875C2397.07 143.312 2398.62 142.094 2400.44 141.219C2402.25 140.323 2404.26 139.875 2406.47 139.875C2408.43 139.875 2410.08 140.219 2411.44 140.906C2412.81 141.573 2413.97 142.406 2414.91 143.406V129.188H2423.53V174H2414.91ZM2415.16 154.156C2415.16 153.26 2414.99 152.427 2414.66 151.656C2414.34 150.885 2413.89 150.219 2413.28 149.656C2412.68 149.094 2411.95 148.656 2411.09 148.344C2410.26 148.031 2409.31 147.875 2408.25 147.875C2407.02 147.875 2405.93 148.104 2404.97 148.562C2404.03 149.021 2403.24 149.667 2402.59 150.5C2401.95 151.312 2401.46 152.281 2401.12 153.406C2400.79 154.531 2400.62 155.76 2400.62 157.094V157.5C2400.62 158.833 2400.79 160.062 2401.12 161.188C2401.46 162.292 2401.95 163.25 2402.59 164.062C2403.24 164.875 2404.03 165.51 2404.97 165.969C2405.93 166.406 2407.02 166.625 2408.25 166.625C2409.31 166.625 2410.26 166.469 2411.09 166.156C2411.95 165.844 2412.68 165.406 2413.28 164.844C2413.89 164.281 2414.34 163.625 2414.66 162.875C2414.99 162.104 2415.16 161.271 2415.16 160.375V154.156ZM2438.19 160.25C2438.33 161.25 2438.65 162.167 2439.12 163C2439.62 163.833 2440.25 164.552 2441 165.156C2441.75 165.74 2442.61 166.198 2443.59 166.531C2444.57 166.865 2445.61 167.031 2446.72 167.031C2447.99 167.031 2449.36 166.792 2450.84 166.312C2452.32 165.812 2453.68 165.094 2454.91 164.156L2459.06 170.219C2457.5 171.531 2455.58 172.594 2453.31 173.406C2451.04 174.219 2448.62 174.625 2446.06 174.625C2443.75 174.625 2441.57 174.229 2439.53 173.438C2437.49 172.646 2435.7 171.5 2434.16 170C2432.64 168.5 2431.43 166.677 2430.53 164.531C2429.66 162.385 2429.22 159.969 2429.22 157.281C2429.22 154.823 2429.6 152.531 2430.38 150.406C2431.17 148.281 2432.26 146.438 2433.66 144.875C2435.07 143.312 2436.76 142.094 2438.72 141.219C2440.68 140.323 2442.84 139.875 2445.22 139.875C2447.43 139.875 2449.48 140.281 2451.38 141.094C2453.27 141.885 2454.92 143.01 2456.31 144.469C2457.71 145.906 2458.8 147.635 2459.59 149.656C2460.39 151.677 2460.78 153.906 2460.78 156.344V160.25H2438.19ZM2445.19 147.375C2443.33 147.375 2441.76 148 2440.47 149.25C2439.2 150.479 2438.46 151.969 2438.25 153.719H2451.75C2451.71 151.948 2451.06 150.448 2449.81 149.219C2448.56 147.99 2447.02 147.375 2445.19 147.375ZM2466.28 140.531H2474.91V143.406C2475.36 142.948 2475.88 142.51 2476.44 142.094C2477.02 141.656 2477.66 141.281 2478.34 140.969C2479.03 140.635 2479.79 140.375 2480.62 140.188C2481.48 139.979 2482.42 139.875 2483.44 139.875C2485.25 139.875 2486.88 140.177 2488.31 140.781C2489.75 141.365 2490.96 142.177 2491.94 143.219C2492.94 144.26 2493.7 145.479 2494.22 146.875C2494.74 148.271 2495 149.781 2495 151.406V174H2486.38V154.531C2486.38 153.344 2486.24 152.344 2485.97 151.531C2485.7 150.698 2485.32 150.031 2484.84 149.531C2484.39 149.01 2483.83 148.635 2483.19 148.406C2482.56 148.156 2481.88 148.031 2481.12 148.031C2480.25 148.031 2479.43 148.188 2478.66 148.5C2477.91 148.812 2477.25 149.292 2476.69 149.938C2476.12 150.562 2475.69 151.354 2475.38 152.312C2475.06 153.271 2474.91 154.396 2474.91 155.688V174H2466.28V140.531ZM2514.56 164.031C2514.56 164.427 2514.61 164.802 2514.72 165.156C2514.82 165.51 2515 165.823 2515.25 166.094C2515.52 166.344 2515.9 166.542 2516.38 166.688C2516.85 166.833 2517.47 166.906 2518.22 166.906C2518.53 166.906 2518.89 166.896 2519.28 166.875C2519.68 166.833 2520.07 166.792 2520.47 166.75C2520.86 166.708 2521.23 166.656 2521.56 166.594C2521.92 166.531 2522.21 166.479 2522.44 166.438L2523.22 174.062C2522.41 174.167 2521.56 174.26 2520.69 174.344C2519.94 174.427 2519.1 174.49 2518.19 174.531C2517.27 174.594 2516.34 174.625 2515.41 174.625C2512.43 174.625 2510.1 173.948 2508.44 172.594C2506.77 171.24 2505.94 169.083 2505.94 166.125V148.031H2499.91V140.531H2505.94V131.062L2514.56 128.75V140.531H2523.34V148.031H2514.56V164.031ZM2537.41 174H2528.78V140.531H2537.41V174ZM2527.88 131.75C2527.88 131.042 2528.01 130.375 2528.28 129.75C2528.55 129.104 2528.92 128.552 2529.38 128.094C2529.85 127.615 2530.41 127.24 2531.03 126.969C2531.66 126.698 2532.33 126.562 2533.06 126.562C2533.77 126.562 2534.44 126.698 2535.06 126.969C2535.71 127.24 2536.26 127.615 2536.72 128.094C2537.2 128.552 2537.57 129.104 2537.84 129.75C2538.11 130.375 2538.25 131.042 2538.25 131.75C2538.25 132.479 2538.11 133.156 2537.84 133.781C2537.57 134.406 2537.2 134.958 2536.72 135.438C2536.26 135.896 2535.71 136.26 2535.06 136.531C2534.44 136.802 2533.77 136.938 2533.06 136.938C2532.33 136.938 2531.66 136.802 2531.03 136.531C2530.41 136.26 2529.85 135.896 2529.38 135.438C2528.92 134.958 2528.55 134.406 2528.28 133.781C2528.01 133.156 2527.88 132.479 2527.88 131.75ZM2557.19 164.031C2557.19 164.427 2557.24 164.802 2557.34 165.156C2557.45 165.51 2557.62 165.823 2557.88 166.094C2558.15 166.344 2558.52 166.542 2559 166.688C2559.48 166.833 2560.09 166.906 2560.84 166.906C2561.16 166.906 2561.51 166.896 2561.91 166.875C2562.3 166.833 2562.7 166.792 2563.09 166.75C2563.49 166.708 2563.85 166.656 2564.19 166.594C2564.54 166.531 2564.83 166.479 2565.06 166.438L2565.84 174.062C2565.03 174.167 2564.19 174.26 2563.31 174.344C2562.56 174.427 2561.73 174.49 2560.81 174.531C2559.9 174.594 2558.97 174.625 2558.03 174.625C2555.05 174.625 2552.73 173.948 2551.06 172.594C2549.4 171.24 2548.56 169.083 2548.56 166.125V148.031H2542.53V140.531H2548.56V131.062L2557.19 128.75V140.531H2565.97V148.031H2557.19V164.031ZM2576 177.906C2576.98 177.906 2577.7 177.729 2578.16 177.375C2578.64 177.021 2579.01 176.448 2579.28 175.656L2579.59 174.625L2568 140.531H2577.59L2584.25 163.625L2589.78 140.531H2599.25L2587.97 178.156C2587.59 179.406 2587.07 180.479 2586.41 181.375C2585.74 182.271 2584.95 183 2584.03 183.562C2583.11 184.146 2582.09 184.573 2580.97 184.844C2579.86 185.115 2578.68 185.25 2577.41 185.25C2576.89 185.25 2576.28 185.229 2575.59 185.188C2574.93 185.146 2574.23 185.083 2573.5 185C2572.79 184.938 2572.08 184.854 2571.38 184.75C2570.69 184.646 2570.05 184.521 2569.47 184.375L2571.09 177.312C2571.59 177.438 2572.11 177.542 2572.66 177.625C2573.14 177.708 2573.66 177.771 2574.22 177.812C2574.8 177.875 2575.4 177.906 2576 177.906ZM2622.09 184.562H2613.47V140.531H2622.09V143.406C2623.03 142.427 2624.19 141.594 2625.56 140.906C2626.94 140.219 2628.6 139.875 2630.56 139.875C2632.77 139.875 2634.77 140.323 2636.56 141.219C2638.38 142.094 2639.93 143.312 2641.22 144.875C2642.51 146.417 2643.51 148.25 2644.22 150.375C2644.93 152.5 2645.28 154.802 2645.28 157.281C2645.28 159.76 2644.92 162.062 2644.19 164.188C2643.46 166.312 2642.44 168.146 2641.12 169.688C2639.81 171.229 2638.24 172.438 2636.41 173.312C2634.57 174.188 2632.55 174.625 2630.34 174.625C2629.36 174.625 2628.47 174.531 2627.66 174.344C2626.86 174.177 2626.14 173.938 2625.47 173.625C2624.8 173.312 2624.19 172.948 2623.62 172.531C2623.06 172.094 2622.55 171.625 2622.09 171.125V184.562ZM2621.84 160.375C2621.84 161.271 2622 162.104 2622.31 162.875C2622.65 163.625 2623.11 164.281 2623.72 164.844C2624.32 165.406 2625.04 165.844 2625.88 166.156C2626.73 166.469 2627.69 166.625 2628.75 166.625C2629.98 166.625 2631.06 166.406 2632 165.969C2632.96 165.51 2633.76 164.875 2634.41 164.062C2635.05 163.25 2635.54 162.292 2635.88 161.188C2636.21 160.062 2636.38 158.833 2636.38 157.5V157.094C2636.38 155.76 2636.21 154.531 2635.88 153.406C2635.54 152.281 2635.05 151.312 2634.41 150.5C2633.76 149.667 2632.96 149.021 2632 148.562C2631.06 148.104 2629.98 147.875 2628.75 147.875C2627.69 147.875 2626.73 148.031 2625.88 148.344C2625.04 148.656 2624.32 149.094 2623.72 149.656C2623.11 150.219 2622.65 150.885 2622.31 151.656C2622 152.427 2621.84 153.26 2621.84 154.156V160.375ZM2669.84 148.906H2668.94C2667.71 148.906 2666.53 149.031 2665.41 149.281C2664.3 149.531 2663.32 149.99 2662.47 150.656C2661.61 151.302 2660.93 152.198 2660.41 153.344C2659.91 154.49 2659.66 155.958 2659.66 157.75V174H2651.03V140.531H2659.66V144.312C2660.01 143.75 2660.47 143.208 2661.03 142.688C2661.59 142.167 2662.25 141.708 2663 141.312C2663.75 140.896 2664.59 140.562 2665.53 140.312C2666.47 140.062 2667.48 139.938 2668.56 139.938H2669.84V148.906ZM2689.94 139.875C2692.42 139.875 2694.67 140.323 2696.69 141.219C2698.71 142.094 2700.44 143.312 2701.88 144.875C2703.31 146.438 2704.42 148.281 2705.19 150.406C2705.98 152.531 2706.38 154.823 2706.38 157.281C2706.38 159.76 2705.98 162.062 2705.19 164.188C2704.4 166.292 2703.28 168.115 2701.84 169.656C2700.41 171.198 2698.68 172.417 2696.66 173.312C2694.64 174.188 2692.4 174.625 2689.94 174.625C2687.46 174.625 2685.21 174.188 2683.19 173.312C2681.17 172.417 2679.44 171.198 2678 169.656C2676.56 168.115 2675.45 166.292 2674.66 164.188C2673.86 162.062 2673.47 159.76 2673.47 157.281C2673.47 154.823 2673.85 152.531 2674.62 150.406C2675.42 148.281 2676.53 146.438 2677.97 144.875C2679.41 143.312 2681.14 142.094 2683.16 141.219C2685.2 140.323 2687.46 139.875 2689.94 139.875ZM2689.94 166.625C2691.17 166.625 2692.25 166.396 2693.19 165.938C2694.15 165.479 2694.95 164.844 2695.59 164.031C2696.24 163.219 2696.73 162.25 2697.06 161.125C2697.4 159.979 2697.56 158.729 2697.56 157.375V157.156C2697.56 155.802 2697.4 154.562 2697.06 153.438C2696.73 152.292 2696.24 151.312 2695.59 150.5C2694.95 149.667 2694.15 149.021 2693.19 148.562C2692.25 148.104 2691.17 147.875 2689.94 147.875C2688.71 147.875 2687.61 148.104 2686.66 148.562C2685.72 149.021 2684.93 149.667 2684.28 150.5C2683.64 151.312 2683.15 152.292 2682.81 153.438C2682.48 154.562 2682.31 155.802 2682.31 157.156V157.375C2682.31 158.729 2682.48 159.979 2682.81 161.125C2683.15 162.25 2683.64 163.219 2684.28 164.031C2684.93 164.844 2685.72 165.479 2686.66 165.938C2687.61 166.396 2688.71 166.625 2689.94 166.625ZM2726.81 139.875C2729.29 139.875 2731.54 140.323 2733.56 141.219C2735.58 142.094 2737.31 143.312 2738.75 144.875C2740.19 146.438 2741.29 148.281 2742.06 150.406C2742.85 152.531 2743.25 154.823 2743.25 157.281C2743.25 159.76 2742.85 162.062 2742.06 164.188C2741.27 166.292 2740.16 168.115 2738.72 169.656C2737.28 171.198 2735.55 172.417 2733.53 173.312C2731.51 174.188 2729.27 174.625 2726.81 174.625C2724.33 174.625 2722.08 174.188 2720.06 173.312C2718.04 172.417 2716.31 171.198 2714.88 169.656C2713.44 168.115 2712.32 166.292 2711.53 164.188C2710.74 162.062 2710.34 159.76 2710.34 157.281C2710.34 154.823 2710.73 152.531 2711.5 150.406C2712.29 148.281 2713.41 146.438 2714.84 144.875C2716.28 143.312 2718.01 142.094 2720.03 141.219C2722.07 140.323 2724.33 139.875 2726.81 139.875ZM2726.81 166.625C2728.04 166.625 2729.12 166.396 2730.06 165.938C2731.02 165.479 2731.82 164.844 2732.47 164.031C2733.11 163.219 2733.6 162.25 2733.94 161.125C2734.27 159.979 2734.44 158.729 2734.44 157.375V157.156C2734.44 155.802 2734.27 154.562 2733.94 153.438C2733.6 152.292 2733.11 151.312 2732.47 150.5C2731.82 149.667 2731.02 149.021 2730.06 148.562C2729.12 148.104 2728.04 147.875 2726.81 147.875C2725.58 147.875 2724.49 148.104 2723.53 148.562C2722.59 149.021 2721.8 149.667 2721.16 150.5C2720.51 151.312 2720.02 152.292 2719.69 153.438C2719.35 154.562 2719.19 155.802 2719.19 157.156V157.375C2719.19 158.729 2719.35 159.979 2719.69 161.125C2720.02 162.25 2720.51 163.219 2721.16 164.031C2721.8 164.844 2722.59 165.479 2723.53 165.938C2724.49 166.396 2725.58 166.625 2726.81 166.625ZM2760.53 140.531H2766.94V148.031H2760.53V174H2751.91V148.031H2746.59V140.531H2751.91V136.438C2751.91 134.979 2752.16 133.719 2752.66 132.656C2753.16 131.573 2753.84 130.688 2754.72 130C2755.61 129.292 2756.68 128.771 2757.91 128.438C2759.16 128.083 2760.53 127.906 2762.03 127.906C2762.78 127.906 2763.51 127.927 2764.22 127.969C2764.93 128.01 2765.58 128.052 2766.19 128.094C2766.79 128.135 2767.32 128.188 2767.78 128.25C2768.26 128.312 2768.62 128.354 2768.88 128.375L2768.16 135.719C2767.91 135.677 2767.59 135.635 2767.22 135.594C2766.86 135.552 2766.49 135.521 2766.09 135.5C2765.7 135.458 2765.31 135.438 2764.94 135.438C2764.56 135.417 2764.23 135.406 2763.94 135.406C2762.71 135.406 2761.83 135.646 2761.31 136.125C2760.79 136.583 2760.53 137.177 2760.53 137.906V140.531ZM2780.53 174H2771.91V140.531H2780.53V174ZM2771 131.75C2771 131.042 2771.14 130.375 2771.41 129.75C2771.68 129.104 2772.04 128.552 2772.5 128.094C2772.98 127.615 2773.53 127.24 2774.16 126.969C2774.78 126.698 2775.46 126.562 2776.19 126.562C2776.9 126.562 2777.56 126.698 2778.19 126.969C2778.83 127.24 2779.39 127.615 2779.84 128.094C2780.32 128.552 2780.7 129.104 2780.97 129.75C2781.24 130.375 2781.38 131.042 2781.38 131.75C2781.38 132.479 2781.24 133.156 2780.97 133.781C2780.7 134.406 2780.32 134.958 2779.84 135.438C2779.39 135.896 2778.83 136.26 2778.19 136.531C2777.56 136.802 2776.9 136.938 2776.19 136.938C2775.46 136.938 2774.78 136.802 2774.16 136.531C2773.53 136.26 2772.98 135.896 2772.5 135.438C2772.04 134.958 2771.68 134.406 2771.41 133.781C2771.14 133.156 2771 132.479 2771 131.75ZM2787.97 140.531H2796.59V143.406C2797.05 142.948 2797.56 142.51 2798.12 142.094C2798.71 141.656 2799.34 141.281 2800.03 140.969C2800.72 140.635 2801.48 140.375 2802.31 140.188C2803.17 139.979 2804.1 139.875 2805.12 139.875C2806.94 139.875 2808.56 140.177 2810 140.781C2811.44 141.365 2812.65 142.177 2813.62 143.219C2814.62 144.26 2815.39 145.479 2815.91 146.875C2816.43 148.271 2816.69 149.781 2816.69 151.406V174H2808.06V154.531C2808.06 153.344 2807.93 152.344 2807.66 151.531C2807.39 150.698 2807.01 150.031 2806.53 149.531C2806.07 149.01 2805.52 148.635 2804.88 148.406C2804.25 148.156 2803.56 148.031 2802.81 148.031C2801.94 148.031 2801.11 148.188 2800.34 148.5C2799.59 148.812 2798.94 149.292 2798.38 149.938C2797.81 150.562 2797.38 151.354 2797.06 152.312C2796.75 153.271 2796.59 154.396 2796.59 155.688V174H2787.97V140.531ZM2844.25 168.062C2843.48 169 2842.4 169.75 2841 170.312C2839.62 170.854 2838.12 171.125 2836.5 171.125C2834.25 171.125 2832.25 170.729 2830.5 169.938C2828.75 169.146 2827.27 168.062 2826.06 166.688C2824.88 165.292 2823.96 163.646 2823.31 161.75C2822.69 159.854 2822.38 157.771 2822.38 155.5C2822.38 153.292 2822.69 151.229 2823.31 149.312C2823.96 147.375 2824.88 145.719 2826.06 144.344C2827.27 142.948 2828.75 141.854 2830.5 141.062C2832.25 140.271 2834.25 139.875 2836.5 139.875C2838.12 139.875 2839.62 140.156 2841 140.719C2842.4 141.281 2843.48 142.031 2844.25 142.969V140.531H2852.91V173.688C2852.91 175.729 2852.52 177.479 2851.75 178.938C2850.98 180.417 2849.92 181.625 2848.56 182.562C2847.23 183.5 2845.68 184.177 2843.91 184.594C2842.14 185.031 2840.25 185.25 2838.25 185.25C2835.81 185.25 2833.27 184.958 2830.62 184.375C2827.98 183.812 2825.7 183.104 2823.78 182.25L2826.22 175.281C2826.8 175.531 2827.52 175.802 2828.38 176.094C2829.23 176.406 2830.15 176.677 2831.12 176.906C2832.1 177.135 2833.12 177.323 2834.19 177.469C2835.27 177.635 2836.32 177.719 2837.34 177.719C2838.24 177.719 2839.1 177.625 2839.94 177.438C2840.77 177.271 2841.5 176.979 2842.12 176.562C2842.77 176.167 2843.28 175.635 2843.66 174.969C2844.05 174.323 2844.25 173.49 2844.25 172.469V168.062ZM2831.25 155.625C2831.25 156.729 2831.36 157.771 2831.59 158.75C2831.84 159.708 2832.23 160.531 2832.75 161.219C2833.29 161.885 2833.98 162.417 2834.81 162.812C2835.65 163.188 2836.66 163.375 2837.84 163.375C2840.2 163.375 2841.88 162.635 2842.88 161.156C2843.88 159.656 2844.38 157.812 2844.38 155.625V155.375C2844.38 154.271 2844.26 153.24 2844.03 152.281C2843.8 151.323 2843.43 150.5 2842.91 149.812C2842.39 149.125 2841.71 148.594 2840.88 148.219C2840.06 147.823 2839.05 147.625 2837.84 147.625C2835.51 147.625 2833.82 148.365 2832.78 149.844C2831.76 151.323 2831.25 153.167 2831.25 155.375V155.625ZM2882.72 160.406C2881.66 160.573 2880.8 160.948 2880.16 161.531C2879.51 162.094 2879.19 162.865 2879.19 163.844C2879.19 164.927 2879.58 165.865 2880.38 166.656C2881.17 167.427 2882.33 167.812 2883.88 167.812C2885.5 167.812 2886.78 167.344 2887.72 166.406C2888.66 165.469 2889.12 164.229 2889.12 162.688V159.312L2882.72 160.406ZM2890.53 170.844C2890.18 171.24 2889.74 171.667 2889.22 172.125C2888.72 172.562 2888.11 172.969 2887.41 173.344C2886.72 173.698 2885.91 174 2884.97 174.25C2884.03 174.5 2882.98 174.625 2881.81 174.625C2880.15 174.625 2878.6 174.365 2877.19 173.844C2875.79 173.302 2874.56 172.552 2873.5 171.594C2872.44 170.635 2871.6 169.531 2871 168.281C2870.4 167.01 2870.09 165.635 2870.09 164.156C2870.09 161.469 2870.93 159.271 2872.59 157.562C2874.26 155.854 2876.56 154.781 2879.5 154.344L2889.12 152.938V152.312C2889.12 150.812 2888.67 149.625 2887.75 148.75C2886.83 147.875 2885.34 147.438 2883.28 147.438C2882.43 147.438 2881.56 147.542 2880.69 147.75C2879.81 147.938 2878.97 148.156 2878.16 148.406C2877.36 148.656 2876.62 148.948 2875.94 149.281C2875.25 149.594 2874.65 149.875 2874.12 150.125L2870.75 143.531C2872.67 142.469 2874.79 141.594 2877.12 140.906C2879.48 140.219 2881.92 139.875 2884.44 139.875C2885.98 139.875 2887.53 140.042 2889.09 140.375C2890.68 140.688 2892.1 141.271 2893.38 142.125C2894.67 142.979 2895.72 144.146 2896.53 145.625C2897.34 147.083 2897.75 148.948 2897.75 151.219V164.969C2897.75 165.948 2898 166.677 2898.5 167.156C2899.02 167.615 2899.73 168.042 2900.62 168.438L2896.72 174.625C2895.14 174.458 2893.86 174.052 2892.91 173.406C2891.95 172.74 2891.16 171.885 2890.53 170.844ZM2904.97 140.531H2913.59V143.406C2914.05 142.948 2914.56 142.51 2915.12 142.094C2915.71 141.656 2916.34 141.281 2917.03 140.969C2917.72 140.635 2918.48 140.375 2919.31 140.188C2920.17 139.979 2921.1 139.875 2922.12 139.875C2923.94 139.875 2925.56 140.177 2927 140.781C2928.44 141.365 2929.65 142.177 2930.62 143.219C2931.62 144.26 2932.39 145.479 2932.91 146.875C2933.43 148.271 2933.69 149.781 2933.69 151.406V174H2925.06V154.531C2925.06 153.344 2924.93 152.344 2924.66 151.531C2924.39 150.698 2924.01 150.031 2923.53 149.531C2923.07 149.01 2922.52 148.635 2921.88 148.406C2921.25 148.156 2920.56 148.031 2919.81 148.031C2918.94 148.031 2918.11 148.188 2917.34 148.5C2916.59 148.812 2915.94 149.292 2915.38 149.938C2914.81 150.562 2914.38 151.354 2914.06 152.312C2913.75 153.271 2913.59 154.396 2913.59 155.688V174H2904.97V140.531ZM2962.41 174V171.125C2961.95 171.625 2961.44 172.094 2960.88 172.531C2960.33 172.948 2959.72 173.312 2959.03 173.625C2958.36 173.938 2957.62 174.177 2956.81 174.344C2956.02 174.531 2955.14 174.625 2954.16 174.625C2951.95 174.625 2949.93 174.188 2948.09 173.312C2946.26 172.438 2944.69 171.229 2943.38 169.688C2942.06 168.146 2941.04 166.312 2940.31 164.188C2939.6 162.062 2939.25 159.76 2939.25 157.281C2939.25 154.802 2939.6 152.5 2940.31 150.375C2941.02 148.25 2942.01 146.417 2943.28 144.875C2944.57 143.312 2946.12 142.094 2947.94 141.219C2949.75 140.323 2951.76 139.875 2953.97 139.875C2955.93 139.875 2957.58 140.219 2958.94 140.906C2960.31 141.573 2961.47 142.406 2962.41 143.406V129.188H2971.03V174H2962.41ZM2962.66 154.156C2962.66 153.26 2962.49 152.427 2962.16 151.656C2961.84 150.885 2961.39 150.219 2960.78 149.656C2960.18 149.094 2959.45 148.656 2958.59 148.344C2957.76 148.031 2956.81 147.875 2955.75 147.875C2954.52 147.875 2953.43 148.104 2952.47 148.562C2951.53 149.021 2950.74 149.667 2950.09 150.5C2949.45 151.312 2948.96 152.281 2948.62 153.406C2948.29 154.531 2948.12 155.76 2948.12 157.094V157.5C2948.12 158.833 2948.29 160.062 2948.62 161.188C2948.96 162.292 2949.45 163.25 2950.09 164.062C2950.74 164.875 2951.53 165.51 2952.47 165.969C2953.43 166.406 2954.52 166.625 2955.75 166.625C2956.81 166.625 2957.76 166.469 2958.59 166.156C2959.45 165.844 2960.18 165.406 2960.78 164.844C2961.39 164.281 2961.84 163.625 2962.16 162.875C2962.49 162.104 2962.66 161.271 2962.66 160.375V154.156ZM2369.16 263L2358.91 229.531H2368.53L2374.53 252.562L2380.69 229.531H2390.16L2379.97 263H2369.16ZM2401.66 249.25C2401.8 250.25 2402.11 251.167 2402.59 252C2403.09 252.833 2403.72 253.552 2404.47 254.156C2405.22 254.74 2406.08 255.198 2407.06 255.531C2408.04 255.865 2409.08 256.031 2410.19 256.031C2411.46 256.031 2412.83 255.792 2414.31 255.312C2415.79 254.812 2417.15 254.094 2418.38 253.156L2422.53 259.219C2420.97 260.531 2419.05 261.594 2416.78 262.406C2414.51 263.219 2412.09 263.625 2409.53 263.625C2407.22 263.625 2405.04 263.229 2403 262.438C2400.96 261.646 2399.17 260.5 2397.62 259C2396.1 257.5 2394.9 255.677 2394 253.531C2393.12 251.385 2392.69 248.969 2392.69 246.281C2392.69 243.823 2393.07 241.531 2393.84 239.406C2394.64 237.281 2395.73 235.438 2397.12 233.875C2398.54 232.312 2400.23 231.094 2402.19 230.219C2404.15 229.323 2406.31 228.875 2408.69 228.875C2410.9 228.875 2412.95 229.281 2414.84 230.094C2416.74 230.885 2418.39 232.01 2419.78 233.469C2421.18 234.906 2422.27 236.635 2423.06 238.656C2423.85 240.677 2424.25 242.906 2424.25 245.344V249.25H2401.66ZM2408.66 236.375C2406.8 236.375 2405.23 237 2403.94 238.25C2402.67 239.479 2401.93 240.969 2401.72 242.719H2415.22C2415.18 240.948 2414.53 239.448 2413.28 238.219C2412.03 236.99 2410.49 236.375 2408.66 236.375ZM2448.56 237.906H2447.66C2446.43 237.906 2445.25 238.031 2444.12 238.281C2443.02 238.531 2442.04 238.99 2441.19 239.656C2440.33 240.302 2439.65 241.198 2439.12 242.344C2438.62 243.49 2438.38 244.958 2438.38 246.75V263H2429.75V229.531H2438.38V233.312C2438.73 232.75 2439.19 232.208 2439.75 231.688C2440.31 231.167 2440.97 230.708 2441.72 230.312C2442.47 229.896 2443.31 229.562 2444.25 229.312C2445.19 229.062 2446.2 228.938 2447.28 228.938H2448.56V237.906ZM2462.56 263H2453.94V229.531H2462.56V263ZM2453.03 220.75C2453.03 220.042 2453.17 219.375 2453.44 218.75C2453.71 218.104 2454.07 217.552 2454.53 217.094C2455.01 216.615 2455.56 216.24 2456.19 215.969C2456.81 215.698 2457.49 215.562 2458.22 215.562C2458.93 215.562 2459.59 215.698 2460.22 215.969C2460.86 216.24 2461.42 216.615 2461.88 217.094C2462.35 217.552 2462.73 218.104 2463 218.75C2463.27 219.375 2463.41 220.042 2463.41 220.75C2463.41 221.479 2463.27 222.156 2463 222.781C2462.73 223.406 2462.35 223.958 2461.88 224.438C2461.42 224.896 2460.86 225.26 2460.22 225.531C2459.59 225.802 2458.93 225.938 2458.22 225.938C2457.49 225.938 2456.81 225.802 2456.19 225.531C2455.56 225.26 2455.01 224.896 2454.53 224.438C2454.07 223.958 2453.71 223.406 2453.44 222.781C2453.17 222.156 2453.03 221.479 2453.03 220.75ZM2481.56 229.531H2487.97V237.031H2481.56V263H2472.94V237.031H2467.62V229.531H2472.94V225.438C2472.94 223.979 2473.19 222.719 2473.69 221.656C2474.19 220.573 2474.88 219.688 2475.75 219C2476.65 218.292 2477.71 217.771 2478.94 217.438C2480.19 217.083 2481.56 216.906 2483.06 216.906C2483.81 216.906 2484.54 216.927 2485.25 216.969C2485.96 217.01 2486.61 217.052 2487.22 217.094C2487.82 217.135 2488.35 217.188 2488.81 217.25C2489.29 217.312 2489.66 217.354 2489.91 217.375L2489.19 224.719C2488.94 224.677 2488.62 224.635 2488.25 224.594C2487.9 224.552 2487.52 224.521 2487.12 224.5C2486.73 224.458 2486.34 224.438 2485.97 224.438C2485.59 224.417 2485.26 224.406 2484.97 224.406C2483.74 224.406 2482.86 224.646 2482.34 225.125C2481.82 225.583 2481.56 226.177 2481.56 226.906V229.531ZM2501.56 263H2492.94V229.531H2501.56V263ZM2492.03 220.75C2492.03 220.042 2492.17 219.375 2492.44 218.75C2492.71 218.104 2493.07 217.552 2493.53 217.094C2494.01 216.615 2494.56 216.24 2495.19 215.969C2495.81 215.698 2496.49 215.562 2497.22 215.562C2497.93 215.562 2498.59 215.698 2499.22 215.969C2499.86 216.24 2500.42 216.615 2500.88 217.094C2501.35 217.552 2501.73 218.104 2502 218.75C2502.27 219.375 2502.41 220.042 2502.41 220.75C2502.41 221.479 2502.27 222.156 2502 222.781C2501.73 223.406 2501.35 223.958 2500.88 224.438C2500.42 224.896 2499.86 225.26 2499.22 225.531C2498.59 225.802 2497.93 225.938 2497.22 225.938C2496.49 225.938 2495.81 225.802 2495.19 225.531C2494.56 225.26 2494.01 224.896 2493.53 224.438C2493.07 223.958 2492.71 223.406 2492.44 222.781C2492.17 222.156 2492.03 221.479 2492.03 220.75ZM2516.16 246.438C2516.16 247.521 2516.3 248.615 2516.59 249.719C2516.89 250.802 2517.33 251.781 2517.94 252.656C2518.54 253.531 2519.31 254.25 2520.25 254.812C2521.21 255.354 2522.34 255.625 2523.66 255.625C2524.51 255.625 2525.28 255.51 2525.97 255.281C2526.68 255.052 2527.3 254.74 2527.84 254.344C2528.41 253.927 2528.9 253.448 2529.31 252.906C2529.75 252.344 2530.12 251.74 2530.44 251.094L2538 255C2537.46 256.312 2536.71 257.5 2535.75 258.562C2534.81 259.625 2533.72 260.531 2532.47 261.281C2531.22 262.031 2529.83 262.604 2528.31 263C2526.79 263.417 2525.18 263.625 2523.47 263.625C2521.11 263.625 2518.95 263.188 2516.97 262.312C2514.99 261.417 2513.28 260.198 2511.84 258.656C2510.41 257.115 2509.28 255.292 2508.47 253.188C2507.66 251.062 2507.25 248.76 2507.25 246.281C2507.25 243.823 2507.66 241.531 2508.47 239.406C2509.28 237.281 2510.41 235.438 2511.84 233.875C2513.28 232.312 2514.99 231.094 2516.97 230.219C2518.95 229.323 2521.11 228.875 2523.47 228.875C2525.18 228.875 2526.79 229.083 2528.31 229.5C2529.83 229.896 2531.22 230.479 2532.47 231.25C2533.72 232 2534.81 232.906 2535.75 233.969C2536.71 235.031 2537.46 236.219 2538 237.531L2530.44 241.438C2530.12 240.792 2529.75 240.198 2529.31 239.656C2528.9 239.094 2528.41 238.615 2527.84 238.219C2527.3 237.802 2526.68 237.479 2525.97 237.25C2525.28 237 2524.51 236.875 2523.66 236.875C2522.34 236.875 2521.21 237.156 2520.25 237.719C2519.31 238.26 2518.54 238.979 2517.94 239.875C2517.33 240.75 2516.89 241.74 2516.59 242.844C2516.3 243.948 2516.16 245.052 2516.16 246.156V246.438ZM2554.12 249.406C2553.06 249.573 2552.21 249.948 2551.56 250.531C2550.92 251.094 2550.59 251.865 2550.59 252.844C2550.59 253.927 2550.99 254.865 2551.78 255.656C2552.57 256.427 2553.74 256.812 2555.28 256.812C2556.91 256.812 2558.19 256.344 2559.12 255.406C2560.06 254.469 2560.53 253.229 2560.53 251.688V248.312L2554.12 249.406ZM2561.94 259.844C2561.58 260.24 2561.15 260.667 2560.62 261.125C2560.12 261.562 2559.52 261.969 2558.81 262.344C2558.12 262.698 2557.31 263 2556.38 263.25C2555.44 263.5 2554.39 263.625 2553.22 263.625C2551.55 263.625 2550.01 263.365 2548.59 262.844C2547.2 262.302 2545.97 261.552 2544.91 260.594C2543.84 259.635 2543.01 258.531 2542.41 257.281C2541.8 256.01 2541.5 254.635 2541.5 253.156C2541.5 250.469 2542.33 248.271 2544 246.562C2545.67 244.854 2547.97 243.781 2550.91 243.344L2560.53 241.938V241.312C2560.53 239.812 2560.07 238.625 2559.16 237.75C2558.24 236.875 2556.75 236.438 2554.69 236.438C2553.83 236.438 2552.97 236.542 2552.09 236.75C2551.22 236.938 2550.38 237.156 2549.56 237.406C2548.77 237.656 2548.03 237.948 2547.34 238.281C2546.66 238.594 2546.05 238.875 2545.53 239.125L2542.16 232.531C2544.07 231.469 2546.2 230.594 2548.53 229.906C2550.89 229.219 2553.32 228.875 2555.84 228.875C2557.39 228.875 2558.94 229.042 2560.5 229.375C2562.08 229.688 2563.51 230.271 2564.78 231.125C2566.07 231.979 2567.12 233.146 2567.94 234.625C2568.75 236.083 2569.16 237.948 2569.16 240.219V253.969C2569.16 254.948 2569.41 255.677 2569.91 256.156C2570.43 256.615 2571.14 257.042 2572.03 257.438L2568.12 263.625C2566.54 263.458 2565.27 263.052 2564.31 262.406C2563.35 261.74 2562.56 260.885 2561.94 259.844ZM2587.41 253.031C2587.41 253.427 2587.46 253.802 2587.56 254.156C2587.67 254.51 2587.84 254.823 2588.09 255.094C2588.36 255.344 2588.74 255.542 2589.22 255.688C2589.7 255.833 2590.31 255.906 2591.06 255.906C2591.38 255.906 2591.73 255.896 2592.12 255.875C2592.52 255.833 2592.92 255.792 2593.31 255.75C2593.71 255.708 2594.07 255.656 2594.41 255.594C2594.76 255.531 2595.05 255.479 2595.28 255.438L2596.06 263.062C2595.25 263.167 2594.41 263.26 2593.53 263.344C2592.78 263.427 2591.95 263.49 2591.03 263.531C2590.11 263.594 2589.19 263.625 2588.25 263.625C2585.27 263.625 2582.95 262.948 2581.28 261.594C2579.61 260.24 2578.78 258.083 2578.78 255.125V237.031H2572.75V229.531H2578.78V220.062L2587.41 217.75V229.531H2596.19V237.031H2587.41V253.031ZM2610.25 263H2601.62V229.531H2610.25V263ZM2600.72 220.75C2600.72 220.042 2600.85 219.375 2601.12 218.75C2601.4 218.104 2601.76 217.552 2602.22 217.094C2602.7 216.615 2603.25 216.24 2603.88 215.969C2604.5 215.698 2605.18 215.562 2605.91 215.562C2606.61 215.562 2607.28 215.698 2607.91 215.969C2608.55 216.24 2609.1 216.615 2609.56 217.094C2610.04 217.552 2610.42 218.104 2610.69 218.75C2610.96 219.375 2611.09 220.042 2611.09 220.75C2611.09 221.479 2610.96 222.156 2610.69 222.781C2610.42 223.406 2610.04 223.958 2609.56 224.438C2609.1 224.896 2608.55 225.26 2607.91 225.531C2607.28 225.802 2606.61 225.938 2605.91 225.938C2605.18 225.938 2604.5 225.802 2603.88 225.531C2603.25 225.26 2602.7 224.896 2602.22 224.438C2601.76 223.958 2601.4 223.406 2601.12 222.781C2600.85 222.156 2600.72 221.479 2600.72 220.75ZM2632.41 228.875C2634.89 228.875 2637.14 229.323 2639.16 230.219C2641.18 231.094 2642.91 232.312 2644.34 233.875C2645.78 235.438 2646.89 237.281 2647.66 239.406C2648.45 241.531 2648.84 243.823 2648.84 246.281C2648.84 248.76 2648.45 251.062 2647.66 253.188C2646.86 255.292 2645.75 257.115 2644.31 258.656C2642.88 260.198 2641.15 261.417 2639.12 262.312C2637.1 263.188 2634.86 263.625 2632.41 263.625C2629.93 263.625 2627.68 263.188 2625.66 262.312C2623.64 261.417 2621.91 260.198 2620.47 258.656C2619.03 257.115 2617.92 255.292 2617.12 253.188C2616.33 251.062 2615.94 248.76 2615.94 246.281C2615.94 243.823 2616.32 241.531 2617.09 239.406C2617.89 237.281 2619 235.438 2620.44 233.875C2621.88 232.312 2623.6 231.094 2625.62 230.219C2627.67 229.323 2629.93 228.875 2632.41 228.875ZM2632.41 255.625C2633.64 255.625 2634.72 255.396 2635.66 254.938C2636.61 254.479 2637.42 253.844 2638.06 253.031C2638.71 252.219 2639.2 251.25 2639.53 250.125C2639.86 248.979 2640.03 247.729 2640.03 246.375V246.156C2640.03 244.802 2639.86 243.562 2639.53 242.438C2639.2 241.292 2638.71 240.312 2638.06 239.5C2637.42 238.667 2636.61 238.021 2635.66 237.562C2634.72 237.104 2633.64 236.875 2632.41 236.875C2631.18 236.875 2630.08 237.104 2629.12 237.562C2628.19 238.021 2627.4 238.667 2626.75 239.5C2626.1 240.312 2625.61 241.292 2625.28 242.438C2624.95 243.562 2624.78 244.802 2624.78 246.156V246.375C2624.78 247.729 2624.95 248.979 2625.28 250.125C2625.61 251.25 2626.1 252.219 2626.75 253.031C2627.4 253.844 2628.19 254.479 2629.12 254.938C2630.08 255.396 2631.18 255.625 2632.41 255.625ZM2654.56 229.531H2663.19V232.406C2663.65 231.948 2664.16 231.51 2664.72 231.094C2665.3 230.656 2665.94 230.281 2666.62 229.969C2667.31 229.635 2668.07 229.375 2668.91 229.188C2669.76 228.979 2670.7 228.875 2671.72 228.875C2673.53 228.875 2675.16 229.177 2676.59 229.781C2678.03 230.365 2679.24 231.177 2680.22 232.219C2681.22 233.26 2681.98 234.479 2682.5 235.875C2683.02 237.271 2683.28 238.781 2683.28 240.406V263H2674.66V243.531C2674.66 242.344 2674.52 241.344 2674.25 240.531C2673.98 239.698 2673.6 239.031 2673.12 238.531C2672.67 238.01 2672.11 237.635 2671.47 237.406C2670.84 237.156 2670.16 237.031 2669.41 237.031C2668.53 237.031 2667.71 237.188 2666.94 237.5C2666.19 237.812 2665.53 238.292 2664.97 238.938C2664.41 239.562 2663.97 240.354 2663.66 241.312C2663.34 242.271 2663.19 243.396 2663.19 244.688V263H2654.56V229.531ZM2709.66 246.031C2709.66 248.76 2710 251.344 2710.69 253.781C2711.4 256.198 2712.35 258.458 2713.56 260.562C2714.77 262.667 2716.19 264.625 2717.81 266.438C2719.46 268.25 2721.21 269.917 2723.06 271.438L2717.66 276.812L2715.25 274.906C2712.88 272.969 2710.75 270.906 2708.88 268.719C2707 266.552 2705.41 264.26 2704.09 261.844C2702.8 259.427 2701.81 256.885 2701.12 254.219C2700.46 251.552 2700.12 248.76 2700.12 245.844C2700.12 242.906 2700.46 240.115 2701.12 237.469C2701.81 234.802 2702.8 232.271 2704.09 229.875C2705.41 227.458 2707 225.167 2708.88 223C2710.75 220.833 2712.88 218.781 2715.25 216.844L2717.66 214.875L2723.06 220.312C2721.21 221.812 2719.46 223.469 2717.81 225.281C2716.19 227.073 2714.77 229.031 2713.56 231.156C2712.35 233.26 2711.4 235.521 2710.69 237.938C2710 240.354 2709.66 242.927 2709.66 245.656V246.031ZM2739.03 228.875C2741.51 228.875 2743.76 229.323 2745.78 230.219C2747.8 231.094 2749.53 232.312 2750.97 233.875C2752.41 235.438 2753.51 237.281 2754.28 239.406C2755.07 241.531 2755.47 243.823 2755.47 246.281C2755.47 248.76 2755.07 251.062 2754.28 253.188C2753.49 255.292 2752.38 257.115 2750.94 258.656C2749.5 260.198 2747.77 261.417 2745.75 262.312C2743.73 263.188 2741.49 263.625 2739.03 263.625C2736.55 263.625 2734.3 263.188 2732.28 262.312C2730.26 261.417 2728.53 260.198 2727.09 258.656C2725.66 257.115 2724.54 255.292 2723.75 253.188C2722.96 251.062 2722.56 248.76 2722.56 246.281C2722.56 243.823 2722.95 241.531 2723.72 239.406C2724.51 237.281 2725.62 235.438 2727.06 233.875C2728.5 232.312 2730.23 231.094 2732.25 230.219C2734.29 229.323 2736.55 228.875 2739.03 228.875ZM2739.03 255.625C2740.26 255.625 2741.34 255.396 2742.28 254.938C2743.24 254.479 2744.04 253.844 2744.69 253.031C2745.33 252.219 2745.82 251.25 2746.16 250.125C2746.49 248.979 2746.66 247.729 2746.66 246.375V246.156C2746.66 244.802 2746.49 243.562 2746.16 242.438C2745.82 241.292 2745.33 240.312 2744.69 239.5C2744.04 238.667 2743.24 238.021 2742.28 237.562C2741.34 237.104 2740.26 236.875 2739.03 236.875C2737.8 236.875 2736.71 237.104 2735.75 237.562C2734.81 238.021 2734.02 238.667 2733.38 239.5C2732.73 240.312 2732.24 241.292 2731.91 242.438C2731.57 243.562 2731.41 244.802 2731.41 246.156V246.375C2731.41 247.729 2731.57 248.979 2731.91 250.125C2732.24 251.25 2732.73 252.219 2733.38 253.031C2734.02 253.844 2734.81 254.479 2735.75 254.938C2736.71 255.396 2737.8 255.625 2739.03 255.625ZM2769.81 273.562H2761.19V229.531H2769.81V232.406C2770.75 231.427 2771.91 230.594 2773.28 229.906C2774.66 229.219 2776.32 228.875 2778.28 228.875C2780.49 228.875 2782.49 229.323 2784.28 230.219C2786.09 231.094 2787.65 232.312 2788.94 233.875C2790.23 235.417 2791.23 237.25 2791.94 239.375C2792.65 241.5 2793 243.802 2793 246.281C2793 248.76 2792.64 251.062 2791.91 253.188C2791.18 255.312 2790.16 257.146 2788.84 258.688C2787.53 260.229 2785.96 261.438 2784.12 262.312C2782.29 263.188 2780.27 263.625 2778.06 263.625C2777.08 263.625 2776.19 263.531 2775.38 263.344C2774.58 263.177 2773.85 262.938 2773.19 262.625C2772.52 262.312 2771.91 261.948 2771.34 261.531C2770.78 261.094 2770.27 260.625 2769.81 260.125V273.562ZM2769.56 249.375C2769.56 250.271 2769.72 251.104 2770.03 251.875C2770.36 252.625 2770.83 253.281 2771.44 253.844C2772.04 254.406 2772.76 254.844 2773.59 255.156C2774.45 255.469 2775.41 255.625 2776.47 255.625C2777.7 255.625 2778.78 255.406 2779.72 254.969C2780.68 254.51 2781.48 253.875 2782.12 253.062C2782.77 252.25 2783.26 251.292 2783.59 250.188C2783.93 249.062 2784.09 247.833 2784.09 246.5V246.094C2784.09 244.76 2783.93 243.531 2783.59 242.406C2783.26 241.281 2782.77 240.312 2782.12 239.5C2781.48 238.667 2780.68 238.021 2779.72 237.562C2778.78 237.104 2777.7 236.875 2776.47 236.875C2775.41 236.875 2774.45 237.031 2773.59 237.344C2772.76 237.656 2772.04 238.094 2771.44 238.656C2770.83 239.219 2770.36 239.885 2770.03 240.656C2769.72 241.427 2769.56 242.26 2769.56 243.156V249.375ZM2811.09 253.031C2811.09 253.427 2811.15 253.802 2811.25 254.156C2811.35 254.51 2811.53 254.823 2811.78 255.094C2812.05 255.344 2812.43 255.542 2812.91 255.688C2813.39 255.833 2814 255.906 2814.75 255.906C2815.06 255.906 2815.42 255.896 2815.81 255.875C2816.21 255.833 2816.6 255.792 2817 255.75C2817.4 255.708 2817.76 255.656 2818.09 255.594C2818.45 255.531 2818.74 255.479 2818.97 255.438L2819.75 263.062C2818.94 263.167 2818.09 263.26 2817.22 263.344C2816.47 263.427 2815.64 263.49 2814.72 263.531C2813.8 263.594 2812.88 263.625 2811.94 263.625C2808.96 263.625 2806.64 262.948 2804.97 261.594C2803.3 260.24 2802.47 258.083 2802.47 255.125V237.031H2796.44V229.531H2802.47V220.062L2811.09 217.75V229.531H2819.88V237.031H2811.09V253.031ZM2833.94 263H2825.31V229.531H2833.94V263ZM2824.41 220.75C2824.41 220.042 2824.54 219.375 2824.81 218.75C2825.08 218.104 2825.45 217.552 2825.91 217.094C2826.39 216.615 2826.94 216.24 2827.56 215.969C2828.19 215.698 2828.86 215.562 2829.59 215.562C2830.3 215.562 2830.97 215.698 2831.59 215.969C2832.24 216.24 2832.79 216.615 2833.25 217.094C2833.73 217.552 2834.1 218.104 2834.38 218.75C2834.65 219.375 2834.78 220.042 2834.78 220.75C2834.78 221.479 2834.65 222.156 2834.38 222.781C2834.1 223.406 2833.73 223.958 2833.25 224.438C2832.79 224.896 2832.24 225.26 2831.59 225.531C2830.97 225.802 2830.3 225.938 2829.59 225.938C2828.86 225.938 2828.19 225.802 2827.56 225.531C2826.94 225.26 2826.39 224.896 2825.91 224.438C2825.45 223.958 2825.08 223.406 2824.81 222.781C2824.54 222.156 2824.41 221.479 2824.41 220.75ZM2856.09 228.875C2858.57 228.875 2860.82 229.323 2862.84 230.219C2864.86 231.094 2866.59 232.312 2868.03 233.875C2869.47 235.438 2870.57 237.281 2871.34 239.406C2872.14 241.531 2872.53 243.823 2872.53 246.281C2872.53 248.76 2872.14 251.062 2871.34 253.188C2870.55 255.292 2869.44 257.115 2868 258.656C2866.56 260.198 2864.83 261.417 2862.81 262.312C2860.79 263.188 2858.55 263.625 2856.09 263.625C2853.61 263.625 2851.36 263.188 2849.34 262.312C2847.32 261.417 2845.59 260.198 2844.16 258.656C2842.72 257.115 2841.6 255.292 2840.81 253.188C2840.02 251.062 2839.62 248.76 2839.62 246.281C2839.62 243.823 2840.01 241.531 2840.78 239.406C2841.57 237.281 2842.69 235.438 2844.12 233.875C2845.56 232.312 2847.29 231.094 2849.31 230.219C2851.35 229.323 2853.61 228.875 2856.09 228.875ZM2856.09 255.625C2857.32 255.625 2858.41 255.396 2859.34 254.938C2860.3 254.479 2861.1 253.844 2861.75 253.031C2862.4 252.219 2862.89 251.25 2863.22 250.125C2863.55 248.979 2863.72 247.729 2863.72 246.375V246.156C2863.72 244.802 2863.55 243.562 2863.22 242.438C2862.89 241.292 2862.4 240.312 2861.75 239.5C2861.1 238.667 2860.3 238.021 2859.34 237.562C2858.41 237.104 2857.32 236.875 2856.09 236.875C2854.86 236.875 2853.77 237.104 2852.81 237.562C2851.88 238.021 2851.08 238.667 2850.44 239.5C2849.79 240.312 2849.3 241.292 2848.97 242.438C2848.64 243.562 2848.47 244.802 2848.47 246.156V246.375C2848.47 247.729 2848.64 248.979 2848.97 250.125C2849.3 251.25 2849.79 252.219 2850.44 253.031C2851.08 253.844 2851.88 254.479 2852.81 254.938C2853.77 255.396 2854.86 255.625 2856.09 255.625ZM2878.25 229.531H2886.88V232.406C2887.33 231.948 2887.84 231.51 2888.41 231.094C2888.99 230.656 2889.62 230.281 2890.31 229.969C2891 229.635 2891.76 229.375 2892.59 229.188C2893.45 228.979 2894.39 228.875 2895.41 228.875C2897.22 228.875 2898.84 229.177 2900.28 229.781C2901.72 230.365 2902.93 231.177 2903.91 232.219C2904.91 233.26 2905.67 234.479 2906.19 235.875C2906.71 237.271 2906.97 238.781 2906.97 240.406V263H2898.34V243.531C2898.34 242.344 2898.21 241.344 2897.94 240.531C2897.67 239.698 2897.29 239.031 2896.81 238.531C2896.35 238.01 2895.8 237.635 2895.16 237.406C2894.53 237.156 2893.84 237.031 2893.09 237.031C2892.22 237.031 2891.4 237.188 2890.62 237.5C2889.88 237.812 2889.22 238.292 2888.66 238.938C2888.09 239.562 2887.66 240.354 2887.34 241.312C2887.03 242.271 2886.88 243.396 2886.88 244.688V263H2878.25V229.531ZM2925 249.406C2923.94 249.573 2923.08 249.948 2922.44 250.531C2921.79 251.094 2921.47 251.865 2921.47 252.844C2921.47 253.927 2921.86 254.865 2922.66 255.656C2923.45 256.427 2924.61 256.812 2926.16 256.812C2927.78 256.812 2929.06 256.344 2930 255.406C2930.94 254.469 2931.41 253.229 2931.41 251.688V248.312L2925 249.406ZM2932.81 259.844C2932.46 260.24 2932.02 260.667 2931.5 261.125C2931 261.562 2930.4 261.969 2929.69 262.344C2929 262.698 2928.19 263 2927.25 263.25C2926.31 263.5 2925.26 263.625 2924.09 263.625C2922.43 263.625 2920.89 263.365 2919.47 262.844C2918.07 262.302 2916.84 261.552 2915.78 260.594C2914.72 259.635 2913.89 258.531 2913.28 257.281C2912.68 256.01 2912.38 254.635 2912.38 253.156C2912.38 250.469 2913.21 248.271 2914.88 246.562C2916.54 244.854 2918.84 243.781 2921.78 243.344L2931.41 241.938V241.312C2931.41 239.812 2930.95 238.625 2930.03 237.75C2929.11 236.875 2927.62 236.438 2925.56 236.438C2924.71 236.438 2923.84 236.542 2922.97 236.75C2922.09 236.938 2921.25 237.156 2920.44 237.406C2919.65 237.656 2918.91 237.948 2918.22 238.281C2917.53 238.594 2916.93 238.875 2916.41 239.125L2913.03 232.531C2914.95 231.469 2917.07 230.594 2919.41 229.906C2921.76 229.219 2924.2 228.875 2926.72 228.875C2928.26 228.875 2929.81 229.042 2931.38 229.375C2932.96 229.688 2934.39 230.271 2935.66 231.125C2936.95 231.979 2938 233.146 2938.81 234.625C2939.62 236.083 2940.03 237.948 2940.03 240.219V253.969C2940.03 254.948 2940.28 255.677 2940.78 256.156C2941.3 256.615 2942.01 257.042 2942.91 257.438L2939 263.625C2937.42 263.458 2936.15 263.052 2935.19 262.406C2934.23 261.74 2933.44 260.885 2932.81 259.844ZM2947.12 218.188H2955.75V253.906C2955.75 254.615 2955.95 255.156 2956.34 255.531C2956.76 255.906 2957.42 256.094 2958.31 256.094C2958.73 256.094 2959.08 256.073 2959.38 256.031C2959.69 255.969 2960.08 255.885 2960.56 255.781L2961.25 263.125C2960.67 263.208 2960.04 263.292 2959.38 263.375C2958.81 263.438 2958.16 263.49 2957.41 263.531C2956.68 263.594 2955.92 263.625 2955.12 263.625C2953.9 263.625 2952.79 263.469 2951.81 263.156C2950.83 262.844 2949.99 262.385 2949.28 261.781C2948.59 261.156 2948.06 260.385 2947.69 259.469C2947.31 258.552 2947.12 257.49 2947.12 256.281V218.188ZM2976.31 245.656C2976.31 242.927 2975.96 240.354 2975.25 237.938C2974.56 235.521 2973.61 233.26 2972.41 231.156C2971.2 229.031 2969.77 227.073 2968.12 225.281C2966.5 223.469 2964.76 221.812 2962.91 220.312L2968.31 214.875L2970.72 216.844C2973.09 218.781 2975.22 220.833 2977.09 223C2978.97 225.167 2980.55 227.458 2981.84 229.875C2983.16 232.271 2984.15 234.802 2984.81 237.469C2985.5 240.115 2985.84 242.906 2985.84 245.844C2985.84 248.76 2985.5 251.552 2984.81 254.219C2984.15 256.885 2983.16 259.427 2981.84 261.844C2980.55 264.26 2978.97 266.552 2977.09 268.719C2975.22 270.906 2973.09 272.969 2970.72 274.906L2968.31 276.812L2962.91 271.438C2964.76 269.917 2966.5 268.25 2968.12 266.438C2969.77 264.625 2971.2 262.667 2972.41 260.562C2973.61 258.458 2974.56 256.198 2975.25 253.781C2975.96 251.344 2976.31 248.76 2976.31 246.031V245.656Z" fill="#0B0C0C"/>
<rect x="2296.5" y="2.5" width="753" height="395" stroke="#0B0C0C" stroke-width="5"/>
<rect width="90" height="90" transform="translate(845 75)" fill="#0B0C0C"/>
<path d="M897.188 100.188V145H887.906V115.375H879.781V107.188H881.781C883.115 107.188 884.198 107.073 885.031 106.844C885.885 106.594 886.552 106.219 887.031 105.719C887.51 105.219 887.833 104.583 888 103.812C888.167 103.021 888.25 102.073 888.25 100.969V100.188H897.188Z" fill="white"/>
<path d="M935 117L932 117L932 123L935 123L935 117ZM1087.12 122.121C1088.29 120.95 1088.29 119.05 1087.12 117.879L1068.03 98.7868C1066.86 97.6152 1064.96 97.6152 1063.79 98.7868C1062.62 99.9584 1062.62 101.858 1063.79 103.029L1080.76 120L1063.79 136.971C1062.62 138.142 1062.62 140.042 1063.79 141.213C1064.96 142.385 1066.86 142.385 1068.03 141.213L1087.12 122.121ZM935 123L1085 123L1085 117L935 117L935 123Z" fill="#0B0C0C"/>
<path d="M687 117L684 117L684 123L687 123L687 117ZM687 123L845 123L845 117L687 117L687 123Z" fill="#0B0C0C"/>
<rect width="90" height="90" transform="translate(845 264)" fill="#0B0C0C"/>
<path d="M893.312 334V323.875H870.969V314.219L890.812 289.188H902.406V315.688H908.938V323.875H902.406V334H893.312ZM893.312 315.688V298.094L879.375 315.688H893.312Z" fill="white"/>
<path d="M845 312L848 312L848 306L845 306L845 312ZM724.879 306.879C723.707 308.05 723.707 309.95 724.879 311.121L743.971 330.213C745.142 331.385 747.042 331.385 748.213 330.213C749.385 329.042 749.385 327.142 748.213 325.971L731.243 309L748.213 292.029C749.385 290.858 749.385 288.958 748.213 287.787C747.042 286.615 745.142 286.615 743.971 287.787L724.879 306.879ZM845 306L727 306L727 312L845 312L845 306Z" fill="#0B0C0C"/>
<path d="M935 306L932 306L932 312L935 312L935 306ZM935 312L1125 312L1125 306L935 306L935 312Z" fill="#0B0C0C"/>
<rect width="90" height="90" transform="translate(2014 75)" fill="#0B0C0C"/>
<path d="M2058.19 107.938C2056.96 107.938 2055.89 108.135 2054.97 108.531C2054.05 108.927 2053.29 109.479 2052.69 110.188C2052.08 110.896 2051.64 111.729 2051.34 112.688C2051.05 113.625 2050.91 114.646 2050.91 115.75L2041.62 114.906C2041.65 112.448 2042.08 110.271 2042.94 108.375C2043.79 106.458 2044.96 104.854 2046.44 103.562C2047.92 102.25 2049.66 101.26 2051.66 100.594C2053.68 99.9062 2055.88 99.5625 2058.25 99.5625C2060.73 99.5625 2062.99 99.9375 2065.03 100.688C2067.09 101.417 2068.85 102.448 2070.31 103.781C2071.77 105.115 2072.9 106.719 2073.69 108.594C2074.5 110.448 2074.91 112.49 2074.91 114.719C2074.91 117.156 2074.42 119.438 2073.44 121.562C2072.48 123.667 2071.2 125.625 2069.59 127.438C2067.99 129.229 2066.15 130.875 2064.06 132.375C2061.98 133.854 2059.83 135.188 2057.62 136.375L2056.78 136.812H2075.47V145H2042.78V136.875C2044.47 135.958 2046.19 134.979 2047.94 133.938C2049.71 132.896 2051.42 131.812 2053.06 130.688C2054.73 129.542 2056.3 128.354 2057.78 127.125C2059.26 125.896 2060.54 124.625 2061.62 123.312C2062.73 121.979 2063.6 120.615 2064.25 119.219C2064.9 117.802 2065.22 116.344 2065.22 114.844C2065.22 113.99 2065.07 113.146 2064.78 112.312C2064.49 111.479 2064.05 110.74 2063.47 110.094C2062.91 109.448 2062.18 108.927 2061.28 108.531C2060.41 108.135 2059.38 107.938 2058.19 107.938Z" fill="white"/>
<path d="M2104 117L2101 117L2101 123L2104 123L2104 117ZM2256.12 122.121C2257.29 120.95 2257.29 119.05 2256.12 117.879L2237.03 98.7868C2235.86 97.6152 2233.96 97.6152 2232.79 98.7868C2231.62 99.9584 2231.62 101.858 2232.79 103.029L2249.76 120L2232.79 136.971C2231.62 138.142 2231.62 140.042 2232.79 141.213C2233.96 142.385 2235.86 142.385 2237.03 141.213L2256.12 122.121ZM2104 123L2254 123L2254 117L2104 117L2104 123Z" fill="#0B0C0C"/>
<path d="M1856 117L1853 117L1853 123L1856 123L1856 117ZM1856 123L2014 123L2014 117L1856 117L1856 123Z" fill="#0B0C0C"/>
<rect width="90" height="90" transform="translate(2014 264)" fill="#0B0C0C"/>
<path d="M2049.88 320.312C2050.21 321.375 2050.68 322.302 2051.28 323.094C2051.89 323.865 2052.58 324.51 2053.38 325.031C2054.19 325.531 2055.06 325.906 2056 326.156C2056.96 326.385 2057.95 326.5 2058.97 326.5C2060.39 326.5 2061.58 326.333 2062.56 326C2063.56 325.646 2064.36 325.198 2064.97 324.656C2065.59 324.094 2066.04 323.469 2066.31 322.781C2066.58 322.073 2066.72 321.354 2066.72 320.625C2066.72 318.854 2065.98 317.458 2064.5 316.438C2063.04 315.396 2060.79 314.875 2057.75 314.875H2055.25V307.312H2057.16C2059.91 307.312 2062.05 306.865 2063.59 305.969C2065.16 305.073 2065.94 303.708 2065.94 301.875C2065.94 301.083 2065.76 300.375 2065.41 299.75C2065.05 299.104 2064.56 298.562 2063.94 298.125C2063.33 297.688 2062.6 297.354 2061.75 297.125C2060.92 296.875 2060.01 296.75 2059.03 296.75C2057.91 296.75 2056.88 296.906 2055.94 297.219C2055.02 297.531 2054.2 297.958 2053.47 298.5C2052.74 299.042 2052.1 299.677 2051.56 300.406C2051.04 301.135 2050.62 301.906 2050.31 302.719L2042.31 299.5C2042.79 297.75 2043.58 296.198 2044.69 294.844C2045.79 293.49 2047.08 292.354 2048.56 291.438C2050.06 290.5 2051.71 289.792 2053.5 289.312C2055.29 288.812 2057.11 288.562 2058.97 288.562C2061.28 288.562 2063.43 288.844 2065.41 289.406C2067.39 289.969 2069.1 290.792 2070.56 291.875C2072.04 292.938 2073.2 294.25 2074.03 295.812C2074.86 297.375 2075.28 299.156 2075.28 301.156C2075.28 302.344 2075.08 303.458 2074.69 304.5C2074.31 305.521 2073.79 306.448 2073.12 307.281C2072.48 308.094 2071.71 308.792 2070.81 309.375C2069.92 309.958 2068.96 310.406 2067.94 310.719C2069.08 310.969 2070.16 311.385 2071.16 311.969C2072.16 312.552 2073.03 313.281 2073.78 314.156C2074.53 315.031 2075.11 316.042 2075.53 317.188C2075.97 318.333 2076.19 319.583 2076.19 320.938C2076.19 323 2075.74 324.875 2074.84 326.562C2073.97 328.25 2072.76 329.688 2071.22 330.875C2069.68 332.062 2067.85 332.99 2065.75 333.656C2063.67 334.302 2061.41 334.625 2058.97 334.625C2056.82 334.625 2054.76 334.354 2052.78 333.812C2050.8 333.25 2049.02 332.458 2047.44 331.438C2045.85 330.396 2044.52 329.135 2043.44 327.656C2042.35 326.156 2041.62 324.469 2041.25 322.594L2049.88 320.312Z" fill="white"/>
<path d="M2014 312L2017 312L2017 306L2014 306L2014 312ZM1893.88 306.879C1892.71 308.05 1892.71 309.95 1893.88 311.121L1912.97 330.213C1914.14 331.385 1916.04 331.385 1917.21 330.213C1918.38 329.042 1918.38 327.142 1917.21 325.971L1900.24 309L1917.21 292.029C1918.38 290.858 1918.38 288.958 1917.21 287.787C1916.04 286.615 1914.14 286.615 1912.97 287.787L1893.88 306.879ZM2014 306L1896 306L1896 312L2014 312L2014 306Z" fill="#0B0C0C"/>
<path d="M2104 306L2101 306L2101 312L2104 312L2104 306ZM2104 312L2294 312L2294 306L2104 306L2104 312Z" fill="#0B0C0C"/>
</g>
</g>
<defs>
<clipPath id="clip0_16518_63512">
<rect width="3052" height="400" fill="white"/>
</clipPath>
<clipPath id="clip1_16518_63512">
<rect width="3052" height="400" fill="white"/>
</clipPath>
</defs>
</svg>
