<svg width="2424" height="400" viewBox="0 0 2424 400" fill="none" xmlns="http://www.w3.org/2000/svg">
<line x1="1706" y1="136" x2="1795" y2="136" stroke="#0B0C0C" stroke-width="4" stroke-linecap="square" stroke-linejoin="round"/>
<line x1="1795" y1="136" x2="1798" y2="136" stroke="#0B0C0C" stroke-width="4" stroke-linecap="round" stroke-linejoin="round"/>
<path d="M1789.72 144.464C1788.87 145.171 1788.76 146.432 1789.46 147.28C1790.17 148.129 1791.43 148.244 1792.28 147.536L1789.72 144.464ZM1792.28 124.464C1791.43 123.756 1790.17 123.871 1789.46 124.72C1788.76 125.568 1788.87 126.829 1789.72 127.536L1792.28 124.464ZM1789.72 127.536L1799.88 136L1802.44 132.927L1792.28 124.464L1789.72 127.536ZM1799.88 136L1789.72 144.464L1792.28 147.536L1802.44 139.073L1799.88 136ZM1799.88 136L1799.88 136L1802.44 139.073C1804.36 137.474 1804.36 134.526 1802.44 132.927L1799.88 136Z" fill="#0B0C0C"/>
<line x1="1514" y1="138" x2="1630" y2="138" stroke="#0B0C0C" stroke-width="4" stroke-linecap="square" stroke-linejoin="round"/>
<rect width="72" height="72" transform="translate(1632 100)" fill="#0B0C0C"/>
<path d="M1667.39 126.203C1666.47 126.203 1665.66 126.352 1664.98 126.648C1664.29 126.945 1663.72 127.359 1663.27 127.891C1662.81 128.422 1662.48 129.047 1662.26 129.766C1662.04 130.469 1661.93 131.234 1661.93 132.062L1654.97 131.43C1654.98 129.586 1655.31 127.953 1655.95 126.531C1656.59 125.094 1657.47 123.891 1658.58 122.922C1659.69 121.938 1660.99 121.195 1662.49 120.695C1664.01 120.18 1665.66 119.922 1667.44 119.922C1669.3 119.922 1670.99 120.203 1672.52 120.766C1674.07 121.312 1675.39 122.086 1676.48 123.086C1677.58 124.086 1678.42 125.289 1679.02 126.695C1679.62 128.086 1679.93 129.617 1679.93 131.289C1679.93 133.117 1679.56 134.828 1678.83 136.422C1678.11 138 1677.15 139.469 1675.95 140.828C1674.74 142.172 1673.36 143.406 1671.8 144.531C1670.23 145.641 1668.62 146.641 1666.97 147.531L1666.34 147.859H1680.35V154H1655.84V147.906C1657.1 147.219 1658.39 146.484 1659.7 145.703C1661.03 144.922 1662.31 144.109 1663.55 143.266C1664.8 142.406 1665.98 141.516 1667.09 140.594C1668.2 139.672 1669.16 138.719 1669.97 137.734C1670.8 136.734 1671.45 135.711 1671.94 134.664C1672.42 133.602 1672.66 132.508 1672.66 131.383C1672.66 130.742 1672.55 130.109 1672.34 129.484C1672.12 128.859 1671.79 128.305 1671.35 127.82C1670.93 127.336 1670.38 126.945 1669.71 126.648C1669.05 126.352 1668.28 126.203 1667.39 126.203Z" fill="white"/>
<line x1="2" y1="-2" x2="91" y2="-2" transform="matrix(-1 0 0 1 1652 310)" stroke="#0B0C0C" stroke-width="4" stroke-linecap="square" stroke-linejoin="round"/>
<line x1="2" y1="-2" x2="5" y2="-2" transform="matrix(-1 0 0 1 1563 310)" stroke="#0B0C0C" stroke-width="4" stroke-linecap="round" stroke-linejoin="round"/>
<path d="M1566.28 316.464C1567.13 317.171 1567.24 318.432 1566.54 319.28C1565.83 320.129 1564.57 320.244 1563.72 319.536L1566.28 316.464ZM1563.72 296.464C1564.57 295.756 1565.83 295.871 1566.54 296.72C1567.24 297.568 1567.13 298.829 1566.28 299.536L1563.72 296.464ZM1566.28 299.536L1556.12 308L1553.56 304.927L1563.72 296.464L1566.28 299.536ZM1556.12 308L1566.28 316.464L1563.72 319.536L1553.56 311.073L1556.12 308ZM1556.12 308L1556.12 308L1553.56 311.073C1551.64 309.474 1551.64 306.526 1553.56 304.927L1556.12 308Z" fill="#0B0C0C"/>
<line x1="1706" y1="310" x2="1822" y2="310" stroke="#0B0C0C" stroke-width="4" stroke-linecap="square" stroke-linejoin="round"/>
<rect width="72" height="72" transform="translate(1632 272)" fill="#0B0C0C"/>
<path d="M1661.16 315.734C1661.41 316.531 1661.76 317.227 1662.21 317.82C1662.66 318.398 1663.19 318.883 1663.78 319.273C1664.39 319.648 1665.05 319.93 1665.75 320.117C1666.47 320.289 1667.21 320.375 1667.98 320.375C1669.04 320.375 1669.94 320.25 1670.67 320C1671.42 319.734 1672.02 319.398 1672.48 318.992C1672.95 318.57 1673.28 318.102 1673.48 317.586C1673.69 317.055 1673.79 316.516 1673.79 315.969C1673.79 314.641 1673.23 313.594 1672.12 312.828C1671.03 312.047 1669.34 311.656 1667.06 311.656H1665.19V305.984H1666.62C1668.68 305.984 1670.29 305.648 1671.45 304.977C1672.62 304.305 1673.2 303.281 1673.2 301.906C1673.2 301.312 1673.07 300.781 1672.8 300.312C1672.54 299.828 1672.17 299.422 1671.7 299.094C1671.25 298.766 1670.7 298.516 1670.06 298.344C1669.44 298.156 1668.76 298.062 1668.02 298.062C1667.18 298.062 1666.41 298.18 1665.7 298.414C1665.02 298.648 1664.4 298.969 1663.85 299.375C1663.3 299.781 1662.83 300.258 1662.42 300.805C1662.03 301.352 1661.72 301.93 1661.48 302.539L1655.48 300.125C1655.84 298.812 1656.44 297.648 1657.27 296.633C1658.09 295.617 1659.06 294.766 1660.17 294.078C1661.3 293.375 1662.53 292.844 1663.88 292.484C1665.22 292.109 1666.59 291.922 1667.98 291.922C1669.71 291.922 1671.32 292.133 1672.8 292.555C1674.29 292.977 1675.58 293.594 1676.67 294.406C1677.78 295.203 1678.65 296.188 1679.27 297.359C1679.9 298.531 1680.21 299.867 1680.21 301.367C1680.21 302.258 1680.06 303.094 1679.77 303.875C1679.48 304.641 1679.09 305.336 1678.59 305.961C1678.11 306.57 1677.53 307.094 1676.86 307.531C1676.19 307.969 1675.47 308.305 1674.7 308.539C1675.56 308.727 1676.37 309.039 1677.12 309.477C1677.87 309.914 1678.52 310.461 1679.09 311.117C1679.65 311.773 1680.09 312.531 1680.4 313.391C1680.73 314.25 1680.89 315.188 1680.89 316.203C1680.89 317.75 1680.55 319.156 1679.88 320.422C1679.23 321.688 1678.32 322.766 1677.16 323.656C1676.01 324.547 1674.64 325.242 1673.06 325.742C1671.5 326.227 1669.8 326.469 1667.98 326.469C1666.37 326.469 1664.82 326.266 1663.34 325.859C1661.85 325.438 1660.52 324.844 1659.33 324.078C1658.14 323.297 1657.14 322.352 1656.33 321.242C1655.52 320.117 1654.97 318.852 1654.69 317.445L1661.16 315.734Z" fill="white"/>
<line x1="794" y1="136" x2="883" y2="136" stroke="#0B0C0C" stroke-width="4" stroke-linecap="square" stroke-linejoin="round"/>
<line x1="883" y1="136" x2="886" y2="136" stroke="#0B0C0C" stroke-width="4" stroke-linecap="round" stroke-linejoin="round"/>
<path d="M877.72 144.464C876.871 145.171 876.756 146.432 877.464 147.28C878.171 148.129 879.432 148.244 880.28 147.536L877.72 144.464ZM880.28 124.464C879.432 123.756 878.171 123.871 877.464 124.72C876.756 125.568 876.871 126.829 877.72 127.536L880.28 124.464ZM877.72 127.536L887.876 136L890.437 132.927L880.28 124.464L877.72 127.536ZM887.876 136L877.72 144.464L880.28 147.536L890.437 139.073L887.876 136ZM887.876 136L887.876 136L890.437 139.073C892.356 137.474 892.356 134.526 890.437 132.927L887.876 136Z" fill="#0B0C0C"/>
<line x1="602" y1="138" x2="718" y2="138" stroke="#0B0C0C" stroke-width="4" stroke-linecap="square" stroke-linejoin="round"/>
<rect width="72" height="72" transform="translate(720 100)" fill="#0B0C0C"/>
<path d="M761.391 120.391V154H754.43V131.781H748.336V125.641H749.836C750.836 125.641 751.648 125.555 752.273 125.383C752.914 125.195 753.414 124.914 753.773 124.539C754.133 124.164 754.375 123.688 754.5 123.109C754.625 122.516 754.688 121.805 754.688 120.977V120.391H761.391Z" fill="white"/>
<g clip-path="url(#clip0_11221_41479)">
<line x1="2" y1="-2" x2="91" y2="-2" transform="matrix(-1 0 0 1 740 310)" stroke="#0B0C0C" stroke-width="4" stroke-linecap="square" stroke-linejoin="round"/>
</g>
<line x1="2" y1="-2" x2="5" y2="-2" transform="matrix(-1 0 0 1 651 310)" stroke="#0B0C0C" stroke-width="4" stroke-linecap="round" stroke-linejoin="round"/>
<path d="M654.28 316.464C655.129 317.171 655.244 318.432 654.536 319.28C653.829 320.129 652.568 320.244 651.72 319.536L654.28 316.464ZM651.72 296.464C652.568 295.756 653.829 295.871 654.536 296.72C655.244 297.568 655.129 298.829 654.28 299.536L651.72 296.464ZM654.28 299.536L644.124 308L641.563 304.927L651.72 296.464L654.28 299.536ZM644.124 308L654.28 316.464L651.72 319.536L641.563 311.073L644.124 308ZM644.124 308L644.124 308L641.563 311.073C639.644 309.474 639.644 306.526 641.563 304.927L644.124 308Z" fill="#0B0C0C"/>
<line x1="794" y1="310" x2="910" y2="310" stroke="#0B0C0C" stroke-width="4" stroke-linecap="square" stroke-linejoin="round"/>
<rect width="72" height="72" transform="translate(720 272)" fill="#0B0C0C"/>
<path d="M758.484 326V318.406H741.727V311.164L756.609 292.391H765.305V312.266H770.203V318.406H765.305V326H758.484ZM758.484 312.266V299.07L748.031 312.266H758.484Z" fill="white"/>
<rect x="2.5" y="2.5" width="595" height="395" fill="white"/>
<path d="M176.695 180.391L183.516 193.352H183.609L190.57 180.391H198.188L186.961 200.312V214H180.094V200.312L168.867 180.391H176.695ZM208.289 188.406C210.148 188.406 211.836 188.742 213.352 189.414C214.867 190.07 216.164 190.984 217.242 192.156C218.32 193.328 219.148 194.711 219.727 196.305C220.32 197.898 220.617 199.617 220.617 201.461C220.617 203.32 220.32 205.047 219.727 206.641C219.133 208.219 218.297 209.586 217.219 210.742C216.141 211.898 214.844 212.812 213.328 213.484C211.812 214.141 210.133 214.469 208.289 214.469C206.43 214.469 204.742 214.141 203.227 213.484C201.711 212.812 200.414 211.898 199.336 210.742C198.258 209.586 197.422 208.219 196.828 206.641C196.234 205.047 195.938 203.32 195.938 201.461C195.938 199.617 196.227 197.898 196.805 196.305C197.398 194.711 198.234 193.328 199.312 192.156C200.391 190.984 201.688 190.07 203.203 189.414C204.734 188.742 206.43 188.406 208.289 188.406ZM208.289 208.469C209.211 208.469 210.023 208.297 210.727 207.953C211.445 207.609 212.047 207.133 212.531 206.523C213.016 205.914 213.383 205.188 213.633 204.344C213.883 203.484 214.008 202.547 214.008 201.531V201.367C214.008 200.352 213.883 199.422 213.633 198.578C213.383 197.719 213.016 196.984 212.531 196.375C212.047 195.75 211.445 195.266 210.727 194.922C210.023 194.578 209.211 194.406 208.289 194.406C207.367 194.406 206.547 194.578 205.828 194.922C205.125 195.266 204.531 195.75 204.047 196.375C203.562 196.984 203.195 197.719 202.945 198.578C202.695 199.422 202.57 200.352 202.57 201.367V201.531C202.57 202.547 202.695 203.484 202.945 204.344C203.195 205.188 203.562 205.914 204.047 206.523C204.531 207.133 205.125 207.609 205.828 207.953C206.547 208.297 207.367 208.469 208.289 208.469ZM246.258 214H239.789V211.844C239.43 212.188 239.039 212.523 238.617 212.852C238.195 213.164 237.727 213.445 237.211 213.695C236.695 213.93 236.117 214.117 235.477 214.258C234.852 214.398 234.156 214.469 233.391 214.469C232.031 214.469 230.812 214.25 229.734 213.812C228.656 213.359 227.742 212.75 226.992 211.984C226.258 211.203 225.695 210.289 225.305 209.242C224.914 208.195 224.719 207.062 224.719 205.844V188.898H231.188V203.477C231.188 204.367 231.281 205.125 231.469 205.75C231.672 206.375 231.945 206.883 232.289 207.273C232.648 207.648 233.07 207.93 233.555 208.117C234.039 208.289 234.562 208.375 235.125 208.375C235.781 208.375 236.391 208.258 236.953 208.023C237.531 207.789 238.031 207.438 238.453 206.969C238.875 206.484 239.203 205.883 239.438 205.164C239.672 204.445 239.789 203.602 239.789 202.633V188.898H246.258V214ZM265.969 195.18H265.289C264.367 195.18 263.484 195.273 262.641 195.461C261.812 195.648 261.078 195.992 260.438 196.492C259.797 196.977 259.281 197.648 258.891 198.508C258.516 199.367 258.328 200.469 258.328 201.812V214H251.859V188.898H258.328V191.734C258.594 191.312 258.938 190.906 259.359 190.516C259.781 190.125 260.273 189.781 260.836 189.484C261.398 189.172 262.031 188.922 262.734 188.734C263.438 188.547 264.195 188.453 265.008 188.453H265.969V195.18ZM279.422 205.984C280.344 206.812 281.445 207.523 282.727 208.117C284.008 208.711 285.305 209.008 286.617 209.008C287.57 209.008 288.32 208.828 288.867 208.469C289.414 208.094 289.688 207.617 289.688 207.039C289.688 206.055 288.633 205.289 286.523 204.742L284.695 204.25C283.789 204.031 282.875 203.734 281.953 203.359C281.031 202.969 280.18 202.461 279.398 201.836C278.633 201.211 278.008 200.453 277.523 199.562C277.055 198.656 276.82 197.547 276.82 196.234C276.82 195.188 277.047 194.195 277.5 193.258C277.969 192.305 278.625 191.469 279.469 190.75C280.328 190.031 281.367 189.461 282.586 189.039C283.805 188.617 285.164 188.406 286.664 188.406C288.805 188.406 290.711 188.742 292.383 189.414C294.07 190.086 295.398 190.844 296.367 191.688L292.992 196C292.195 195.422 291.25 194.93 290.156 194.523C289.078 194.102 287.992 193.891 286.898 193.891C285.883 193.891 285.094 194.078 284.531 194.453C283.969 194.812 283.688 195.25 283.688 195.766C283.688 196.312 283.93 196.758 284.414 197.102C284.914 197.43 285.633 197.719 286.57 197.969L289.289 198.742C291.883 199.477 293.742 200.469 294.867 201.719C295.992 202.969 296.555 204.547 296.555 206.453C296.555 207.516 296.336 208.531 295.898 209.5C295.461 210.453 294.82 211.305 293.977 212.055C293.133 212.805 292.086 213.398 290.836 213.836C289.586 214.258 288.164 214.469 286.57 214.469C285.352 214.469 284.203 214.359 283.125 214.141C282.062 213.922 281.07 213.625 280.148 213.25C279.242 212.859 278.422 212.422 277.688 211.938C276.953 211.453 276.328 210.969 275.812 210.484L279.422 205.984ZM306.164 203.688C306.273 204.438 306.508 205.125 306.867 205.75C307.242 206.375 307.711 206.914 308.273 207.367C308.836 207.805 309.484 208.148 310.219 208.398C310.953 208.648 311.734 208.773 312.562 208.773C313.516 208.773 314.547 208.594 315.656 208.234C316.766 207.859 317.781 207.32 318.703 206.617L321.82 211.164C320.648 212.148 319.211 212.945 317.508 213.555C315.805 214.164 313.992 214.469 312.07 214.469C310.336 214.469 308.703 214.172 307.172 213.578C305.641 212.984 304.297 212.125 303.141 211C302 209.875 301.094 208.508 300.422 206.898C299.766 205.289 299.438 203.477 299.438 201.461C299.438 199.617 299.727 197.898 300.305 196.305C300.898 194.711 301.719 193.328 302.766 192.156C303.828 190.984 305.094 190.07 306.562 189.414C308.031 188.742 309.656 188.406 311.438 188.406C313.094 188.406 314.633 188.711 316.055 189.32C317.477 189.914 318.711 190.758 319.758 191.852C320.805 192.93 321.625 194.227 322.219 195.742C322.812 197.258 323.109 198.93 323.109 200.758V203.688H306.164ZM311.414 194.031C310.023 194.031 308.844 194.5 307.875 195.438C306.922 196.359 306.367 197.477 306.211 198.789H316.336C316.305 197.461 315.82 196.336 314.883 195.414C313.945 194.492 312.789 194.031 311.414 194.031ZM341.344 195.18H340.664C339.742 195.18 338.859 195.273 338.016 195.461C337.188 195.648 336.453 195.992 335.812 196.492C335.172 196.977 334.656 197.648 334.266 198.508C333.891 199.367 333.703 200.469 333.703 201.812V214H327.234V188.898H333.703V191.734C333.969 191.312 334.312 190.906 334.734 190.516C335.156 190.125 335.648 189.781 336.211 189.484C336.773 189.172 337.406 188.922 338.109 188.734C338.812 188.547 339.57 188.453 340.383 188.453H341.344V195.18ZM350.695 214L343.008 188.898H350.227L354.727 206.172L359.344 188.898H366.445L358.805 214H350.695ZM376.125 214H369.656V188.898H376.125V214ZM368.977 182.312C368.977 181.781 369.078 181.281 369.281 180.812C369.484 180.328 369.758 179.914 370.102 179.57C370.461 179.211 370.875 178.93 371.344 178.727C371.812 178.523 372.32 178.422 372.867 178.422C373.398 178.422 373.898 178.523 374.367 178.727C374.852 178.93 375.266 179.211 375.609 179.57C375.969 179.914 376.25 180.328 376.453 180.812C376.656 181.281 376.758 181.781 376.758 182.312C376.758 182.859 376.656 183.367 376.453 183.836C376.25 184.305 375.969 184.719 375.609 185.078C375.266 185.422 374.852 185.695 374.367 185.898C373.898 186.102 373.398 186.203 372.867 186.203C372.32 186.203 371.812 186.102 371.344 185.898C370.875 185.695 370.461 185.422 370.102 185.078C369.758 184.719 369.484 184.305 369.281 183.836C369.078 183.367 368.977 182.859 368.977 182.312ZM387.07 201.578C387.07 202.391 387.18 203.211 387.398 204.039C387.617 204.852 387.953 205.586 388.406 206.242C388.859 206.898 389.438 207.438 390.141 207.859C390.859 208.266 391.711 208.469 392.695 208.469C393.336 208.469 393.914 208.383 394.43 208.211C394.961 208.039 395.43 207.805 395.836 207.508C396.258 207.195 396.625 206.836 396.938 206.43C397.266 206.008 397.547 205.555 397.781 205.07L403.453 208C403.047 208.984 402.484 209.875 401.766 210.672C401.062 211.469 400.242 212.148 399.305 212.711C398.367 213.273 397.328 213.703 396.188 214C395.047 214.312 393.836 214.469 392.555 214.469C390.789 214.469 389.164 214.141 387.68 213.484C386.195 212.812 384.914 211.898 383.836 210.742C382.758 209.586 381.914 208.219 381.305 206.641C380.695 205.047 380.391 203.32 380.391 201.461C380.391 199.617 380.695 197.898 381.305 196.305C381.914 194.711 382.758 193.328 383.836 192.156C384.914 190.984 386.195 190.07 387.68 189.414C389.164 188.742 390.789 188.406 392.555 188.406C393.836 188.406 395.047 188.562 396.188 188.875C397.328 189.172 398.367 189.609 399.305 190.188C400.242 190.75 401.062 191.43 401.766 192.227C402.484 193.023 403.047 193.914 403.453 194.898L397.781 197.828C397.547 197.344 397.266 196.898 396.938 196.492C396.625 196.07 396.258 195.711 395.836 195.414C395.43 195.102 394.961 194.859 394.43 194.688C393.914 194.5 393.336 194.406 392.695 194.406C391.711 194.406 390.859 194.617 390.141 195.039C389.438 195.445 388.859 195.984 388.406 196.656C387.953 197.312 387.617 198.055 387.398 198.883C387.18 199.711 387.07 200.539 387.07 201.367V201.578ZM412.852 203.688C412.961 204.438 413.195 205.125 413.555 205.75C413.93 206.375 414.398 206.914 414.961 207.367C415.523 207.805 416.172 208.148 416.906 208.398C417.641 208.648 418.422 208.773 419.25 208.773C420.203 208.773 421.234 208.594 422.344 208.234C423.453 207.859 424.469 207.32 425.391 206.617L428.508 211.164C427.336 212.148 425.898 212.945 424.195 213.555C422.492 214.164 420.68 214.469 418.758 214.469C417.023 214.469 415.391 214.172 413.859 213.578C412.328 212.984 410.984 212.125 409.828 211C408.688 209.875 407.781 208.508 407.109 206.898C406.453 205.289 406.125 203.477 406.125 201.461C406.125 199.617 406.414 197.898 406.992 196.305C407.586 194.711 408.406 193.328 409.453 192.156C410.516 190.984 411.781 190.07 413.25 189.414C414.719 188.742 416.344 188.406 418.125 188.406C419.781 188.406 421.32 188.711 422.742 189.32C424.164 189.914 425.398 190.758 426.445 191.852C427.492 192.93 428.312 194.227 428.906 195.742C429.5 197.258 429.797 198.93 429.797 200.758V203.688H412.852ZM418.102 194.031C416.711 194.031 415.531 194.5 414.562 195.438C413.609 196.359 413.055 197.477 412.898 198.789H423.023C422.992 197.461 422.508 196.336 421.57 195.414C420.633 194.492 419.477 194.031 418.102 194.031Z" fill="#0B0C0C"/>
<rect x="2.5" y="2.5" width="595" height="395" stroke="#0B0C0C" stroke-width="5"/>
<rect x="914.5" y="2.5" width="595" height="395" fill="white"/>
<path d="M1055.44 168.289C1055.44 169.727 1055.62 171.109 1055.98 172.438C1056.34 173.766 1056.88 174.938 1057.62 175.953C1058.35 176.969 1059.29 177.789 1060.43 178.414C1061.57 179.023 1062.93 179.328 1064.51 179.328C1066.02 179.328 1067.28 179.086 1068.28 178.602C1069.3 178.117 1070.1 177.516 1070.7 176.797C1071.3 176.062 1071.73 175.273 1071.96 174.43C1072.21 173.586 1072.34 172.805 1072.34 172.086V171.758H1063.73V166.578H1078.95V185H1072.99V181.062C1072.57 181.719 1072.05 182.32 1071.42 182.867C1070.8 183.398 1070.09 183.859 1069.31 184.25C1068.53 184.625 1067.67 184.922 1066.73 185.141C1065.81 185.359 1064.83 185.469 1063.78 185.469C1061.33 185.469 1059.15 185.023 1057.24 184.133C1055.34 183.242 1053.73 182.016 1052.41 180.453C1051.12 178.891 1050.12 177.062 1049.44 174.969C1048.77 172.875 1048.43 170.617 1048.43 168.195C1048.43 165.789 1048.8 163.539 1049.55 161.445C1050.32 159.336 1051.4 157.508 1052.79 155.961C1054.2 154.398 1055.88 153.172 1057.85 152.281C1059.84 151.375 1062.05 150.922 1064.51 150.922C1066.1 150.922 1067.61 151.109 1069.03 151.484C1070.47 151.844 1071.77 152.367 1072.95 153.055C1074.13 153.727 1075.18 154.547 1076.09 155.516C1076.99 156.469 1077.73 157.531 1078.29 158.703L1072.34 162.055C1071.98 161.336 1071.55 160.672 1071.07 160.062C1070.59 159.438 1070.02 158.906 1069.38 158.469C1068.76 158.016 1068.04 157.664 1067.23 157.414C1066.41 157.148 1065.51 157.016 1064.51 157.016C1062.93 157.016 1061.57 157.328 1060.43 157.953C1059.29 158.562 1058.35 159.375 1057.62 160.391C1056.88 161.406 1056.34 162.586 1055.98 163.93C1055.62 165.258 1055.44 166.633 1055.44 168.055V168.289ZM1099.29 150.922C1101.79 150.922 1104.03 151.375 1106.02 152.281C1108 153.172 1109.68 154.398 1111.05 155.961C1112.45 157.508 1113.5 159.336 1114.22 161.445C1114.95 163.539 1115.32 165.789 1115.32 168.195C1115.32 170.617 1114.95 172.875 1114.22 174.969C1113.5 177.062 1112.45 178.891 1111.05 180.453C1109.68 182.016 1108 183.242 1106.02 184.133C1104.03 185.023 1101.79 185.469 1099.29 185.469C1096.77 185.469 1094.52 185.023 1092.54 184.133C1090.57 183.242 1088.89 182.016 1087.5 180.453C1086.12 178.891 1085.07 177.062 1084.34 174.969C1083.62 172.875 1083.26 170.617 1083.26 168.195C1083.26 165.789 1083.62 163.539 1084.34 161.445C1085.07 159.336 1086.12 157.508 1087.5 155.961C1088.89 154.398 1090.57 153.172 1092.54 152.281C1094.52 151.375 1096.77 150.922 1099.29 150.922ZM1099.29 179.328C1100.76 179.328 1102.05 179.055 1103.16 178.508C1104.28 177.945 1105.23 177.172 1105.99 176.188C1106.76 175.203 1107.34 174.039 1107.73 172.695C1108.12 171.352 1108.31 169.883 1108.31 168.289V168.102C1108.31 166.523 1108.12 165.062 1107.73 163.719C1107.34 162.359 1106.76 161.188 1105.99 160.203C1105.23 159.219 1104.28 158.453 1103.16 157.906C1102.05 157.344 1100.76 157.062 1099.29 157.062C1097.82 157.062 1096.52 157.344 1095.4 157.906C1094.27 158.453 1093.33 159.219 1092.56 160.203C1091.81 161.188 1091.24 162.359 1090.85 163.719C1090.46 165.062 1090.27 166.523 1090.27 168.102V168.289C1090.27 169.883 1090.46 171.352 1090.85 172.695C1091.24 174.039 1091.81 175.203 1092.56 176.188C1093.33 177.172 1094.27 177.945 1095.4 178.508C1096.52 179.055 1097.82 179.328 1099.29 179.328ZM1127.41 185L1117.92 151.391H1125.54L1132.03 176.656H1132.27L1138.62 151.391H1146.14L1136.65 185H1127.41ZM1147.1 181.203C1147.1 180.625 1147.21 180.086 1147.43 179.586C1147.66 179.07 1147.98 178.625 1148.37 178.25C1148.76 177.859 1149.21 177.555 1149.73 177.336C1150.26 177.102 1150.81 176.984 1151.39 176.984C1151.97 176.984 1152.52 177.102 1153.03 177.336C1153.55 177.555 1154 177.859 1154.39 178.25C1154.78 178.625 1155.09 179.07 1155.3 179.586C1155.54 180.086 1155.66 180.625 1155.66 181.203C1155.66 181.797 1155.54 182.352 1155.3 182.867C1155.09 183.383 1154.78 183.836 1154.39 184.227C1154 184.617 1153.55 184.922 1153.03 185.141C1152.52 185.359 1151.97 185.469 1151.39 185.469C1150.81 185.469 1150.26 185.359 1149.73 185.141C1149.21 184.922 1148.76 184.617 1148.37 184.227C1147.98 183.836 1147.66 183.383 1147.43 182.867C1147.21 182.352 1147.1 181.797 1147.1 181.203ZM1174.78 179.328C1175.77 179.328 1176.68 179.188 1177.52 178.906C1178.38 178.609 1179.12 178.172 1179.73 177.594C1180.35 177 1180.84 176.258 1181.2 175.367C1181.56 174.461 1181.74 173.398 1181.74 172.18V151.344H1188.45V173.188C1188.45 175.062 1188.1 176.758 1187.41 178.273C1186.74 179.789 1185.8 181.078 1184.58 182.141C1183.38 183.203 1181.94 184.023 1180.27 184.602C1178.59 185.18 1176.77 185.469 1174.78 185.469C1172.8 185.469 1170.97 185.18 1169.3 184.602C1167.62 184.023 1166.18 183.203 1164.96 182.141C1163.74 181.078 1162.79 179.789 1162.1 178.273C1161.43 176.758 1161.09 175.062 1161.09 173.188V151.344H1167.82V172.18C1167.82 173.398 1168 174.461 1168.36 175.367C1168.72 176.258 1169.2 177 1169.81 177.594C1170.44 178.172 1171.17 178.609 1172.02 178.906C1172.88 179.188 1173.8 179.328 1174.78 179.328ZM1195.1 151.391H1201.9V165.945L1213.9 151.391H1222.27L1210.59 164.75L1223.02 185H1215.12L1206.23 169.93L1201.9 174.781V185H1195.1V151.391ZM1237.34 175.555C1237.77 176.055 1238.3 176.547 1238.93 177.031C1239.55 177.516 1240.24 177.953 1240.99 178.344C1241.76 178.719 1242.59 179.023 1243.48 179.258C1244.37 179.477 1245.33 179.586 1246.36 179.586C1248.28 179.586 1249.75 179.188 1250.77 178.391C1251.8 177.578 1252.31 176.594 1252.31 175.438C1252.31 174.234 1251.86 173.32 1250.95 172.695C1250.06 172.07 1248.64 171.578 1246.69 171.219L1245.63 171.031C1244.23 170.781 1242.83 170.453 1241.44 170.047C1240.05 169.641 1238.79 169.055 1237.66 168.289C1236.54 167.523 1235.62 166.547 1234.92 165.359C1234.22 164.156 1233.87 162.641 1233.87 160.812C1233.87 159.75 1234.1 158.641 1234.57 157.484C1235.04 156.312 1235.78 155.242 1236.8 154.273C1237.83 153.289 1239.15 152.484 1240.76 151.859C1242.38 151.234 1244.34 150.922 1246.64 150.922C1249.36 150.922 1251.78 151.375 1253.91 152.281C1256.05 153.172 1257.77 154.352 1259.09 155.82L1254.56 160.039C1253.64 159.023 1252.45 158.227 1251 157.648C1249.56 157.07 1248.08 156.781 1246.55 156.781C1244.78 156.781 1243.4 157.117 1242.4 157.789C1241.41 158.461 1240.92 159.336 1240.92 160.414C1240.92 161.117 1241.08 161.703 1241.39 162.172C1241.72 162.641 1242.17 163.031 1242.75 163.344C1243.33 163.641 1244.02 163.891 1244.84 164.094C1245.65 164.297 1246.55 164.5 1247.55 164.703L1248.09 164.797C1249.44 165.047 1250.77 165.367 1252.1 165.758C1253.43 166.133 1254.63 166.695 1255.71 167.445C1256.8 168.18 1257.69 169.148 1258.36 170.352C1259.03 171.539 1259.37 173.062 1259.37 174.922C1259.37 176.609 1259.02 178.102 1258.31 179.398C1257.61 180.695 1256.68 181.805 1255.52 182.727C1254.37 183.633 1253.03 184.32 1251.52 184.789C1250 185.242 1248.42 185.469 1246.78 185.469C1245.12 185.469 1243.59 185.328 1242.16 185.047C1240.76 184.766 1239.48 184.367 1238.32 183.852C1237.18 183.336 1236.16 182.758 1235.25 182.117C1234.36 181.477 1233.58 180.789 1232.91 180.055L1237.34 175.555ZM1270.88 185H1264.41V159.898H1270.88V185ZM1263.73 153.312C1263.73 152.781 1263.83 152.281 1264.03 151.812C1264.23 151.328 1264.51 150.914 1264.85 150.57C1265.21 150.211 1265.62 149.93 1266.09 149.727C1266.56 149.523 1267.07 149.422 1267.62 149.422C1268.15 149.422 1268.65 149.523 1269.12 149.727C1269.6 149.93 1270.02 150.211 1270.36 150.57C1270.72 150.914 1271 151.328 1271.2 151.812C1271.41 152.281 1271.51 152.781 1271.51 153.312C1271.51 153.859 1271.41 154.367 1271.2 154.836C1271 155.305 1270.72 155.719 1270.36 156.078C1270.02 156.422 1269.6 156.695 1269.12 156.898C1268.65 157.102 1268.15 157.203 1267.62 157.203C1267.07 157.203 1266.56 157.102 1266.09 156.898C1265.62 156.695 1265.21 156.422 1264.85 156.078C1264.51 155.719 1264.23 155.305 1264.03 154.836C1263.83 154.367 1263.73 153.859 1263.73 153.312ZM1291.71 180.547C1291.13 181.25 1290.32 181.812 1289.27 182.234C1288.24 182.641 1287.12 182.844 1285.9 182.844C1284.21 182.844 1282.71 182.547 1281.4 181.953C1280.09 181.359 1278.98 180.547 1278.07 179.516C1277.18 178.469 1276.49 177.234 1276.01 175.812C1275.54 174.391 1275.3 172.828 1275.3 171.125C1275.3 169.469 1275.54 167.922 1276.01 166.484C1276.49 165.031 1277.18 163.789 1278.07 162.758C1278.98 161.711 1280.09 160.891 1281.4 160.297C1282.71 159.703 1284.21 159.406 1285.9 159.406C1287.12 159.406 1288.24 159.617 1289.27 160.039C1290.32 160.461 1291.13 161.023 1291.71 161.727V159.898H1298.2V184.766C1298.2 186.297 1297.91 187.609 1297.34 188.703C1296.76 189.812 1295.96 190.719 1294.95 191.422C1293.95 192.125 1292.78 192.633 1291.45 192.945C1290.12 193.273 1288.71 193.438 1287.21 193.438C1285.38 193.438 1283.48 193.219 1281.49 192.781C1279.51 192.359 1277.8 191.828 1276.36 191.188L1278.19 185.961C1278.62 186.148 1279.16 186.352 1279.8 186.57C1280.45 186.805 1281.13 187.008 1281.87 187.18C1282.6 187.352 1283.37 187.492 1284.16 187.602C1284.98 187.727 1285.77 187.789 1286.53 187.789C1287.2 187.789 1287.85 187.719 1288.48 187.578C1289.1 187.453 1289.65 187.234 1290.12 186.922C1290.6 186.625 1290.98 186.227 1291.27 185.727C1291.56 185.242 1291.71 184.617 1291.71 183.852V180.547ZM1281.96 171.219C1281.96 172.047 1282.05 172.828 1282.22 173.562C1282.41 174.281 1282.7 174.898 1283.09 175.414C1283.49 175.914 1284.01 176.312 1284.63 176.609C1285.26 176.891 1286.02 177.031 1286.91 177.031C1288.67 177.031 1289.93 176.477 1290.68 175.367C1291.43 174.242 1291.8 172.859 1291.8 171.219V171.031C1291.8 170.203 1291.72 169.43 1291.55 168.711C1291.38 167.992 1291.09 167.375 1290.7 166.859C1290.31 166.344 1289.8 165.945 1289.18 165.664C1288.57 165.367 1287.81 165.219 1286.91 165.219C1285.16 165.219 1283.89 165.773 1283.11 166.883C1282.34 167.992 1281.96 169.375 1281.96 171.031V171.219ZM1303.78 159.898H1310.25V162.055C1310.59 161.711 1310.98 161.383 1311.4 161.07C1311.84 160.742 1312.31 160.461 1312.83 160.227C1313.34 159.977 1313.91 159.781 1314.54 159.641C1315.18 159.484 1315.88 159.406 1316.65 159.406C1318.01 159.406 1319.23 159.633 1320.3 160.086C1321.38 160.523 1322.29 161.133 1323.02 161.914C1323.77 162.695 1324.34 163.609 1324.73 164.656C1325.12 165.703 1325.32 166.836 1325.32 168.055V185H1318.85V170.398C1318.85 169.508 1318.75 168.758 1318.55 168.148C1318.34 167.523 1318.06 167.023 1317.7 166.648C1317.36 166.258 1316.95 165.977 1316.46 165.805C1315.99 165.617 1315.48 165.523 1314.91 165.523C1314.26 165.523 1313.64 165.641 1313.06 165.875C1312.5 166.109 1312.01 166.469 1311.59 166.953C1311.16 167.422 1310.84 168.016 1310.6 168.734C1310.37 169.453 1310.25 170.297 1310.25 171.266V185H1303.78V159.898ZM1340.13 151.391H1346.93V185H1340.13V151.391ZM1353.23 159.898H1359.7V162.055C1360.05 161.711 1360.43 161.383 1360.85 161.07C1361.29 160.742 1361.77 160.461 1362.28 160.227C1362.8 159.977 1363.37 159.781 1363.99 159.641C1364.63 159.484 1365.34 159.406 1366.1 159.406C1367.46 159.406 1368.68 159.633 1369.76 160.086C1370.84 160.523 1371.74 161.133 1372.48 161.914C1373.23 162.695 1373.8 163.609 1374.19 164.656C1374.58 165.703 1374.77 166.836 1374.77 168.055V185H1368.3V170.398C1368.3 169.508 1368.2 168.758 1368 168.148C1367.8 167.523 1367.52 167.023 1367.16 166.648C1366.81 166.258 1366.4 165.977 1365.91 165.805C1365.45 165.617 1364.93 165.523 1364.37 165.523C1363.71 165.523 1363.09 165.641 1362.52 165.875C1361.95 166.109 1361.46 166.469 1361.04 166.953C1360.62 167.422 1360.29 168.016 1360.05 168.734C1359.82 169.453 1359.7 170.297 1359.7 171.266V185H1353.23V159.898ZM1024.71 230.273C1024.71 232.32 1024.97 234.258 1025.48 236.086C1026.02 237.898 1026.73 239.594 1027.64 241.172C1028.55 242.75 1029.61 244.219 1030.83 245.578C1032.06 246.938 1033.38 248.188 1034.77 249.328L1030.71 253.359L1028.91 251.93C1027.12 250.477 1025.53 248.93 1024.12 247.289C1022.72 245.664 1021.52 243.945 1020.54 242.133C1019.57 240.32 1018.83 238.414 1018.31 236.414C1017.81 234.414 1017.56 232.32 1017.56 230.133C1017.56 227.93 1017.81 225.836 1018.31 223.852C1018.83 221.852 1019.57 219.953 1020.54 218.156C1021.52 216.344 1022.72 214.625 1024.12 213C1025.53 211.375 1027.12 209.836 1028.91 208.383L1030.71 206.906L1034.77 210.984C1033.38 212.109 1032.06 213.352 1030.83 214.711C1029.61 216.055 1028.55 217.523 1027.64 219.117C1026.73 220.695 1026.02 222.391 1025.48 224.203C1024.97 226.016 1024.71 227.945 1024.71 229.992V230.273ZM1051.48 208.922C1053.98 208.922 1056.22 209.375 1058.2 210.281C1060.19 211.172 1061.87 212.398 1063.24 213.961C1064.63 215.508 1065.69 217.336 1066.41 219.445C1067.14 221.539 1067.51 223.789 1067.51 226.195C1067.51 228.617 1067.14 230.875 1066.41 232.969C1065.69 235.062 1064.63 236.891 1063.24 238.453C1061.87 240.016 1060.19 241.242 1058.2 242.133C1056.22 243.023 1053.98 243.469 1051.48 243.469C1048.96 243.469 1046.71 243.023 1044.73 242.133C1042.76 241.242 1041.08 240.016 1039.69 238.453C1038.31 236.891 1037.26 235.062 1036.52 232.969C1035.8 230.875 1035.45 228.617 1035.45 226.195C1035.45 223.789 1035.8 221.539 1036.52 219.445C1037.26 217.336 1038.31 215.508 1039.69 213.961C1041.08 212.398 1042.76 211.172 1044.73 210.281C1046.71 209.375 1048.96 208.922 1051.48 208.922ZM1051.48 237.328C1052.95 237.328 1054.23 237.055 1055.34 236.508C1056.47 235.945 1057.41 235.172 1058.18 234.188C1058.95 233.203 1059.52 232.039 1059.91 230.695C1060.3 229.352 1060.5 227.883 1060.5 226.289V226.102C1060.5 224.523 1060.3 223.062 1059.91 221.719C1059.52 220.359 1058.95 219.188 1058.18 218.203C1057.41 217.219 1056.47 216.453 1055.34 215.906C1054.23 215.344 1052.95 215.062 1051.48 215.062C1050.01 215.062 1048.71 215.344 1047.59 215.906C1046.46 216.453 1045.52 217.219 1044.75 218.203C1044 219.188 1043.43 220.359 1043.04 221.719C1042.65 223.062 1042.45 224.523 1042.45 226.102V226.289C1042.45 227.883 1042.65 229.352 1043.04 230.695C1043.43 232.039 1044 233.203 1044.75 234.188C1045.52 235.172 1046.46 235.945 1047.59 236.508C1048.71 237.055 1050.01 237.328 1051.48 237.328ZM1078.55 250.922H1072.08V217.898H1078.55V220.055C1079.25 219.32 1080.12 218.695 1081.15 218.18C1082.18 217.664 1083.43 217.406 1084.9 217.406C1086.55 217.406 1088.05 217.742 1089.4 218.414C1090.76 219.07 1091.92 219.984 1092.89 221.156C1093.86 222.312 1094.61 223.688 1095.14 225.281C1095.67 226.875 1095.94 228.602 1095.94 230.461C1095.94 232.32 1095.66 234.047 1095.12 235.641C1094.57 237.234 1093.8 238.609 1092.82 239.766C1091.84 240.922 1090.66 241.828 1089.28 242.484C1087.91 243.141 1086.39 243.469 1084.73 243.469C1084 243.469 1083.33 243.398 1082.72 243.258C1082.12 243.133 1081.58 242.953 1081.08 242.719C1080.58 242.484 1080.12 242.211 1079.7 241.898C1079.27 241.57 1078.89 241.219 1078.55 240.844V250.922ZM1078.36 232.781C1078.36 233.453 1078.48 234.078 1078.71 234.656C1078.96 235.219 1079.31 235.711 1079.77 236.133C1080.22 236.555 1080.76 236.883 1081.38 237.117C1082.02 237.352 1082.74 237.469 1083.54 237.469C1084.46 237.469 1085.27 237.305 1085.98 236.977C1086.7 236.633 1087.3 236.156 1087.78 235.547C1088.27 234.938 1088.63 234.219 1088.88 233.391C1089.13 232.547 1089.26 231.625 1089.26 230.625V230.32C1089.26 229.32 1089.13 228.398 1088.88 227.555C1088.63 226.711 1088.27 225.984 1087.78 225.375C1087.3 224.75 1086.7 224.266 1085.98 223.922C1085.27 223.578 1084.46 223.406 1083.54 223.406C1082.74 223.406 1082.02 223.523 1081.38 223.758C1080.76 223.992 1080.22 224.32 1079.77 224.742C1079.31 225.164 1078.96 225.664 1078.71 226.242C1078.48 226.82 1078.36 227.445 1078.36 228.117V232.781ZM1105.66 232.688C1105.77 233.438 1106.01 234.125 1106.37 234.75C1106.74 235.375 1107.21 235.914 1107.77 236.367C1108.34 236.805 1108.98 237.148 1109.72 237.398C1110.45 237.648 1111.23 237.773 1112.06 237.773C1113.02 237.773 1114.05 237.594 1115.16 237.234C1116.27 236.859 1117.28 236.32 1118.2 235.617L1121.32 240.164C1120.15 241.148 1118.71 241.945 1117.01 242.555C1115.3 243.164 1113.49 243.469 1111.57 243.469C1109.84 243.469 1108.2 243.172 1106.67 242.578C1105.14 241.984 1103.8 241.125 1102.64 240C1101.5 238.875 1100.59 237.508 1099.92 235.898C1099.27 234.289 1098.94 232.477 1098.94 230.461C1098.94 228.617 1099.23 226.898 1099.8 225.305C1100.4 223.711 1101.22 222.328 1102.27 221.156C1103.33 219.984 1104.59 219.07 1106.06 218.414C1107.53 217.742 1109.16 217.406 1110.94 217.406C1112.59 217.406 1114.13 217.711 1115.55 218.32C1116.98 218.914 1118.21 219.758 1119.26 220.852C1120.3 221.93 1121.12 223.227 1121.72 224.742C1122.31 226.258 1122.61 227.93 1122.61 229.758V232.688H1105.66ZM1110.91 223.031C1109.52 223.031 1108.34 223.5 1107.38 224.438C1106.42 225.359 1105.87 226.477 1105.71 227.789H1115.84C1115.8 226.461 1115.32 225.336 1114.38 224.414C1113.45 223.492 1112.29 223.031 1110.91 223.031ZM1126.73 217.898H1133.2V220.055C1133.55 219.711 1133.93 219.383 1134.35 219.07C1134.79 218.742 1135.27 218.461 1135.78 218.227C1136.3 217.977 1136.87 217.781 1137.49 217.641C1138.13 217.484 1138.84 217.406 1139.6 217.406C1140.96 217.406 1142.18 217.633 1143.26 218.086C1144.34 218.523 1145.24 219.133 1145.98 219.914C1146.73 220.695 1147.3 221.609 1147.69 222.656C1148.08 223.703 1148.27 224.836 1148.27 226.055V243H1141.8V228.398C1141.8 227.508 1141.7 226.758 1141.5 226.148C1141.3 225.523 1141.02 225.023 1140.66 224.648C1140.31 224.258 1139.9 223.977 1139.41 223.805C1138.95 223.617 1138.43 223.523 1137.87 223.523C1137.21 223.523 1136.59 223.641 1136.02 223.875C1135.45 224.109 1134.96 224.469 1134.54 224.953C1134.12 225.422 1133.79 226.016 1133.55 226.734C1133.32 227.453 1133.2 228.297 1133.2 229.266V243H1126.73V217.898ZM1154.41 209.391H1161.21V243H1154.41V209.391ZM1196.88 226.195C1196.88 228.711 1196.54 231.008 1195.85 233.086C1195.18 235.148 1194.16 236.914 1192.8 238.383C1191.46 239.852 1189.77 240.992 1187.74 241.805C1185.71 242.602 1183.34 243 1180.62 243H1168.24V209.391H1180.62C1183.34 209.391 1185.71 209.797 1187.74 210.609C1189.77 211.406 1191.46 212.539 1192.8 214.008C1194.16 215.477 1195.18 217.25 1195.85 219.328C1196.54 221.391 1196.88 223.68 1196.88 226.195ZM1189.83 225.539C1189.83 224.117 1189.65 222.797 1189.29 221.578C1188.95 220.344 1188.38 219.273 1187.6 218.367C1186.84 217.461 1185.84 216.75 1184.6 216.234C1183.37 215.703 1181.88 215.438 1180.12 215.438H1175.04V236.953H1180.12C1181.86 236.953 1183.34 236.695 1184.58 236.18C1185.81 235.648 1186.81 234.93 1187.58 234.023C1188.36 233.102 1188.93 232.023 1189.29 230.789C1189.65 229.555 1189.83 228.234 1189.83 226.828V225.539ZM1216.78 250.922H1210.31V217.898H1216.78V220.055C1217.48 219.32 1218.35 218.695 1219.38 218.18C1220.41 217.664 1221.66 217.406 1223.13 217.406C1224.79 217.406 1226.29 217.742 1227.63 218.414C1228.99 219.07 1230.16 219.984 1231.12 221.156C1232.09 222.312 1232.84 223.688 1233.38 225.281C1233.91 226.875 1234.17 228.602 1234.17 230.461C1234.17 232.32 1233.9 234.047 1233.35 235.641C1232.8 237.234 1232.04 238.609 1231.05 239.766C1230.07 240.922 1228.89 241.828 1227.52 242.484C1226.14 243.141 1224.62 243.469 1222.97 243.469C1222.23 243.469 1221.56 243.398 1220.95 243.258C1220.36 243.133 1219.81 242.953 1219.31 242.719C1218.81 242.484 1218.35 242.211 1217.93 241.898C1217.51 241.57 1217.12 241.219 1216.78 240.844V250.922ZM1216.59 232.781C1216.59 233.453 1216.71 234.078 1216.95 234.656C1217.2 235.219 1217.55 235.711 1218 236.133C1218.45 236.555 1218.99 236.883 1219.62 237.117C1220.26 237.352 1220.98 237.469 1221.77 237.469C1222.7 237.469 1223.51 237.305 1224.21 236.977C1224.93 236.633 1225.53 236.156 1226.02 235.547C1226.5 234.938 1226.87 234.219 1227.12 233.391C1227.37 232.547 1227.49 231.625 1227.49 230.625V230.32C1227.49 229.32 1227.37 228.398 1227.12 227.555C1226.87 226.711 1226.5 225.984 1226.02 225.375C1225.53 224.75 1224.93 224.266 1224.21 223.922C1223.51 223.578 1222.7 223.406 1221.77 223.406C1220.98 223.406 1220.26 223.523 1219.62 223.758C1218.99 223.992 1218.45 224.32 1218 224.742C1217.55 225.164 1217.2 225.664 1216.95 226.242C1216.71 226.82 1216.59 227.445 1216.59 228.117V232.781ZM1252.59 224.18H1251.91C1250.99 224.18 1250.11 224.273 1249.27 224.461C1248.44 224.648 1247.7 224.992 1247.06 225.492C1246.42 225.977 1245.91 226.648 1245.52 227.508C1245.14 228.367 1244.95 229.469 1244.95 230.812V243H1238.48V217.898H1244.95V220.734C1245.22 220.312 1245.56 219.906 1245.98 219.516C1246.41 219.125 1246.9 218.781 1247.46 218.484C1248.02 218.172 1248.66 217.922 1249.36 217.734C1250.06 217.547 1250.82 217.453 1251.63 217.453H1252.59V224.18ZM1267.66 217.406C1269.52 217.406 1271.21 217.742 1272.73 218.414C1274.24 219.07 1275.54 219.984 1276.62 221.156C1277.7 222.328 1278.52 223.711 1279.1 225.305C1279.7 226.898 1279.99 228.617 1279.99 230.461C1279.99 232.32 1279.7 234.047 1279.1 235.641C1278.51 237.219 1277.67 238.586 1276.59 239.742C1275.52 240.898 1274.22 241.812 1272.7 242.484C1271.19 243.141 1269.51 243.469 1267.66 243.469C1265.8 243.469 1264.12 243.141 1262.6 242.484C1261.09 241.812 1259.79 240.898 1258.71 239.742C1257.63 238.586 1256.8 237.219 1256.2 235.641C1255.61 234.047 1255.31 232.32 1255.31 230.461C1255.31 228.617 1255.6 226.898 1256.18 225.305C1256.77 223.711 1257.61 222.328 1258.69 221.156C1259.77 219.984 1261.06 219.07 1262.58 218.414C1264.11 217.742 1265.8 217.406 1267.66 217.406ZM1267.66 237.469C1268.59 237.469 1269.4 237.297 1270.1 236.953C1270.82 236.609 1271.42 236.133 1271.91 235.523C1272.39 234.914 1272.76 234.188 1273.01 233.344C1273.26 232.484 1273.38 231.547 1273.38 230.531V230.367C1273.38 229.352 1273.26 228.422 1273.01 227.578C1272.76 226.719 1272.39 225.984 1271.91 225.375C1271.42 224.75 1270.82 224.266 1270.1 223.922C1269.4 223.578 1268.59 223.406 1267.66 223.406C1266.74 223.406 1265.92 223.578 1265.2 223.922C1264.5 224.266 1263.91 224.75 1263.42 225.375C1262.94 225.984 1262.57 226.719 1262.32 227.578C1262.07 228.422 1261.95 229.352 1261.95 230.367V230.531C1261.95 231.547 1262.07 232.484 1262.32 233.344C1262.57 234.188 1262.94 234.914 1263.42 235.523C1263.91 236.133 1264.5 236.609 1265.2 236.953C1265.92 237.297 1266.74 237.469 1267.66 237.469ZM1289.6 243L1281.91 217.898H1289.13L1293.63 235.172L1298.25 217.898H1305.35L1297.71 243H1289.6ZM1315.03 243H1308.56V217.898H1315.03V243ZM1307.88 211.312C1307.88 210.781 1307.98 210.281 1308.19 209.812C1308.39 209.328 1308.66 208.914 1309.01 208.57C1309.37 208.211 1309.78 207.93 1310.25 207.727C1310.72 207.523 1311.23 207.422 1311.77 207.422C1312.3 207.422 1312.8 207.523 1313.27 207.727C1313.76 207.93 1314.17 208.211 1314.52 208.57C1314.88 208.914 1315.16 209.328 1315.36 209.812C1315.56 210.281 1315.66 210.781 1315.66 211.312C1315.66 211.859 1315.56 212.367 1315.36 212.836C1315.16 213.305 1314.88 213.719 1314.52 214.078C1314.17 214.422 1313.76 214.695 1313.27 214.898C1312.8 215.102 1312.3 215.203 1311.77 215.203C1311.23 215.203 1310.72 215.102 1310.25 214.898C1309.78 214.695 1309.37 214.422 1309.01 214.078C1308.66 213.719 1308.39 213.305 1308.19 212.836C1307.98 212.367 1307.88 211.859 1307.88 211.312ZM1336.73 243V240.844C1336.39 241.219 1336.01 241.57 1335.59 241.898C1335.18 242.211 1334.72 242.484 1334.2 242.719C1333.7 242.953 1333.15 243.133 1332.54 243.258C1331.95 243.398 1331.28 243.469 1330.55 243.469C1328.89 243.469 1327.38 243.141 1326 242.484C1324.62 241.828 1323.45 240.922 1322.46 239.766C1321.48 238.609 1320.71 237.234 1320.16 235.641C1319.63 234.047 1319.37 232.32 1319.37 230.461C1319.37 228.602 1319.63 226.875 1320.16 225.281C1320.7 223.688 1321.44 222.312 1322.39 221.156C1323.36 219.984 1324.52 219.07 1325.88 218.414C1327.24 217.742 1328.75 217.406 1330.41 217.406C1331.88 217.406 1333.12 217.664 1334.13 218.18C1335.16 218.68 1336.03 219.305 1336.73 220.055V209.391H1343.2V243H1336.73ZM1336.92 228.117C1336.92 227.445 1336.8 226.82 1336.55 226.242C1336.31 225.664 1335.97 225.164 1335.52 224.742C1335.06 224.32 1334.52 223.992 1333.88 223.758C1333.25 223.523 1332.54 223.406 1331.74 223.406C1330.82 223.406 1330 223.578 1329.28 223.922C1328.58 224.266 1327.98 224.75 1327.5 225.375C1327.02 225.984 1326.65 226.711 1326.4 227.555C1326.15 228.398 1326.02 229.32 1326.02 230.32V230.625C1326.02 231.625 1326.15 232.547 1326.4 233.391C1326.65 234.219 1327.02 234.938 1327.5 235.547C1327.98 236.156 1328.58 236.633 1329.28 236.977C1330 237.305 1330.82 237.469 1331.74 237.469C1332.54 237.469 1333.25 237.352 1333.88 237.117C1334.52 236.883 1335.06 236.555 1335.52 236.133C1335.97 235.711 1336.31 235.219 1336.55 234.656C1336.8 234.078 1336.92 233.453 1336.92 232.781V228.117ZM1354.2 232.688C1354.3 233.438 1354.54 234.125 1354.9 234.75C1355.27 235.375 1355.74 235.914 1356.3 236.367C1356.87 236.805 1357.52 237.148 1358.25 237.398C1358.98 237.648 1359.77 237.773 1360.59 237.773C1361.55 237.773 1362.58 237.594 1363.69 237.234C1364.8 236.859 1365.81 236.32 1366.73 235.617L1369.85 240.164C1368.68 241.148 1367.24 241.945 1365.54 242.555C1363.84 243.164 1362.02 243.469 1360.1 243.469C1358.37 243.469 1356.73 243.172 1355.2 242.578C1353.67 241.984 1352.33 241.125 1351.17 240C1350.03 238.875 1349.12 237.508 1348.45 235.898C1347.8 234.289 1347.47 232.477 1347.47 230.461C1347.47 228.617 1347.76 226.898 1348.34 225.305C1348.93 223.711 1349.75 222.328 1350.8 221.156C1351.86 219.984 1353.12 219.07 1354.59 218.414C1356.06 217.742 1357.69 217.406 1359.47 217.406C1361.12 217.406 1362.66 217.711 1364.09 218.32C1365.51 218.914 1366.74 219.758 1367.79 220.852C1368.84 221.93 1369.66 223.227 1370.25 224.742C1370.84 226.258 1371.14 227.93 1371.14 229.758V232.688H1354.2ZM1359.45 223.031C1358.05 223.031 1356.88 223.5 1355.91 224.438C1354.95 225.359 1354.4 226.477 1354.24 227.789H1364.37C1364.34 226.461 1363.85 225.336 1362.91 224.414C1361.98 223.492 1360.82 223.031 1359.45 223.031ZM1389.38 224.18H1388.7C1387.77 224.18 1386.89 224.273 1386.05 224.461C1385.22 224.648 1384.48 224.992 1383.84 225.492C1383.2 225.977 1382.69 226.648 1382.3 227.508C1381.92 228.367 1381.73 229.469 1381.73 230.812V243H1375.27V217.898H1381.73V220.734C1382 220.312 1382.34 219.906 1382.77 219.516C1383.19 219.125 1383.68 218.781 1384.24 218.484C1384.8 218.172 1385.44 217.922 1386.14 217.734C1386.84 217.547 1387.6 217.453 1388.41 217.453H1389.38V224.18ZM1399.27 229.992C1399.27 227.945 1399 226.016 1398.47 224.203C1397.95 222.391 1397.24 220.695 1396.34 219.117C1395.43 217.523 1394.36 216.055 1393.12 214.711C1391.91 213.352 1390.6 212.109 1389.21 210.984L1393.27 206.906L1395.07 208.383C1396.85 209.836 1398.45 211.375 1399.85 213C1401.26 214.625 1402.45 216.344 1403.41 218.156C1404.4 219.953 1405.14 221.852 1405.64 223.852C1406.16 225.836 1406.41 227.93 1406.41 230.133C1406.41 232.32 1406.16 234.414 1405.64 236.414C1405.14 238.414 1404.4 240.32 1403.41 242.133C1402.45 243.945 1401.26 245.664 1399.85 247.289C1398.45 248.93 1396.85 250.477 1395.07 251.93L1393.27 253.359L1389.21 249.328C1390.6 248.188 1391.91 246.938 1393.12 245.578C1394.36 244.219 1395.43 242.75 1396.34 241.172C1397.24 239.594 1397.95 237.898 1398.47 236.086C1399 234.258 1399.27 232.32 1399.27 230.273V229.992Z" fill="#0B0C0C"/>
<rect x="914.5" y="2.5" width="595" height="395" stroke="#0B0C0C" stroke-width="5"/>
<rect x="1826.5" y="2.5" width="595" height="395" fill="white"/>
<path d="M1901.2 151.391H1908V185H1901.2V151.391ZM1930.43 185V182.844C1930.09 183.219 1929.7 183.57 1929.28 183.898C1928.88 184.211 1928.41 184.484 1927.9 184.719C1927.4 184.953 1926.84 185.133 1926.23 185.258C1925.64 185.398 1924.98 185.469 1924.24 185.469C1922.59 185.469 1921.07 185.141 1919.7 184.484C1918.32 183.828 1917.14 182.922 1916.16 181.766C1915.17 180.609 1914.41 179.234 1913.86 177.641C1913.33 176.047 1913.06 174.32 1913.06 172.461C1913.06 170.602 1913.33 168.875 1913.86 167.281C1914.39 165.688 1915.13 164.312 1916.09 163.156C1917.05 161.984 1918.22 161.07 1919.58 160.414C1920.94 159.742 1922.45 159.406 1924.1 159.406C1925.57 159.406 1926.81 159.664 1927.83 160.18C1928.86 160.68 1929.73 161.305 1930.43 162.055V151.391H1936.9V185H1930.43ZM1930.62 170.117C1930.62 169.445 1930.49 168.82 1930.24 168.242C1930.01 167.664 1929.66 167.164 1929.21 166.742C1928.76 166.32 1928.21 165.992 1927.57 165.758C1926.95 165.523 1926.23 165.406 1925.44 165.406C1924.52 165.406 1923.7 165.578 1922.98 165.922C1922.27 166.266 1921.68 166.75 1921.2 167.375C1920.71 167.984 1920.34 168.711 1920.09 169.555C1919.84 170.398 1919.72 171.32 1919.72 172.32V172.625C1919.72 173.625 1919.84 174.547 1920.09 175.391C1920.34 176.219 1920.71 176.938 1921.2 177.547C1921.68 178.156 1922.27 178.633 1922.98 178.977C1923.7 179.305 1924.52 179.469 1925.44 179.469C1926.23 179.469 1926.95 179.352 1927.57 179.117C1928.21 178.883 1928.76 178.555 1929.21 178.133C1929.66 177.711 1930.01 177.219 1930.24 176.656C1930.49 176.078 1930.62 175.453 1930.62 174.781V170.117ZM1947.89 174.688C1948 175.438 1948.23 176.125 1948.59 176.75C1948.97 177.375 1949.44 177.914 1950 178.367C1950.56 178.805 1951.21 179.148 1951.95 179.398C1952.68 179.648 1953.46 179.773 1954.29 179.773C1955.24 179.773 1956.27 179.594 1957.38 179.234C1958.49 178.859 1959.51 178.32 1960.43 177.617L1963.55 182.164C1962.38 183.148 1960.94 183.945 1959.23 184.555C1957.53 185.164 1955.72 185.469 1953.8 185.469C1952.06 185.469 1950.43 185.172 1948.9 184.578C1947.37 183.984 1946.02 183.125 1944.87 182C1943.73 180.875 1942.82 179.508 1942.15 177.898C1941.49 176.289 1941.16 174.477 1941.16 172.461C1941.16 170.617 1941.45 168.898 1942.03 167.305C1942.62 165.711 1943.45 164.328 1944.49 163.156C1945.55 161.984 1946.82 161.07 1948.29 160.414C1949.76 159.742 1951.38 159.406 1953.16 159.406C1954.82 159.406 1956.36 159.711 1957.78 160.32C1959.2 160.914 1960.44 161.758 1961.48 162.852C1962.53 163.93 1963.35 165.227 1963.95 166.742C1964.54 168.258 1964.84 169.93 1964.84 171.758V174.688H1947.89ZM1953.14 165.031C1951.75 165.031 1950.57 165.5 1949.6 166.438C1948.65 167.359 1948.09 168.477 1947.94 169.789H1958.06C1958.03 168.461 1957.55 167.336 1956.61 166.414C1955.67 165.492 1954.52 165.031 1953.14 165.031ZM1968.96 159.898H1975.43V162.055C1975.77 161.711 1976.16 161.383 1976.58 161.07C1977.02 160.742 1977.49 160.461 1978.01 160.227C1978.52 159.977 1979.09 159.781 1979.72 159.641C1980.36 159.484 1981.06 159.406 1981.83 159.406C1983.19 159.406 1984.41 159.633 1985.48 160.086C1986.56 160.523 1987.47 161.133 1988.2 161.914C1988.95 162.695 1989.52 163.609 1989.91 164.656C1990.3 165.703 1990.5 166.836 1990.5 168.055V185H1984.03V170.398C1984.03 169.508 1983.93 168.758 1983.73 168.148C1983.52 167.523 1983.24 167.023 1982.88 166.648C1982.54 166.258 1982.12 165.977 1981.64 165.805C1981.17 165.617 1980.66 165.523 1980.09 165.523C1979.44 165.523 1978.82 165.641 1978.24 165.875C1977.68 166.109 1977.19 166.469 1976.77 166.953C1976.34 167.422 1976.02 168.016 1975.78 168.734C1975.55 169.453 1975.43 170.297 1975.43 171.266V185H1968.96V159.898ZM2005.17 177.523C2005.17 177.82 2005.21 178.102 2005.29 178.367C2005.37 178.633 2005.5 178.867 2005.69 179.07C2005.89 179.258 2006.17 179.406 2006.53 179.516C2006.89 179.625 2007.35 179.68 2007.91 179.68C2008.15 179.68 2008.41 179.672 2008.71 179.656C2009.01 179.625 2009.3 179.594 2009.6 179.562C2009.9 179.531 2010.17 179.492 2010.42 179.445C2010.69 179.398 2010.91 179.359 2011.08 179.328L2011.66 185.047C2011.05 185.125 2010.42 185.195 2009.77 185.258C2009.2 185.32 2008.58 185.367 2007.89 185.398C2007.2 185.445 2006.51 185.469 2005.8 185.469C2003.57 185.469 2001.83 184.961 2000.58 183.945C1999.33 182.93 1998.7 181.312 1998.7 179.094V165.523H1994.18V159.898H1998.7V152.797L2005.17 151.062V159.898H2011.76V165.523H2005.17V177.523ZM2022.3 185H2015.84V159.898H2022.3V185ZM2015.16 153.312C2015.16 152.781 2015.26 152.281 2015.46 151.812C2015.66 151.328 2015.94 150.914 2016.28 150.57C2016.64 150.211 2017.05 149.93 2017.52 149.727C2017.99 149.523 2018.5 149.422 2019.05 149.422C2019.58 149.422 2020.08 149.523 2020.55 149.727C2021.03 149.93 2021.45 150.211 2021.79 150.57C2022.15 150.914 2022.43 151.328 2022.63 151.812C2022.84 152.281 2022.94 152.781 2022.94 153.312C2022.94 153.859 2022.84 154.367 2022.63 154.836C2022.43 155.305 2022.15 155.719 2021.79 156.078C2021.45 156.422 2021.03 156.695 2020.55 156.898C2020.08 157.102 2019.58 157.203 2019.05 157.203C2018.5 157.203 2017.99 157.102 2017.52 156.898C2017.05 156.695 2016.64 156.422 2016.28 156.078C2015.94 155.719 2015.66 155.305 2015.46 154.836C2015.26 154.367 2015.16 153.859 2015.16 153.312ZM2037.14 177.523C2037.14 177.82 2037.18 178.102 2037.26 178.367C2037.34 178.633 2037.47 178.867 2037.66 179.07C2037.86 179.258 2038.14 179.406 2038.5 179.516C2038.86 179.625 2039.32 179.68 2039.88 179.68C2040.12 179.68 2040.38 179.672 2040.68 179.656C2040.98 179.625 2041.27 179.594 2041.57 179.562C2041.87 179.531 2042.14 179.492 2042.39 179.445C2042.66 179.398 2042.88 179.359 2043.05 179.328L2043.63 185.047C2043.02 185.125 2042.39 185.195 2041.73 185.258C2041.17 185.32 2040.55 185.367 2039.86 185.398C2039.17 185.445 2038.48 185.469 2037.77 185.469C2035.54 185.469 2033.8 184.961 2032.55 183.945C2031.3 182.93 2030.67 181.312 2030.67 179.094V165.523H2026.15V159.898H2030.67V152.797L2037.14 151.062V159.898H2043.73V165.523H2037.14V177.523ZM2051.25 187.93C2051.98 187.93 2052.52 187.797 2052.87 187.531C2053.23 187.266 2053.51 186.836 2053.71 186.242L2053.95 185.469L2045.25 159.898H2052.45L2057.44 177.219L2061.59 159.898H2068.69L2060.23 188.117C2059.95 189.055 2059.55 189.859 2059.05 190.531C2058.55 191.203 2057.96 191.75 2057.27 192.172C2056.59 192.609 2055.82 192.93 2054.98 193.133C2054.15 193.336 2053.26 193.438 2052.3 193.438C2051.91 193.438 2051.46 193.422 2050.95 193.391C2050.45 193.359 2049.92 193.312 2049.38 193.25C2048.84 193.203 2048.31 193.141 2047.78 193.062C2047.27 192.984 2046.79 192.891 2046.35 192.781L2047.57 187.484C2047.95 187.578 2048.34 187.656 2048.74 187.719C2049.1 187.781 2049.49 187.828 2049.91 187.859C2050.35 187.906 2050.8 187.93 2051.25 187.93ZM2085.82 192.922H2079.35V159.898H2085.82V162.055C2086.52 161.32 2087.39 160.695 2088.42 160.18C2089.45 159.664 2090.7 159.406 2092.17 159.406C2093.83 159.406 2095.33 159.742 2096.67 160.414C2098.03 161.07 2099.2 161.984 2100.16 163.156C2101.13 164.312 2101.88 165.688 2102.41 167.281C2102.95 168.875 2103.21 170.602 2103.21 172.461C2103.21 174.32 2102.94 176.047 2102.39 177.641C2101.84 179.234 2101.08 180.609 2100.09 181.766C2099.11 182.922 2097.93 183.828 2096.55 184.484C2095.18 185.141 2093.66 185.469 2092.01 185.469C2091.27 185.469 2090.6 185.398 2089.99 185.258C2089.4 185.133 2088.85 184.953 2088.35 184.719C2087.85 184.484 2087.39 184.211 2086.97 183.898C2086.55 183.57 2086.16 183.219 2085.82 182.844V192.922ZM2085.63 174.781C2085.63 175.453 2085.75 176.078 2085.98 176.656C2086.23 177.219 2086.59 177.711 2087.04 178.133C2087.49 178.555 2088.03 178.883 2088.66 179.117C2089.3 179.352 2090.02 179.469 2090.81 179.469C2091.73 179.469 2092.55 179.305 2093.25 178.977C2093.97 178.633 2094.57 178.156 2095.05 177.547C2095.54 176.938 2095.91 176.219 2096.16 175.391C2096.41 174.547 2096.53 173.625 2096.53 172.625V172.32C2096.53 171.32 2096.41 170.398 2096.16 169.555C2095.91 168.711 2095.54 167.984 2095.05 167.375C2094.57 166.75 2093.97 166.266 2093.25 165.922C2092.55 165.578 2091.73 165.406 2090.81 165.406C2090.02 165.406 2089.3 165.523 2088.66 165.758C2088.03 165.992 2087.49 166.32 2087.04 166.742C2086.59 167.164 2086.23 167.664 2085.98 168.242C2085.75 168.82 2085.63 169.445 2085.63 170.117V174.781ZM2121.63 166.18H2120.95C2120.03 166.18 2119.15 166.273 2118.3 166.461C2117.48 166.648 2116.74 166.992 2116.1 167.492C2115.46 167.977 2114.95 168.648 2114.55 169.508C2114.18 170.367 2113.99 171.469 2113.99 172.812V185H2107.52V159.898H2113.99V162.734C2114.26 162.312 2114.6 161.906 2115.02 161.516C2115.45 161.125 2115.94 160.781 2116.5 160.484C2117.06 160.172 2117.7 159.922 2118.4 159.734C2119.1 159.547 2119.86 159.453 2120.67 159.453H2121.63V166.18ZM2136.7 159.406C2138.56 159.406 2140.25 159.742 2141.77 160.414C2143.28 161.07 2144.58 161.984 2145.66 163.156C2146.73 164.328 2147.56 165.711 2148.14 167.305C2148.73 168.898 2149.03 170.617 2149.03 172.461C2149.03 174.32 2148.73 176.047 2148.14 177.641C2147.55 179.219 2146.71 180.586 2145.63 181.742C2144.55 182.898 2143.26 183.812 2141.74 184.484C2140.23 185.141 2138.55 185.469 2136.7 185.469C2134.84 185.469 2133.16 185.141 2131.64 184.484C2130.12 183.812 2128.83 182.898 2127.75 181.742C2126.67 180.586 2125.84 179.219 2125.24 177.641C2124.65 176.047 2124.35 174.32 2124.35 172.461C2124.35 170.617 2124.64 168.898 2125.22 167.305C2125.81 165.711 2126.65 164.328 2127.73 163.156C2128.8 161.984 2130.1 161.07 2131.62 160.414C2133.15 159.742 2134.84 159.406 2136.7 159.406ZM2136.7 179.469C2137.62 179.469 2138.44 179.297 2139.14 178.953C2139.86 178.609 2140.46 178.133 2140.95 177.523C2141.43 176.914 2141.8 176.188 2142.05 175.344C2142.3 174.484 2142.42 173.547 2142.42 172.531V172.367C2142.42 171.352 2142.3 170.422 2142.05 169.578C2141.8 168.719 2141.43 167.984 2140.95 167.375C2140.46 166.75 2139.86 166.266 2139.14 165.922C2138.44 165.578 2137.62 165.406 2136.7 165.406C2135.78 165.406 2134.96 165.578 2134.24 165.922C2133.54 166.266 2132.95 166.75 2132.46 167.375C2131.98 167.984 2131.61 168.719 2131.36 169.578C2131.11 170.422 2130.98 171.352 2130.98 172.367V172.531C2130.98 173.547 2131.11 174.484 2131.36 175.344C2131.61 176.188 2131.98 176.914 2132.46 177.523C2132.95 178.133 2133.54 178.609 2134.24 178.953C2134.96 179.297 2135.78 179.469 2136.7 179.469ZM2164.36 159.406C2166.22 159.406 2167.91 159.742 2169.42 160.414C2170.94 161.07 2172.23 161.984 2173.31 163.156C2174.39 164.328 2175.22 165.711 2175.8 167.305C2176.39 168.898 2176.69 170.617 2176.69 172.461C2176.69 174.32 2176.39 176.047 2175.8 177.641C2175.2 179.219 2174.37 180.586 2173.29 181.742C2172.21 182.898 2170.91 183.812 2169.4 184.484C2167.88 185.141 2166.2 185.469 2164.36 185.469C2162.5 185.469 2160.81 185.141 2159.3 184.484C2157.78 183.812 2156.48 182.898 2155.41 181.742C2154.33 180.586 2153.49 179.219 2152.9 177.641C2152.3 176.047 2152.01 174.32 2152.01 172.461C2152.01 170.617 2152.3 168.898 2152.88 167.305C2153.47 165.711 2154.3 164.328 2155.38 163.156C2156.46 161.984 2157.76 161.07 2159.27 160.414C2160.8 159.742 2162.5 159.406 2164.36 159.406ZM2164.36 179.469C2165.28 179.469 2166.09 179.297 2166.8 178.953C2167.52 178.609 2168.12 178.133 2168.6 177.523C2169.09 176.914 2169.45 176.188 2169.7 175.344C2169.95 174.484 2170.08 173.547 2170.08 172.531V172.367C2170.08 171.352 2169.95 170.422 2169.7 169.578C2169.45 168.719 2169.09 167.984 2168.6 167.375C2168.12 166.75 2167.52 166.266 2166.8 165.922C2166.09 165.578 2165.28 165.406 2164.36 165.406C2163.44 165.406 2162.62 165.578 2161.9 165.922C2161.2 166.266 2160.6 166.75 2160.12 167.375C2159.63 167.984 2159.27 168.719 2159.02 169.578C2158.77 170.422 2158.64 171.352 2158.64 172.367V172.531C2158.64 173.547 2158.77 174.484 2159.02 175.344C2159.27 176.188 2159.63 176.914 2160.12 177.523C2160.6 178.133 2161.2 178.609 2161.9 178.953C2162.62 179.297 2163.44 179.469 2164.36 179.469ZM2189.65 159.898H2194.45V165.523H2189.65V185H2183.18V165.523H2179.2V159.898H2183.18V156.828C2183.18 155.734 2183.37 154.789 2183.74 153.992C2184.12 153.18 2184.63 152.516 2185.29 152C2185.96 151.469 2186.76 151.078 2187.68 150.828C2188.62 150.562 2189.65 150.43 2190.77 150.43C2191.34 150.43 2191.88 150.445 2192.41 150.477C2192.95 150.508 2193.44 150.539 2193.89 150.57C2194.34 150.602 2194.74 150.641 2195.09 150.688C2195.45 150.734 2195.72 150.766 2195.91 150.781L2195.37 156.289C2195.18 156.258 2194.95 156.227 2194.66 156.195C2194.4 156.164 2194.12 156.141 2193.82 156.125C2193.52 156.094 2193.23 156.078 2192.95 156.078C2192.67 156.062 2192.42 156.055 2192.2 156.055C2191.28 156.055 2190.62 156.234 2190.23 156.594C2189.84 156.938 2189.65 157.383 2189.65 157.93V159.898ZM2204.65 185H2198.18V159.898H2204.65V185ZM2197.5 153.312C2197.5 152.781 2197.6 152.281 2197.8 151.812C2198.01 151.328 2198.28 150.914 2198.62 150.57C2198.98 150.211 2199.4 149.93 2199.87 149.727C2200.34 149.523 2200.84 149.422 2201.39 149.422C2201.92 149.422 2202.42 149.523 2202.89 149.727C2203.38 149.93 2203.79 150.211 2204.13 150.57C2204.49 150.914 2204.77 151.328 2204.98 151.812C2205.18 152.281 2205.28 152.781 2205.28 153.312C2205.28 153.859 2205.18 154.367 2204.98 154.836C2204.77 155.305 2204.49 155.719 2204.13 156.078C2203.79 156.422 2203.38 156.695 2202.89 156.898C2202.42 157.102 2201.92 157.203 2201.39 157.203C2200.84 157.203 2200.34 157.102 2199.87 156.898C2199.4 156.695 2198.98 156.422 2198.62 156.078C2198.28 155.719 2198.01 155.305 2197.8 154.836C2197.6 154.367 2197.5 153.859 2197.5 153.312ZM2210.23 159.898H2216.7V162.055C2217.04 161.711 2217.42 161.383 2217.84 161.07C2218.28 160.742 2218.76 160.461 2219.27 160.227C2219.79 159.977 2220.36 159.781 2220.98 159.641C2221.62 159.484 2222.33 159.406 2223.09 159.406C2224.45 159.406 2225.67 159.633 2226.75 160.086C2227.83 160.523 2228.73 161.133 2229.47 161.914C2230.22 162.695 2230.79 163.609 2231.18 164.656C2231.57 165.703 2231.77 166.836 2231.77 168.055V185H2225.3V170.398C2225.3 169.508 2225.2 168.758 2224.99 168.148C2224.79 167.523 2224.51 167.023 2224.15 166.648C2223.8 166.258 2223.39 165.977 2222.91 165.805C2222.44 165.617 2221.92 165.523 2221.36 165.523C2220.7 165.523 2220.09 165.641 2219.51 165.875C2218.95 166.109 2218.45 166.469 2218.03 166.953C2217.61 167.422 2217.28 168.016 2217.05 168.734C2216.81 169.453 2216.7 170.297 2216.7 171.266V185H2210.23V159.898ZM2252.44 180.547C2251.86 181.25 2251.05 181.812 2250 182.234C2248.97 182.641 2247.84 182.844 2246.62 182.844C2244.94 182.844 2243.44 182.547 2242.12 181.953C2240.81 181.359 2239.7 180.547 2238.8 179.516C2237.91 178.469 2237.22 177.234 2236.73 175.812C2236.27 174.391 2236.03 172.828 2236.03 171.125C2236.03 169.469 2236.27 167.922 2236.73 166.484C2237.22 165.031 2237.91 163.789 2238.8 162.758C2239.7 161.711 2240.81 160.891 2242.12 160.297C2243.44 159.703 2244.94 159.406 2246.62 159.406C2247.84 159.406 2248.97 159.617 2250 160.039C2251.05 160.461 2251.86 161.023 2252.44 161.727V159.898H2258.93V184.766C2258.93 186.297 2258.64 187.609 2258.06 188.703C2257.48 189.812 2256.69 190.719 2255.67 191.422C2254.67 192.125 2253.51 192.633 2252.18 192.945C2250.85 193.273 2249.44 193.438 2247.94 193.438C2246.11 193.438 2244.2 193.219 2242.22 192.781C2240.23 192.359 2238.52 191.828 2237.09 191.188L2238.91 185.961C2239.35 186.148 2239.89 186.352 2240.53 186.57C2241.17 186.805 2241.86 187.008 2242.59 187.18C2243.33 187.352 2244.09 187.492 2244.89 187.602C2245.7 187.727 2246.49 187.789 2247.26 187.789C2247.93 187.789 2248.58 187.719 2249.2 187.578C2249.83 187.453 2250.38 187.234 2250.84 186.922C2251.33 186.625 2251.71 186.227 2251.99 185.727C2252.29 185.242 2252.44 184.617 2252.44 183.852V180.547ZM2242.69 171.219C2242.69 172.047 2242.77 172.828 2242.95 173.562C2243.13 174.281 2243.42 174.898 2243.81 175.414C2244.22 175.914 2244.73 176.312 2245.36 176.609C2245.98 176.891 2246.74 177.031 2247.63 177.031C2249.4 177.031 2250.66 176.477 2251.41 175.367C2252.16 174.242 2252.53 172.859 2252.53 171.219V171.031C2252.53 170.203 2252.45 169.43 2252.27 168.711C2252.1 167.992 2251.82 167.375 2251.43 166.859C2251.04 166.344 2250.53 165.945 2249.91 165.664C2249.3 165.367 2248.54 165.219 2247.63 165.219C2245.88 165.219 2244.62 165.773 2243.84 166.883C2243.07 167.992 2242.69 169.375 2242.69 171.031V171.219ZM2281.29 174.805C2280.49 174.93 2279.85 175.211 2279.37 175.648C2278.88 176.07 2278.64 176.648 2278.64 177.383C2278.64 178.195 2278.94 178.898 2279.53 179.492C2280.12 180.07 2281 180.359 2282.16 180.359C2283.38 180.359 2284.34 180.008 2285.04 179.305C2285.74 178.602 2286.09 177.672 2286.09 176.516V173.984L2281.29 174.805ZM2287.15 182.633C2286.88 182.93 2286.55 183.25 2286.16 183.594C2285.79 183.922 2285.34 184.227 2284.8 184.508C2284.29 184.773 2283.68 185 2282.98 185.188C2282.27 185.375 2281.48 185.469 2280.61 185.469C2279.36 185.469 2278.2 185.273 2277.14 184.883C2276.09 184.477 2275.17 183.914 2274.38 183.195C2273.58 182.477 2272.95 181.648 2272.5 180.711C2272.05 179.758 2271.82 178.727 2271.82 177.617C2271.82 175.602 2272.45 173.953 2273.7 172.672C2274.95 171.391 2276.67 170.586 2278.88 170.258L2286.09 169.203V168.734C2286.09 167.609 2285.75 166.719 2285.06 166.062C2284.38 165.406 2283.26 165.078 2281.71 165.078C2281.07 165.078 2280.42 165.156 2279.77 165.312C2279.11 165.453 2278.48 165.617 2277.87 165.805C2277.27 165.992 2276.72 166.211 2276.2 166.461C2275.69 166.695 2275.23 166.906 2274.84 167.094L2272.31 162.148C2273.75 161.352 2275.34 160.695 2277.09 160.18C2278.86 159.664 2280.69 159.406 2282.58 159.406C2283.73 159.406 2284.9 159.531 2286.07 159.781C2287.26 160.016 2288.33 160.453 2289.28 161.094C2290.25 161.734 2291.04 162.609 2291.65 163.719C2292.26 164.812 2292.56 166.211 2292.56 167.914V178.227C2292.56 178.961 2292.75 179.508 2293.12 179.867C2293.52 180.211 2294.05 180.531 2294.72 180.828L2291.79 185.469C2290.6 185.344 2289.65 185.039 2288.93 184.555C2288.21 184.055 2287.62 183.414 2287.15 182.633ZM2297.98 159.898H2304.45V162.055C2304.79 161.711 2305.17 161.383 2305.59 161.07C2306.03 160.742 2306.51 160.461 2307.02 160.227C2307.54 159.977 2308.11 159.781 2308.73 159.641C2309.38 159.484 2310.08 159.406 2310.84 159.406C2312.2 159.406 2313.42 159.633 2314.5 160.086C2315.58 160.523 2316.48 161.133 2317.22 161.914C2317.97 162.695 2318.54 163.609 2318.93 164.656C2319.32 165.703 2319.52 166.836 2319.52 168.055V185H2313.05V170.398C2313.05 169.508 2312.95 168.758 2312.74 168.148C2312.54 167.523 2312.26 167.023 2311.9 166.648C2311.55 166.258 2311.14 165.977 2310.66 165.805C2310.19 165.617 2309.67 165.523 2309.11 165.523C2308.45 165.523 2307.84 165.641 2307.26 165.875C2306.7 166.109 2306.2 166.469 2305.78 166.953C2305.36 167.422 2305.03 168.016 2304.8 168.734C2304.56 169.453 2304.45 170.297 2304.45 171.266V185H2297.98V159.898ZM2341.05 185V182.844C2340.71 183.219 2340.33 183.57 2339.91 183.898C2339.5 184.211 2339.04 184.484 2338.52 184.719C2338.02 184.953 2337.47 185.133 2336.86 185.258C2336.27 185.398 2335.6 185.469 2334.87 185.469C2333.21 185.469 2331.7 185.141 2330.32 184.484C2328.95 183.828 2327.77 182.922 2326.78 181.766C2325.8 180.609 2325.03 179.234 2324.48 177.641C2323.95 176.047 2323.69 174.32 2323.69 172.461C2323.69 170.602 2323.95 168.875 2324.48 167.281C2325.02 165.688 2325.76 164.312 2326.71 163.156C2327.68 161.984 2328.84 161.07 2330.2 160.414C2331.56 159.742 2333.07 159.406 2334.73 159.406C2336.2 159.406 2337.44 159.664 2338.45 160.18C2339.48 160.68 2340.35 161.305 2341.05 162.055V151.391H2347.52V185H2341.05ZM2341.24 170.117C2341.24 169.445 2341.12 168.82 2340.87 168.242C2340.63 167.664 2340.29 167.164 2339.84 166.742C2339.38 166.32 2338.84 165.992 2338.2 165.758C2337.57 165.523 2336.86 165.406 2336.06 165.406C2335.14 165.406 2334.32 165.578 2333.6 165.922C2332.9 166.266 2332.3 166.75 2331.82 167.375C2331.34 167.984 2330.97 168.711 2330.72 169.555C2330.47 170.398 2330.34 171.32 2330.34 172.32V172.625C2330.34 173.625 2330.47 174.547 2330.72 175.391C2330.97 176.219 2331.34 176.938 2331.82 177.547C2332.3 178.156 2332.9 178.633 2333.6 178.977C2334.32 179.305 2335.14 179.469 2336.06 179.469C2336.86 179.469 2337.57 179.352 2338.2 179.117C2338.84 178.883 2339.38 178.555 2339.84 178.133C2340.29 177.711 2340.63 177.219 2340.87 176.656C2341.12 176.078 2341.24 175.453 2341.24 174.781V170.117ZM1896.12 243L1888.43 217.898H1895.65L1900.15 235.172L1904.77 217.898H1911.87L1904.23 243H1896.12ZM1920.49 232.688C1920.6 233.438 1920.84 234.125 1921.2 234.75C1921.57 235.375 1922.04 235.914 1922.6 236.367C1923.16 236.805 1923.81 237.148 1924.55 237.398C1925.28 237.648 1926.06 237.773 1926.89 237.773C1927.84 237.773 1928.88 237.594 1929.98 237.234C1931.09 236.859 1932.11 236.32 1933.03 235.617L1936.15 240.164C1934.98 241.148 1933.54 241.945 1931.84 242.555C1930.13 243.164 1928.32 243.469 1926.4 243.469C1924.66 243.469 1923.03 243.172 1921.5 242.578C1919.97 241.984 1918.62 241.125 1917.47 240C1916.33 238.875 1915.42 237.508 1914.75 235.898C1914.09 234.289 1913.77 232.477 1913.77 230.461C1913.77 228.617 1914.05 226.898 1914.63 225.305C1915.23 223.711 1916.05 222.328 1917.09 221.156C1918.16 219.984 1919.42 219.07 1920.89 218.414C1922.36 217.742 1923.98 217.406 1925.77 217.406C1927.42 217.406 1928.96 217.711 1930.38 218.32C1931.8 218.914 1933.04 219.758 1934.09 220.852C1935.13 221.93 1935.95 223.227 1936.55 224.742C1937.14 226.258 1937.44 227.93 1937.44 229.758V232.688H1920.49ZM1925.74 223.031C1924.35 223.031 1923.17 223.5 1922.2 224.438C1921.25 225.359 1920.7 226.477 1920.54 227.789H1930.66C1930.63 226.461 1930.15 225.336 1929.21 224.414C1928.27 223.492 1927.12 223.031 1925.74 223.031ZM1955.67 224.18H1954.99C1954.07 224.18 1953.19 224.273 1952.34 224.461C1951.52 224.648 1950.78 224.992 1950.14 225.492C1949.5 225.977 1948.98 226.648 1948.59 227.508C1948.22 228.367 1948.03 229.469 1948.03 230.812V243H1941.56V217.898H1948.03V220.734C1948.3 220.312 1948.64 219.906 1949.06 219.516C1949.48 219.125 1949.98 218.781 1950.54 218.484C1951.1 218.172 1951.73 217.922 1952.44 217.734C1953.14 217.547 1953.9 217.453 1954.71 217.453H1955.67V224.18ZM1966.17 243H1959.7V217.898H1966.17V243ZM1959.02 211.312C1959.02 210.781 1959.12 210.281 1959.33 209.812C1959.53 209.328 1959.8 208.914 1960.15 208.57C1960.51 208.211 1960.92 207.93 1961.39 207.727C1961.86 207.523 1962.37 207.422 1962.91 207.422C1963.45 207.422 1963.95 207.523 1964.41 207.727C1964.9 207.93 1965.31 208.211 1965.66 208.57C1966.02 208.914 1966.3 209.328 1966.5 209.812C1966.7 210.281 1966.8 210.781 1966.8 211.312C1966.8 211.859 1966.7 212.367 1966.5 212.836C1966.3 213.305 1966.02 213.719 1965.66 214.078C1965.31 214.422 1964.9 214.695 1964.41 214.898C1963.95 215.102 1963.45 215.203 1962.91 215.203C1962.37 215.203 1961.86 215.102 1961.39 214.898C1960.92 214.695 1960.51 214.422 1960.15 214.078C1959.8 213.719 1959.53 213.305 1959.33 212.836C1959.12 212.367 1959.02 211.859 1959.02 211.312ZM1980.42 217.898H1985.23V223.523H1980.42V243H1973.95V223.523H1969.97V217.898H1973.95V214.828C1973.95 213.734 1974.14 212.789 1974.52 211.992C1974.89 211.18 1975.41 210.516 1976.06 210C1976.73 209.469 1977.53 209.078 1978.45 208.828C1979.39 208.562 1980.42 208.43 1981.55 208.43C1982.11 208.43 1982.66 208.445 1983.19 208.477C1983.72 208.508 1984.21 208.539 1984.66 208.57C1985.12 208.602 1985.52 208.641 1985.86 208.688C1986.22 208.734 1986.49 208.766 1986.68 208.781L1986.14 214.289C1985.95 214.258 1985.72 214.227 1985.44 214.195C1985.17 214.164 1984.89 214.141 1984.59 214.125C1984.3 214.094 1984.01 214.078 1983.73 214.078C1983.45 214.062 1983.2 214.055 1982.98 214.055C1982.05 214.055 1981.4 214.234 1981.01 214.594C1980.62 214.938 1980.42 215.383 1980.42 215.93V217.898ZM1995.42 243H1988.95V217.898H1995.42V243ZM1988.27 211.312C1988.27 210.781 1988.38 210.281 1988.58 209.812C1988.78 209.328 1989.05 208.914 1989.4 208.57C1989.76 208.211 1990.17 207.93 1990.64 207.727C1991.11 207.523 1991.62 207.422 1992.16 207.422C1992.7 207.422 1993.2 207.523 1993.66 207.727C1994.15 207.93 1994.56 208.211 1994.91 208.57C1995.27 208.914 1995.55 209.328 1995.75 209.812C1995.95 210.281 1996.05 210.781 1996.05 211.312C1996.05 211.859 1995.95 212.367 1995.75 212.836C1995.55 213.305 1995.27 213.719 1994.91 214.078C1994.56 214.422 1994.15 214.695 1993.66 214.898C1993.2 215.102 1992.7 215.203 1992.16 215.203C1991.62 215.203 1991.11 215.102 1990.64 214.898C1990.17 214.695 1989.76 214.422 1989.4 214.078C1989.05 213.719 1988.78 213.305 1988.58 212.836C1988.38 212.367 1988.27 211.859 1988.27 211.312ZM2006.37 230.578C2006.37 231.391 2006.48 232.211 2006.7 233.039C2006.91 233.852 2007.25 234.586 2007.7 235.242C2008.16 235.898 2008.73 236.438 2009.44 236.859C2010.16 237.266 2011.01 237.469 2011.99 237.469C2012.63 237.469 2013.21 237.383 2013.73 237.211C2014.26 237.039 2014.73 236.805 2015.13 236.508C2015.55 236.195 2015.92 235.836 2016.23 235.43C2016.56 235.008 2016.84 234.555 2017.08 234.07L2022.75 237C2022.34 237.984 2021.78 238.875 2021.06 239.672C2020.36 240.469 2019.54 241.148 2018.6 241.711C2017.66 242.273 2016.62 242.703 2015.48 243C2014.34 243.312 2013.13 243.469 2011.85 243.469C2010.09 243.469 2008.46 243.141 2006.98 242.484C2005.49 241.812 2004.21 240.898 2003.13 239.742C2002.05 238.586 2001.21 237.219 2000.6 235.641C1999.99 234.047 1999.69 232.32 1999.69 230.461C1999.69 228.617 1999.99 226.898 2000.6 225.305C2001.21 223.711 2002.05 222.328 2003.13 221.156C2004.21 219.984 2005.49 219.07 2006.98 218.414C2008.46 217.742 2010.09 217.406 2011.85 217.406C2013.13 217.406 2014.34 217.562 2015.48 217.875C2016.62 218.172 2017.66 218.609 2018.6 219.188C2019.54 219.75 2020.36 220.43 2021.06 221.227C2021.78 222.023 2022.34 222.914 2022.75 223.898L2017.08 226.828C2016.84 226.344 2016.56 225.898 2016.23 225.492C2015.92 225.07 2015.55 224.711 2015.13 224.414C2014.73 224.102 2014.26 223.859 2013.73 223.688C2013.21 223.5 2012.63 223.406 2011.99 223.406C2011.01 223.406 2010.16 223.617 2009.44 224.039C2008.73 224.445 2008.16 224.984 2007.7 225.656C2007.25 226.312 2006.91 227.055 2006.7 227.883C2006.48 228.711 2006.37 229.539 2006.37 230.367V230.578ZM2034.84 232.805C2034.05 232.93 2033.41 233.211 2032.92 233.648C2032.44 234.07 2032.2 234.648 2032.2 235.383C2032.2 236.195 2032.49 236.898 2033.09 237.492C2033.68 238.07 2034.55 238.359 2035.71 238.359C2036.93 238.359 2037.89 238.008 2038.59 237.305C2039.3 236.602 2039.65 235.672 2039.65 234.516V231.984L2034.84 232.805ZM2040.7 240.633C2040.44 240.93 2040.11 241.25 2039.72 241.594C2039.34 241.922 2038.89 242.227 2038.36 242.508C2037.84 242.773 2037.23 243 2036.53 243.188C2035.83 243.375 2035.04 243.469 2034.16 243.469C2032.91 243.469 2031.76 243.273 2030.7 242.883C2029.65 242.477 2028.73 241.914 2027.93 241.195C2027.13 240.477 2026.51 239.648 2026.05 238.711C2025.6 237.758 2025.38 236.727 2025.38 235.617C2025.38 233.602 2026 231.953 2027.25 230.672C2028.5 229.391 2030.23 228.586 2032.43 228.258L2039.65 227.203V226.734C2039.65 225.609 2039.3 224.719 2038.62 224.062C2037.93 223.406 2036.81 223.078 2035.27 223.078C2034.62 223.078 2033.98 223.156 2033.32 223.312C2032.66 223.453 2032.03 223.617 2031.42 223.805C2030.83 223.992 2030.27 224.211 2029.76 224.461C2029.24 224.695 2028.79 224.906 2028.4 225.094L2025.87 220.148C2027.3 219.352 2028.9 218.695 2030.65 218.18C2032.41 217.664 2034.24 217.406 2036.13 217.406C2037.29 217.406 2038.45 217.531 2039.62 217.781C2040.81 218.016 2041.88 218.453 2042.84 219.094C2043.8 219.734 2044.59 220.609 2045.2 221.719C2045.81 222.812 2046.12 224.211 2046.12 225.914V236.227C2046.12 236.961 2046.3 237.508 2046.68 237.867C2047.07 238.211 2047.6 238.531 2048.27 238.828L2045.34 243.469C2044.16 243.344 2043.2 243.039 2042.48 242.555C2041.77 242.055 2041.17 241.414 2040.7 240.633ZM2059.8 235.523C2059.8 235.82 2059.84 236.102 2059.92 236.367C2060 236.633 2060.13 236.867 2060.32 237.07C2060.52 237.258 2060.8 237.406 2061.16 237.516C2061.52 237.625 2061.98 237.68 2062.55 237.68C2062.78 237.68 2063.05 237.672 2063.34 237.656C2063.64 237.625 2063.94 237.594 2064.23 237.562C2064.53 237.531 2064.8 237.492 2065.05 237.445C2065.32 237.398 2065.54 237.359 2065.71 237.328L2066.3 243.047C2065.69 243.125 2065.05 243.195 2064.4 243.258C2063.84 243.32 2063.21 243.367 2062.52 243.398C2061.84 243.445 2061.14 243.469 2060.44 243.469C2058.2 243.469 2056.46 242.961 2055.21 241.945C2053.96 240.93 2053.34 239.312 2053.34 237.094V223.523H2048.81V217.898H2053.34V210.797L2059.8 209.062V217.898H2066.39V223.523H2059.8V235.523ZM2076.94 243H2070.47V217.898H2076.94V243ZM2069.79 211.312C2069.79 210.781 2069.89 210.281 2070.09 209.812C2070.3 209.328 2070.57 208.914 2070.91 208.57C2071.27 208.211 2071.69 207.93 2072.16 207.727C2072.62 207.523 2073.13 207.422 2073.68 207.422C2074.21 207.422 2074.71 207.523 2075.18 207.727C2075.66 207.93 2076.08 208.211 2076.42 208.57C2076.78 208.914 2077.06 209.328 2077.27 209.812C2077.47 210.281 2077.57 210.781 2077.57 211.312C2077.57 211.859 2077.47 212.367 2077.27 212.836C2077.06 213.305 2076.78 213.719 2076.42 214.078C2076.08 214.422 2075.66 214.695 2075.18 214.898C2074.71 215.102 2074.21 215.203 2073.68 215.203C2073.13 215.203 2072.62 215.102 2072.16 214.898C2071.69 214.695 2071.27 214.422 2070.91 214.078C2070.57 213.719 2070.3 213.305 2070.09 212.836C2069.89 212.367 2069.79 211.859 2069.79 211.312ZM2093.55 217.406C2095.41 217.406 2097.1 217.742 2098.62 218.414C2100.13 219.07 2101.43 219.984 2102.51 221.156C2103.59 222.328 2104.41 223.711 2104.99 225.305C2105.59 226.898 2105.88 228.617 2105.88 230.461C2105.88 232.32 2105.59 234.047 2104.99 235.641C2104.4 237.219 2103.56 238.586 2102.48 239.742C2101.41 240.898 2100.11 241.812 2098.59 242.484C2097.08 243.141 2095.4 243.469 2093.55 243.469C2091.7 243.469 2090.01 243.141 2088.49 242.484C2086.98 241.812 2085.68 240.898 2084.6 239.742C2083.52 238.586 2082.69 237.219 2082.09 235.641C2081.5 234.047 2081.2 232.32 2081.2 230.461C2081.2 228.617 2081.49 226.898 2082.07 225.305C2082.66 223.711 2083.5 222.328 2084.58 221.156C2085.66 219.984 2086.95 219.07 2088.47 218.414C2090 217.742 2091.7 217.406 2093.55 217.406ZM2093.55 237.469C2094.48 237.469 2095.29 237.297 2095.99 236.953C2096.71 236.609 2097.31 236.133 2097.8 235.523C2098.28 234.914 2098.65 234.188 2098.9 233.344C2099.15 232.484 2099.27 231.547 2099.27 230.531V230.367C2099.27 229.352 2099.15 228.422 2098.9 227.578C2098.65 226.719 2098.28 225.984 2097.8 225.375C2097.31 224.75 2096.71 224.266 2095.99 223.922C2095.29 223.578 2094.48 223.406 2093.55 223.406C2092.63 223.406 2091.81 223.578 2091.09 223.922C2090.39 224.266 2089.8 224.75 2089.31 225.375C2088.83 225.984 2088.46 226.719 2088.21 227.578C2087.96 228.422 2087.84 229.352 2087.84 230.367V230.531C2087.84 231.547 2087.96 232.484 2088.21 233.344C2088.46 234.188 2088.83 234.914 2089.31 235.523C2089.8 236.133 2090.39 236.609 2091.09 236.953C2091.81 237.297 2092.63 237.469 2093.55 237.469ZM2110.17 217.898H2116.64V220.055C2116.98 219.711 2117.37 219.383 2117.79 219.07C2118.23 218.742 2118.7 218.461 2119.22 218.227C2119.73 217.977 2120.3 217.781 2120.93 217.641C2121.57 217.484 2122.27 217.406 2123.04 217.406C2124.4 217.406 2125.62 217.633 2126.7 218.086C2127.77 218.523 2128.68 219.133 2129.41 219.914C2130.16 220.695 2130.73 221.609 2131.12 222.656C2131.52 223.703 2131.71 224.836 2131.71 226.055V243H2125.24V228.398C2125.24 227.508 2125.14 226.758 2124.94 226.148C2124.73 225.523 2124.45 225.023 2124.09 224.648C2123.75 224.258 2123.34 223.977 2122.85 223.805C2122.38 223.617 2121.87 223.523 2121.3 223.523C2120.65 223.523 2120.03 223.641 2119.45 223.875C2118.89 224.109 2118.4 224.469 2117.98 224.953C2117.55 225.422 2117.23 226.016 2116.99 226.734C2116.76 227.453 2116.64 228.297 2116.64 229.266V243H2110.17V217.898ZM2151.49 230.273C2151.49 232.32 2151.75 234.258 2152.27 236.086C2152.8 237.898 2153.52 239.594 2154.42 241.172C2155.33 242.75 2156.39 244.219 2157.61 245.578C2158.84 246.938 2160.16 248.188 2161.55 249.328L2157.49 253.359L2155.69 251.93C2153.91 250.477 2152.31 248.93 2150.91 247.289C2149.5 245.664 2148.3 243.945 2147.32 242.133C2146.35 240.32 2145.61 238.414 2145.09 236.414C2144.59 234.414 2144.34 232.32 2144.34 230.133C2144.34 227.93 2144.59 225.836 2145.09 223.852C2145.61 221.852 2146.35 219.953 2147.32 218.156C2148.3 216.344 2149.5 214.625 2150.91 213C2152.31 211.375 2153.91 209.836 2155.69 208.383L2157.49 206.906L2161.55 210.984C2160.16 212.109 2158.84 213.352 2157.61 214.711C2156.39 216.055 2155.33 217.523 2154.42 219.117C2153.52 220.695 2152.8 222.391 2152.27 224.203C2151.75 226.016 2151.49 227.945 2151.49 229.992V230.273ZM2173.52 217.406C2175.38 217.406 2177.07 217.742 2178.59 218.414C2180.1 219.07 2181.4 219.984 2182.48 221.156C2183.55 222.328 2184.38 223.711 2184.96 225.305C2185.55 226.898 2185.85 228.617 2185.85 230.461C2185.85 232.32 2185.55 234.047 2184.96 235.641C2184.37 237.219 2183.53 238.586 2182.45 239.742C2181.38 240.898 2180.08 241.812 2178.56 242.484C2177.05 243.141 2175.37 243.469 2173.52 243.469C2171.66 243.469 2169.98 243.141 2168.46 242.484C2166.95 241.812 2165.65 240.898 2164.57 239.742C2163.49 238.586 2162.66 237.219 2162.06 235.641C2161.47 234.047 2161.17 232.32 2161.17 230.461C2161.17 228.617 2161.46 226.898 2162.04 225.305C2162.63 223.711 2163.47 222.328 2164.55 221.156C2165.62 219.984 2166.92 219.07 2168.44 218.414C2169.97 217.742 2171.66 217.406 2173.52 217.406ZM2173.52 237.469C2174.45 237.469 2175.26 237.297 2175.96 236.953C2176.68 236.609 2177.28 236.133 2177.77 235.523C2178.25 234.914 2178.62 234.188 2178.87 233.344C2179.12 232.484 2179.24 231.547 2179.24 230.531V230.367C2179.24 229.352 2179.12 228.422 2178.87 227.578C2178.62 226.719 2178.25 225.984 2177.77 225.375C2177.28 224.75 2176.68 224.266 2175.96 223.922C2175.26 223.578 2174.45 223.406 2173.52 223.406C2172.6 223.406 2171.78 223.578 2171.06 223.922C2170.36 224.266 2169.77 224.75 2169.28 225.375C2168.8 225.984 2168.43 226.719 2168.18 227.578C2167.93 228.422 2167.8 229.352 2167.8 230.367V230.531C2167.8 231.547 2167.93 232.484 2168.18 233.344C2168.43 234.188 2168.8 234.914 2169.28 235.523C2169.77 236.133 2170.36 236.609 2171.06 236.953C2171.78 237.297 2172.6 237.469 2173.52 237.469ZM2196.61 250.922H2190.14V217.898H2196.61V220.055C2197.31 219.32 2198.18 218.695 2199.21 218.18C2200.24 217.664 2201.49 217.406 2202.96 217.406C2204.62 217.406 2206.12 217.742 2207.46 218.414C2208.82 219.07 2209.98 219.984 2210.95 221.156C2211.92 222.312 2212.67 223.688 2213.2 225.281C2213.73 226.875 2214 228.602 2214 230.461C2214 232.32 2213.73 234.047 2213.18 235.641C2212.63 237.234 2211.87 238.609 2210.88 239.766C2209.9 240.922 2208.72 241.828 2207.34 242.484C2205.97 243.141 2204.45 243.469 2202.8 243.469C2202.06 243.469 2201.39 243.398 2200.78 243.258C2200.19 243.133 2199.64 242.953 2199.14 242.719C2198.64 242.484 2198.18 242.211 2197.76 241.898C2197.34 241.57 2196.95 241.219 2196.61 240.844V250.922ZM2196.42 232.781C2196.42 233.453 2196.54 234.078 2196.77 234.656C2197.02 235.219 2197.38 235.711 2197.83 236.133C2198.28 236.555 2198.82 236.883 2199.45 237.117C2200.09 237.352 2200.8 237.469 2201.6 237.469C2202.52 237.469 2203.34 237.305 2204.04 236.977C2204.76 236.633 2205.36 236.156 2205.84 235.547C2206.33 234.938 2206.7 234.219 2206.95 233.391C2207.2 232.547 2207.32 231.625 2207.32 230.625V230.32C2207.32 229.32 2207.2 228.398 2206.95 227.555C2206.7 226.711 2206.33 225.984 2205.84 225.375C2205.36 224.75 2204.76 224.266 2204.04 223.922C2203.34 223.578 2202.52 223.406 2201.6 223.406C2200.8 223.406 2200.09 223.523 2199.45 223.758C2198.82 223.992 2198.28 224.32 2197.83 224.742C2197.38 225.164 2197.02 225.664 2196.77 226.242C2196.54 226.82 2196.42 227.445 2196.42 228.117V232.781ZM2227.57 235.523C2227.57 235.82 2227.61 236.102 2227.69 236.367C2227.77 236.633 2227.9 236.867 2228.09 237.07C2228.29 237.258 2228.57 237.406 2228.93 237.516C2229.29 237.625 2229.75 237.68 2230.31 237.68C2230.55 237.68 2230.81 237.672 2231.11 237.656C2231.41 237.625 2231.7 237.594 2232 237.562C2232.3 237.531 2232.57 237.492 2232.82 237.445C2233.09 237.398 2233.3 237.359 2233.48 237.328L2234.06 243.047C2233.45 243.125 2232.82 243.195 2232.16 243.258C2231.6 243.32 2230.98 243.367 2230.29 243.398C2229.6 243.445 2228.91 243.469 2228.2 243.469C2225.97 243.469 2224.23 242.961 2222.98 241.945C2221.73 240.93 2221.1 239.312 2221.1 237.094V223.523H2216.58V217.898H2221.1V210.797L2227.57 209.062V217.898H2234.16V223.523H2227.57V235.523ZM2244.7 243H2238.23V217.898H2244.7V243ZM2237.55 211.312C2237.55 210.781 2237.66 210.281 2237.86 209.812C2238.06 209.328 2238.34 208.914 2238.68 208.57C2239.04 208.211 2239.45 207.93 2239.92 207.727C2240.39 207.523 2240.9 207.422 2241.45 207.422C2241.98 207.422 2242.48 207.523 2242.95 207.727C2243.43 207.93 2243.84 208.211 2244.19 208.57C2244.55 208.914 2244.83 209.328 2245.03 209.812C2245.23 210.281 2245.34 210.781 2245.34 211.312C2245.34 211.859 2245.23 212.367 2245.03 212.836C2244.83 213.305 2244.55 213.719 2244.19 214.078C2243.84 214.422 2243.43 214.695 2242.95 214.898C2242.48 215.102 2241.98 215.203 2241.45 215.203C2240.9 215.203 2240.39 215.102 2239.92 214.898C2239.45 214.695 2239.04 214.422 2238.68 214.078C2238.34 213.719 2238.06 213.305 2237.86 212.836C2237.66 212.367 2237.55 211.859 2237.55 211.312ZM2261.32 217.406C2263.18 217.406 2264.87 217.742 2266.38 218.414C2267.9 219.07 2269.2 219.984 2270.27 221.156C2271.35 222.328 2272.18 223.711 2272.76 225.305C2273.35 226.898 2273.65 228.617 2273.65 230.461C2273.65 232.32 2273.35 234.047 2272.76 235.641C2272.16 237.219 2271.33 238.586 2270.25 239.742C2269.17 240.898 2267.88 241.812 2266.36 242.484C2264.84 243.141 2263.16 243.469 2261.32 243.469C2259.46 243.469 2257.77 243.141 2256.26 242.484C2254.74 241.812 2253.45 240.898 2252.37 239.742C2251.29 238.586 2250.45 237.219 2249.86 235.641C2249.27 234.047 2248.97 232.32 2248.97 230.461C2248.97 228.617 2249.26 226.898 2249.84 225.305C2250.43 223.711 2251.27 222.328 2252.34 221.156C2253.42 219.984 2254.72 219.07 2256.23 218.414C2257.77 217.742 2259.46 217.406 2261.32 217.406ZM2261.32 237.469C2262.24 237.469 2263.05 237.297 2263.76 236.953C2264.48 236.609 2265.08 236.133 2265.56 235.523C2266.05 234.914 2266.41 234.188 2266.66 233.344C2266.91 232.484 2267.04 231.547 2267.04 230.531V230.367C2267.04 229.352 2266.91 228.422 2266.66 227.578C2266.41 226.719 2266.05 225.984 2265.56 225.375C2265.08 224.75 2264.48 224.266 2263.76 223.922C2263.05 223.578 2262.24 223.406 2261.32 223.406C2260.4 223.406 2259.58 223.578 2258.86 223.922C2258.16 224.266 2257.56 224.75 2257.08 225.375C2256.59 225.984 2256.23 226.719 2255.98 227.578C2255.73 228.422 2255.6 229.352 2255.6 230.367V230.531C2255.6 231.547 2255.73 232.484 2255.98 233.344C2256.23 234.188 2256.59 234.914 2257.08 235.523C2257.56 236.133 2258.16 236.609 2258.86 236.953C2259.58 237.297 2260.4 237.469 2261.32 237.469ZM2277.94 217.898H2284.41V220.055C2284.75 219.711 2285.13 219.383 2285.55 219.07C2285.99 218.742 2286.47 218.461 2286.98 218.227C2287.5 217.977 2288.07 217.781 2288.7 217.641C2289.34 217.484 2290.04 217.406 2290.8 217.406C2292.16 217.406 2293.38 217.633 2294.46 218.086C2295.54 218.523 2296.45 219.133 2297.18 219.914C2297.93 220.695 2298.5 221.609 2298.89 222.656C2299.28 223.703 2299.48 224.836 2299.48 226.055V243H2293.01V228.398C2293.01 227.508 2292.91 226.758 2292.7 226.148C2292.5 225.523 2292.22 225.023 2291.86 224.648C2291.52 224.258 2291.1 223.977 2290.62 223.805C2290.15 223.617 2289.63 223.523 2289.07 223.523C2288.41 223.523 2287.8 223.641 2287.22 223.875C2286.66 224.109 2286.16 224.469 2285.74 224.953C2285.32 225.422 2284.99 226.016 2284.76 226.734C2284.52 227.453 2284.41 228.297 2284.41 229.266V243H2277.94V217.898ZM2313 232.805C2312.2 232.93 2311.56 233.211 2311.08 233.648C2310.59 234.07 2310.35 234.648 2310.35 235.383C2310.35 236.195 2310.65 236.898 2311.24 237.492C2311.84 238.07 2312.71 238.359 2313.87 238.359C2315.09 238.359 2316.05 238.008 2316.75 237.305C2317.45 236.602 2317.8 235.672 2317.8 234.516V231.984L2313 232.805ZM2318.86 240.633C2318.59 240.93 2318.27 241.25 2317.88 241.594C2317.5 241.922 2317.05 242.227 2316.52 242.508C2316 242.773 2315.39 243 2314.69 243.188C2313.98 243.375 2313.2 243.469 2312.32 243.469C2311.07 243.469 2309.91 243.273 2308.85 242.883C2307.8 242.477 2306.88 241.914 2306.09 241.195C2305.29 240.477 2304.66 239.648 2304.21 238.711C2303.76 237.758 2303.53 236.727 2303.53 235.617C2303.53 233.602 2304.16 231.953 2305.41 230.672C2306.66 229.391 2308.38 228.586 2310.59 228.258L2317.8 227.203V226.734C2317.8 225.609 2317.46 224.719 2316.77 224.062C2316.09 223.406 2314.97 223.078 2313.42 223.078C2312.78 223.078 2312.13 223.156 2311.48 223.312C2310.82 223.453 2310.19 223.617 2309.58 223.805C2308.98 223.992 2308.43 224.211 2307.91 224.461C2307.4 224.695 2306.95 224.906 2306.55 225.094L2304.02 220.148C2305.46 219.352 2307.05 218.695 2308.8 218.18C2310.57 217.664 2312.4 217.406 2314.29 217.406C2315.45 217.406 2316.61 217.531 2317.78 217.781C2318.97 218.016 2320.04 218.453 2320.99 219.094C2321.96 219.734 2322.75 220.609 2323.36 221.719C2323.97 222.812 2324.27 224.211 2324.27 225.914V236.227C2324.27 236.961 2324.46 237.508 2324.84 237.867C2325.23 238.211 2325.76 238.531 2326.43 238.828L2323.5 243.469C2322.31 243.344 2321.36 243.039 2320.64 242.555C2319.92 242.055 2319.33 241.414 2318.86 240.633ZM2329.59 209.391H2336.06V236.18C2336.06 236.711 2336.21 237.117 2336.51 237.398C2336.82 237.68 2337.31 237.82 2337.98 237.82C2338.3 237.82 2338.56 237.805 2338.78 237.773C2339.02 237.727 2339.31 237.664 2339.67 237.586L2340.19 243.094C2339.75 243.156 2339.28 243.219 2338.78 243.281C2338.36 243.328 2337.87 243.367 2337.3 243.398C2336.76 243.445 2336.19 243.469 2335.59 243.469C2334.67 243.469 2333.84 243.352 2333.11 243.117C2332.38 242.883 2331.74 242.539 2331.21 242.086C2330.7 241.617 2330.3 241.039 2330.02 240.352C2329.73 239.664 2329.59 238.867 2329.59 237.961V209.391ZM2351.48 229.992C2351.48 227.945 2351.22 226.016 2350.69 224.203C2350.17 222.391 2349.46 220.695 2348.55 219.117C2347.65 217.523 2346.58 216.055 2345.34 214.711C2344.12 213.352 2342.82 212.109 2341.43 210.984L2345.48 206.906L2347.29 208.383C2349.07 209.836 2350.66 211.375 2352.07 213C2353.48 214.625 2354.66 216.344 2355.63 218.156C2356.62 219.953 2357.36 221.852 2357.86 223.852C2358.38 225.836 2358.63 227.93 2358.63 230.133C2358.63 232.32 2358.38 234.414 2357.86 236.414C2357.36 238.414 2356.62 240.32 2355.63 242.133C2354.66 243.945 2353.48 245.664 2352.07 247.289C2350.66 248.93 2349.07 250.477 2347.29 251.93L2345.48 253.359L2341.43 249.328C2342.82 248.188 2344.12 246.938 2345.34 245.578C2346.58 244.219 2347.65 242.75 2348.55 241.172C2349.46 239.594 2350.17 237.898 2350.69 236.086C2351.22 234.258 2351.48 232.32 2351.48 230.273V229.992Z" fill="#0B0C0C"/>
<rect x="1826.5" y="2.5" width="595" height="395" stroke="#0B0C0C" stroke-width="5"/>
<defs>
<clipPath id="clip0_11221_41479">
<rect width="93" height="24" fill="white" transform="matrix(-1 0 0 1 740 296)"/>
</clipPath>
</defs>
</svg>
